<?xml version="1.0" encoding="UTF-8"?><svg id="Layer_2" xmlns="http://www.w3.org/2000/svg" viewBox="0 0 90.39 86.48"><defs><style>.cls-1{fill:#1d1d1b;}.cls-2{fill:#ededed;}</style></defs><g id="Layer_5"><path class="cls-1" d="M90.39,43.24c0,11.94-3.56,26.02-11.74,33.85-8.18,7.82-20.98,9.39-33.46,9.39-13.14,0-28.33-3.96-36.59-12.52C1.18,66.25,0,54.55,0,43.24,0,31.34,4.01,16.82,12.13,9,20.32,1.12,32.67,0,45.2,0c11.29,0,22.01.5,29.93,7.04,9.6,7.93,15.26,23.11,15.26,36.2Z"/><rect class="cls-2" x="32.46" y="19.38" width="15.11" height="42.39" rx="6.65" ry="6.65" transform="translate(-11.08 15.34) rotate(-19.11)"/><rect class="cls-2" x="51.97" y="19.46" width="15.11" height="42.39" rx="6.65" ry="6.65" transform="translate(-10.03 21.73) rotate(-19.11)"/><rect class="cls-2" x="16.84" y="37.98" width="15.11" height="23.27" rx="6.65" ry="6.65" transform="translate(-14.9 10.72) rotate(-19.11)"/></g></svg>