<svg id="Layer_1" data-name="Layer 1" xmlns="http://www.w3.org/2000/svg" viewBox="0 0 535.28 535.28"><defs><style>.cls-1{fill:#c44a0c;}</style></defs><path class="cls-1" d="M205.29,303.05l-9.53-.05c.26-13.94.15-26.83.46-41.39,7.46,0,15,0,16.58.72a8.46,8.46,0,0,1,4.45,4.1,28.88,28.88,0,0,1,.94,8.39c0,3.68-.37,7.46-1.14,9.27-1.56,3.78-3.27,3.47-6.06,4.09a32.4,32.4,0,0,1-5.7.42Zm4.3-24.14c.46-.62.67-2.18.72-4.25.05-2.28.05-4-1.81-4.71a25.26,25.26,0,0,0-3.47-.26l.52,10.67C208.19,280.57,209,279.79,209.59,278.91Z"/><path class="cls-1" d="M232.33,271.66c0-2.85,0-5.13.21-9.69a15.83,15.83,0,0,1,2.17-.15c1.61,0,3.32.2,5.75.2.62,0,1.3,0,2,0,.16,5.44.21,10.67.21,15.8,0,7.36-.1,14.61-.1,22.33v2.95l-10.21-.31s0-18.55,0-23.67Z"/><path class="cls-1" d="M255.85,267.15c.15-1.66,0-3,.57-4.92,2.12,0,4,.1,5.75.1,3.52,0,6.58-.1,10.15-.1,2.54,0,5.23,0,8.55.21-2.85,11-5.8,20.36-9.53,31.29,3.62-.05,6.16.15,10.46-.16a18.66,18.66,0,0,1,.57,4.4c0,1.51-.15,3-.21,5.13-3.15,0-5.69.11-8,.11-4.87,0-8.76-.11-16.17-.16,2.39-9.27,7.26-21.29,10.52-31.75-4.3.1-7.87.15-13.11.2C255.54,269.69,255.69,268.76,255.85,267.15Z"/><path class="cls-1" d="M293,267.15c-.15-1.66-.57-3.26-.67-4.92,2.28.1,4.3.1,6.16.1,2.8,0,5.29-.05,8-.05s5.86.05,9.74.26c-.15.73-.05,1.4-.2,2.07-2.6,10.16-4.93,18.86-7.26,29.12,3.63-.05,4.41.36,8.71.36.1,3.94.67,4.71.67,8.34v.47c-4.51.1-7.31.1-10.1.1-3.37,0-6.63,0-12.59-.05,1.5-5.91,3.37-12.75,5.34-19.64,1.13-3.88,2-8,3.1-11.81-4.19-.2-5.38-.26-10.51-.41A24.91,24.91,0,0,0,293,267.15Z"/><path class="cls-1" d="M342.41,277.93c2.91.15,6.95.05,10.52.36a27,27,0,0,1-.41,8.6l-10.52.05c.1,2.23.15,4.25.26,6.48a106.46,106.46,0,0,1,13.52,0c-.42,3.78-.26,5.38-.73,9-7.77.52-13.72.47-22.32.72-.21-4.71-.26-9.42-.26-14.14,0-8.75.21-17.45.26-26.26,8.49-.36,13.67-.68,22.63-.88.06,3.31.16,4.82.37,9.22l-13.11.31Z"/><path class="cls-1" d="M388.36,304.92c-3.47-8-4.55-10.73-6.63-15.75l-2.17-.05s-.42,13.31-.42,14c-.88,0-1.55,0-2.12,0-2.49,0-2.59-.2-6.17-.36-.2-9.22-.2-15.75-.41-24.4-.1-3.05-.16-6.47-.16-9.89,0-2,.06-3.89.06-5.75a59.42,59.42,0,0,1,6.58-.47c.67,0,1.34.05,2.17.05,3.78.06,8.5.52,10.15,2.23,3.27,3.37,2.85,4.46,3.16,12.33,0,.36.06.73.06,1.09a17,17,0,0,1-.94,5.49L389,287.25l6.58,14.09Zm-5.07-24.45c.36-3.89.41-7.36-.42-9.07s-3.73-.88-3.88-.88.26,7.67.52,11.14C383,282.43,383.29,280.47,383.29,280.47Z"/><path class="cls-1" d="M409.71,261.76c.83-.05,1.5-.1,2.17-.1,1.56,0,2.9.16,5.08.16.67,0,1.4,0,2.28-.06.31,11.4.31,21.86.31,32.9v8.39l-10,.31s-.05-19.06-.05-24.19C409.5,270.88,409.5,269.48,409.71,261.76Z"/><path class="cls-1" d="M451.88,262.23c3.57,10.21,5.75,20.77,8.91,33.41.62,2.44,1.14,4.72,1.81,7.36l-10.78.05a43.29,43.29,0,0,0-1.19-6.22c-2.12.06-5.38-.25-7.35-.2l-1.14,6.52c-4.2,0-5.29-.1-10.1-.15l5.28-22.74,3.47-16.53.67-2c.21,0,.47,0,.73,0,1,0,2.38.16,4.09.16A40,40,0,0,1,451.88,262.23Zm-2.33,26-2.39-14c-.41,2.12-1,5.08-1.5,7.87-.62,3.47-.93,5.91-1,5.91A31.07,31.07,0,0,0,449.55,288.24Z"/><path class="cls-1" d="M203,243.1h-2.71c-1.38,0-2.77,0-4.15-.12,0-7-.06-15.14-.06-21.88v-1.62h2.44c2.33,0,4.8.15,5.95,1.59a13.67,13.67,0,0,1,.86,5.13,19.46,19.46,0,0,1-.27,3.44c-.18,1.12-.88,1.47-1.06,1.94a8.3,8.3,0,0,1,2.18,6.07,24.08,24.08,0,0,1-.35,3.68A3.26,3.26,0,0,1,203,243.1Zm-3.59-20.5c-.09,2.74.06,5.27.08,7.78a5.05,5.05,0,0,0,2.39-.44,5.31,5.31,0,0,0,.53-2.68c0-1.06-.12-2.18-.12-3.27C202,222.6,200.5,222.48,199.36,222.6Zm.08,11.58,0,6a15.81,15.81,0,0,0,2.32,0c.59-.23.74-1.14.74-2.35,0-.71-.06-1.5-.09-2.36C202.27,233.71,200.71,234.09,199.44,234.18Z"/><path class="cls-1" d="M223.8,243.13c-.47-1.33-.56-4.33-.92-5.83-1.65-.12-2.74.14-4.65.17l-1.62,5.87c-.82-.09-2.18-.36-3.18-.59l.5-2.07,5.33-21c.5,0,1.5,0,2.8,0,.5,0,1,0,1.32,0,1.8,7.36,2.74,15.9,4.45,23.14C226.71,242.83,225.12,243.13,223.8,243.13Zm-2.6-18.52c-.47,3-1.44,6.33-2,9.24,1.15,0,2-.17,3.07-.17C221.73,230.73,221.62,228.61,221.2,224.61Z"/><path class="cls-1" d="M244,222.87h-1.24c-1.71,0-3.48.14-4.12,1.88a64.48,64.48,0,0,0-.33,6.63c0,1.79.06,3.56.21,5.39.2,3,3.44,3.09,5.27,2.91-.06,1.15,0,1.86-.12,3.48-1.73,0-7.77,0-8.51-2.95a36.62,36.62,0,0,1-.62-7.54,56.08,56.08,0,0,1,.71-9.27c.35-2.15,1.59-2.77,3.62-3.36a10.82,10.82,0,0,1,4-.56c.38,0,.79,0,1.23,0Z"/><path class="cls-1" d="M259.78,243c-1.3-3.89-2.3-7.51-3.06-10.1-.8,1.18-1.15,2.12-1.8,3.15-.09,1.36.26,3.95.12,6.95h-3.65V219.51l3.56.06c-.06,2.77-.12,6.68,0,9.63a80.26,80.26,0,0,0,4.77-9.42H260a11.3,11.3,0,0,1,3.18.67c-.5,2.83-3,6.28-4.24,9,2.09,4.42,3.41,9.25,5.09,13.52Z"/><path class="cls-1" d="M290.64,243c-2.65,0-5.19-.56-5.72-3a47.51,47.51,0,0,1-.76-10.4c0-1.62,0-3.36,0-5.21a4.34,4.34,0,0,1,2.15-3.83,6.73,6.73,0,0,1,3.33-.88,4.64,4.64,0,0,1,3.53,1.41c.74.83.82,2.71.82,3.42v.26c-.88.09-1.79.24-3,.44-.23-1.38.24-2.26-1.35-2.26-1.18,0-2.07.41-2.09,2.18,0,1.53-.06,3.41,0,4.85l.45,7.51c.11,1.83,2.38,2,3.62,1.86.12-1,0-2.56.09-6l-1.74,0a16.53,16.53,0,0,1,0-3c1.12-.18,2.92-.12,4.45-.18,0,4.3.26,7.78.26,10.78,0,.59,0,1.15,0,1.68A33.26,33.26,0,0,1,290.64,243Z"/><path class="cls-1" d="M312.52,243c-.48-1.32-.74-3.42-1.09-4.92-1.65-.12-3.42,0-5.07,0L305.09,243c-.7,0-1.44-.06-2.15-.06a6.34,6.34,0,0,0-1.06.06l.5-2.36,4.75-21.08h1.94c.53,0,1.09,0,1.5,0,2,6.39,3.89,15.37,6,23.47Zm-3.6-17.11c-.73,2.95-1.68,8.75-1.68,8.75l3.42,0C310.13,231.7,309.6,228.64,308.92,225.93Z"/><path class="cls-1" d="M333.89,243.28a52.55,52.55,0,0,1-3.77-9.28,7.32,7.32,0,0,1-2.41.26c-.24,2.18,0,6.28-.09,8.72-.71,0-1.38,0-2.15,0-.38,0-.8,0-1.24,0v-2.41c0-7,.12-14.79.24-21.24.68.06,1.44.06,2.27.09,2.23,0,4.71.09,6,1.36a6.39,6.39,0,0,1,1.65,4c0,1.3.12,2.3.12,3.24a11.69,11.69,0,0,1-.56,3.68c-.21.33-.56,1-1.12,1.27l3.77,8.92Zm-3.59-20a2.12,2.12,0,0,0-1.65-.53,3.52,3.52,0,0,0-.85.09c.14,2.53-.18,5.74-.09,8.51.32,0,.91,0,1.29,0,.95-.09,1.95-.62,2-1.33l.09-3.88A5.23,5.23,0,0,0,330.3,223.28Z"/><path class="cls-1" d="M344.26,243.1c-.06-1-.06-22.12-.06-23.53,3.35,0,8,1,9.42,4.42a29.86,29.86,0,0,1,.83,7.21,57,57,0,0,1-.45,6.57C353.59,241.42,347.88,243.1,344.26,243.1Zm7.18-12.63c0-2.24-.23-4.36-1.21-5.42a3.44,3.44,0,0,0-2.47-1.45c-.09,1.33,0,4,0,5.66,0,3.36-.26,6.71-.21,9.92l1.39-.41a3.52,3.52,0,0,0,2.3-3C351.27,234.29,351.44,232.32,351.44,230.47Z"/><path class="cls-1" d="M367.78,242.83c-1.73,0-3.62,0-5.21.09l-.06-1.71c-.06-1.88-.09-3.79-.09-5.74,0-5.3.18-10.69.18-15.61,2.06-.11,4.24-.17,6.18-.17.74,0,1.42,0,2.07,0,0,.64.08,1.68.14,3.35l-4.8.18v.09l-.17,5.59c.94-.05,2,0,4.15,0,0,.71.2,1.51.2,2.3a4.3,4.3,0,0,1-.08.88l-4.27.15c.09,2.18,0,5.51.09,6.8,1.56,0,3.18,0,5,.15a3.7,3.7,0,0,0,0,.59c0,.68.09,1.47.09,2.21a7.56,7.56,0,0,1-.06.85C370.17,242.83,369,242.83,367.78,242.83Z"/><path class="cls-1" d="M392.22,223.49c0,6.36-.29,12.87-.5,19.49h-2.91c-2.27-4.21-4-8.89-6.54-13,.12,4.3.18,8.72.29,13h-3.71V219.57h2.48c2.41,4.8,4.86,9.57,7.18,14.66l-.23-14.6h3.91C392.22,220.89,392.22,222.19,392.22,223.49Z"/><path class="cls-1" d="M104,236.44c-.17-.05-.19-.24-.24-.46-.11-.47-.29-.93-.44-1.39a1.5,1.5,0,0,1-.14-.52c.06-.57-.3-1.06-.29-1.61-.46-.61-.39-1.41-.78-2.07a11.85,11.85,0,0,1-.79-2,18.86,18.86,0,0,0-.83-2.25c-.37-.69-.57-1.44-.94-2.11-.12-.21-.29-.39-.42-.6a5.7,5.7,0,0,1-.32-.6,9.33,9.33,0,0,0-1-1.79l0-.05a13,13,0,0,1-.89-2.81,6.05,6.05,0,0,0-.32-1.32,1.55,1.55,0,0,1,.1-1.16,4.35,4.35,0,0,1,1.19-1.54,2.28,2.28,0,0,0,.39-.37,1.56,1.56,0,0,1,1.2-.53.83.83,0,0,1,.8.2,6.44,6.44,0,0,1,1,2c0,.21.1.41.14.62a5.92,5.92,0,0,0,1,2.37c0,.06.11.12.12.19a12,12,0,0,0,1,2.19c.19.47.43.93.64,1.4.12.26.26.51.37.77s.19.53.29.8.17.46.26.68c.2.48.4,1,.61,1.41a1,1,0,0,0,.17.33,1.83,1.83,0,0,1,.28.49,1,1,0,0,0,.42.45,3.43,3.43,0,0,1,.54.4,1.12,1.12,0,0,1,.29.47,1.11,1.11,0,0,0,.14.29,8.74,8.74,0,0,1,1,2.09,5.45,5.45,0,0,0,.35.62c.11.2.19.41.29.62a10.63,10.63,0,0,0,.56,1.12,5.62,5.62,0,0,1,.37,1c.07.21.16.41.24.62a16.69,16.69,0,0,0,.93,1.9,22.22,22.22,0,0,1,1,2.4,14.86,14.86,0,0,0,1.5,2.81c.17.25.3.53.47.79a13.89,13.89,0,0,0,1,1.5c.3.36.56.74.88,1.07a9.29,9.29,0,0,0,1,1,7.57,7.57,0,0,0,1.13.59,5,5,0,0,0,1.91.38,1.85,1.85,0,0,0,.7-.09c.49-.19,1-.39,1.44-.62s.75-.44,1.12-.67c.55-.35,1.13-.67,1.65-1.06,1.17-.88,2.41-1.64,3.57-2.53.79-.61,1.64-1.15,2.42-1.77.62-.5,1.28-1,1.86-1.51a12.09,12.09,0,0,0,.78-1c0-.06.08-.17.12-.17.3,0,.42-.28.64-.4a1.08,1.08,0,0,0,.39-.43,1.58,1.58,0,0,1,.56-.64,1.67,1.67,0,0,1,.43-.15,5,5,0,0,1,1.41-1.75c.18-.19.48-.25.56-.55.58-.18.74-.81,1.2-1.14a4.72,4.72,0,0,0,.75-.9,16.53,16.53,0,0,1,1.54-1.78,16.93,16.93,0,0,0,1.42-1.52,6.5,6.5,0,0,0,1.32-1.5,3.17,3.17,0,0,1,1-1c.3-.24.63-.46.94-.72a1.75,1.75,0,0,1,1.29-.48,1.12,1.12,0,0,0,.58-.07c.39-.19.64.06.92.21a8.48,8.48,0,0,1,1.51,1.4c.15.33.28.67.43,1s.16.35.25.54a5.32,5.32,0,0,1-.17.72,9.46,9.46,0,0,1-.4.92c0,.08-.13.14-.15.23-.25.83-1,1.19-1.6,1.68-.07.06-.17.08-.24.13-.25.17-.58.12-.82.34s-.44.36-.66.54c-.05,0-.09.1-.15.11a5.3,5.3,0,0,0-1.59,1.11c-.49.36-1,.69-1.48,1.06a7.37,7.37,0,0,0-.73.75.88.88,0,0,1-.24.2,1.44,1.44,0,0,0-.7.55c-.11.17-.38.24-.53.39a17.08,17.08,0,0,0-1.74,2.06,1.79,1.79,0,0,1-.23.25,2.08,2.08,0,0,0-.46.42,4.12,4.12,0,0,1-.77.84c-.29.27-.53.59-.8.87a3,3,0,0,1-1,.86.53.53,0,0,0-.25.24A3.73,3.73,0,0,1,135,243.1c-.32.24-.63.51-.93.77-.78.67-1.55,1.32-2.39,1.91a2.55,2.55,0,0,0-.26.3c-.16.19-.26.43-.52.55s-.21.25-.33.36l-.77.77a9.43,9.43,0,0,0-.85.82c-.27.35-.57.66-.82,1a9.78,9.78,0,0,0-.52,1,4.47,4.47,0,0,0-.41,2.18,1.5,1.5,0,0,0,.53.93,9.16,9.16,0,0,0,1,1c1.13,1,2.63,1.2,3.9,1.89a18.91,18.91,0,0,0,4.41,1.73c2.4.6,4.79.46,7.23.69a43.29,43.29,0,0,0,7,.19c.17,0,.34,0,.5-.06s.2,0,.27,0a4.51,4.51,0,0,0,1.71.16c1.4,0,2.8.08,4.2.15.69,0,1.36.16,2,.22.47,0,.93.1,1.4.12a5.17,5.17,0,0,0,1-.07,1.1,1.1,0,0,1,1.09.43,10,10,0,0,0,.68.78,1.44,1.44,0,0,1,.38,1.27,3.13,3.13,0,0,0,0,.53c0,.13,0,.31,0,.39a3.07,3.07,0,0,0-.48,1.06c-.14.43-.5.59-.82.79a2.66,2.66,0,0,1-.56.2c-.07,0-.16.06-.22,0-.6-.22-1.24-.05-1.84-.22a3.74,3.74,0,0,0-1-.14c-.76,0-1.5-.18-2.27-.15-.36,0-.73-.16-1.12-.06-.1,0-.23-.07-.35-.08l-.9,0c-.11,0-.21,0-.32,0l-1.27,0c-.56,0-1.12,0-1.68,0-.71,0-1.42-.13-2.13-.18-.42,0-.85,0-1.27,0-.68,0-1.36,0-2-.09s-1.51-.08-2.26-.11c-.3,0-.6,0-.9,0s-.84-.11-1.26-.18c-.18,0-.35-.11-.52,0,0,0-.07,0-.08,0-.33-.28-.71,0-1.06-.09a7.22,7.22,0,0,0-1,0,.25.25,0,0,1-.13,0c-.39-.31-.85-.18-1.28-.21-1-.05-2-.09-3-.19a3.86,3.86,0,0,0-1.27,0c-.06,0-.14,0-.22,0a4.82,4.82,0,0,0-1.07-.13c-.49,0-1-.08-1.45-.13a5.34,5.34,0,0,0-1.13,0,9,9,0,0,1-1-.09,2.6,2.6,0,0,0-1.17.09,2.39,2.39,0,0,1-.85,0c-.09,0-.18-.07-.26-.06-.55.06-1.09.14-1.63.21-.21,0-.55,0-.76,0-.38,0-.75.06-1.12.07s-.76.13-1.15.15l-1.27.12-.09,0a8.22,8.22,0,0,1-1.61.39,5.66,5.66,0,0,0-.9.32,6.19,6.19,0,0,0-1.1.53,5.87,5.87,0,0,0-.91.82.57.57,0,0,0-.13.27,7.59,7.59,0,0,0,.09,2.89c.17.65.42,1.27.64,1.9a5.1,5.1,0,0,0,.36,1c.42.67.56,1.45.94,2.13.28.49.52,1,.79,1.49l1.21,2.18c.19.33.41.65.59,1,.36.66.68,1.36,1.09,2a5.23,5.23,0,0,0,.91,1.33,1.36,1.36,0,0,1,.23.34,13.15,13.15,0,0,1,1.35,2.22.68.68,0,0,0,.17.21,4.35,4.35,0,0,1,1,1.59.61.61,0,0,0,.16.28,8.09,8.09,0,0,1,1.31,1.71l1.81,2.48a1.18,1.18,0,0,1,.13.18,6.13,6.13,0,0,0,1.14,1.66c.54.63.93,1.35,1.41,2,.37.52.69,1.07,1,1.61s.85,1.29,1.29,1.94c.14.21.31.41.46.62l.86,1.24c.21.29.44.57.66.87a4.31,4.31,0,0,1,.26.47c.1.19.19.38.28.57s.11.18.09.25a.76.76,0,0,0,.22.67.56.56,0,0,1,.09.21c0,.63,0,1.27,0,1.9,0,.23,0,.46,0,.68s-.06.25-.13.28c-.43.16-.65.58-1,.84a.84.84,0,0,1-.67.2.77.77,0,0,0-.25,0,1.93,1.93,0,0,1-1.6-.29.43.43,0,0,1-.16-.17,5.57,5.57,0,0,0-.58-1c-.49-.72-.87-1.5-1.33-2.24a6.31,6.31,0,0,0-.67-.8c-.2-.23-.42-.44-.63-.66a9.37,9.37,0,0,1-.8-.87,12.55,12.55,0,0,1-.67-1.19.9.9,0,0,0-.12-.24c-.33-.38-.66-.76-1-1.1a4.7,4.7,0,0,1-1.07-1.4c-.07-.16-.25-.26-.36-.4-.53-.68-1-1.38-1.58-2.05-.25-.29-.59-.52-.86-.79s-.59-.67-.91-1-.78-1.07-1.39-1.37c-.06,0-.13-.07-.14-.11a3.07,3.07,0,0,0-.94-1.37c-.38-.42-.65-.92-1.05-1.32a8.53,8.53,0,0,1-.55-.83c-.13-.19-.31-.36-.46-.55A.7.7,0,0,1,117,287a1,1,0,0,0-.43-.67,6.5,6.5,0,0,1-1.2-1.43c-.22,0-.37-.1-.53-.36a11.25,11.25,0,0,0-.92-1.17c-.16-.18-.31-.37-.48-.54s-.4-.4-.61-.59c-.53-.51-1.08-1-1.57-1.52a8,8,0,0,0-1-.91c-.13-.1-.22-.25-.36-.35a2.17,2.17,0,0,0-.69-.42,2.55,2.55,0,0,1-.61-.26,2.91,2.91,0,0,0-2-.26,8.6,8.6,0,0,0-2.49,1c-.2.1-.42.16-.63.25-.38.16-.74.36-1.12.5s-.9.53-1.41.7c-.24.07-.42.31-.63.47a8.3,8.3,0,0,1-1.05.8,4.54,4.54,0,0,0-.82.71c-.18.14-.36.28-.55.4-.5.31-.85.79-1.31,1.14a7.37,7.37,0,0,0-.61.5c-.22.19-.41.41-.62.61s-.69.64-1,1a4.74,4.74,0,0,1-.65.69,9.25,9.25,0,0,0-.91.86.86.86,0,0,0-.3.33c-.07.23-.15.41-.42.47-.07,0-.1.18-.16.26a3.51,3.51,0,0,1-.6.79,2.6,2.6,0,0,0-.75.83,1,1,0,0,1-.27.3c-.36.38-.76.72-1.1,1.13a12.1,12.1,0,0,1-1.22,1.15,2.81,2.81,0,0,0-.76.7c-.06.1-.24.13-.33.22L85.06,296a.9.9,0,0,0-.1.09,3.46,3.46,0,0,1-1.73,1.38,3.36,3.36,0,0,0-.43.31,8,8,0,0,0-1.08.09.83.83,0,0,1-.71-.18,2.89,2.89,0,0,1-1.15-2.28A1.5,1.5,0,0,1,80,295a1.37,1.37,0,0,0,.08-.35,1.37,1.37,0,0,1,.38-1c.21-.23.36-.48.09-.81a1.53,1.53,0,0,1-.28-.59.6.6,0,0,1,.06-.44c.18-.28.14-.48-.16-.64a3.72,3.72,0,0,1,.28-.6.46.46,0,0,0,0-.63l.39-.69c0-.06.06-.16.11-.19.49-.3.66-.85,1-1.24.17-.19.32-.4.49-.59a1.09,1.09,0,0,1,.25-.27,3.2,3.2,0,0,0,1.18-1.29,1.3,1.3,0,0,1,.39-.45c.62-.43,1-1.15,1.58-1.59.94-.67,1.58-1.64,2.44-2.38a24.88,24.88,0,0,0,2-1.86,9,9,0,0,1,1.07-.89c.14-.11.24-.27.37-.39.47-.42,1-.81,1.41-1.23s1-.91,1.45-1.37.76-.71,1.1-1.09.77-.93,1.14-1.4.74-.92,1.08-1.39a9.46,9.46,0,0,1,.52-.89,10.12,10.12,0,0,0,.75-1.21,3.34,3.34,0,0,0,.37-.6c.28-.69.52-1.4.78-2.1a1,1,0,0,0,0-.71.72.72,0,0,1,.06-.7.63.63,0,0,0,0-.7,1.9,1.9,0,0,1-.27-1,1.77,1.77,0,0,0-.29-.89.63.63,0,0,1-.1-.43.61.61,0,0,0-.44-.62.66.66,0,0,1-.46-.51.92.92,0,0,0-.54-.69,3.18,3.18,0,0,1-.61-.51,6.23,6.23,0,0,0-.8-.66,3.19,3.19,0,0,1-.71-.61,2.71,2.71,0,0,0-1.13-.64c-.34-.15-.72-.22-1.06-.37a6,6,0,0,1-1.08-.47,12.84,12.84,0,0,0-1.71-.94.89.89,0,0,1-.22-.16.52.52,0,0,0-.48-.14,1.29,1.29,0,0,1-.77-.22,2,2,0,0,0-1-.26c-.45-.08-.9-.12-1.34-.19-.2,0-.39-.1-.58-.13s-.57-.08-.85-.14c-.71-.16-1.41-.33-2.12-.52-.36-.1-.71-.24-1.07-.35s-.5-.11-.78-.18c-.29.28-.64.06-1,0s-.72-.11-1.07-.17a.53.53,0,0,1-.18-.05,3.63,3.63,0,0,0-1.56-.31c-.27,0-.54-.09-.81-.13l-.44-.05a10.09,10.09,0,0,1-1.9-.34s-.07,0-.08,0c-.41.27-.74-.12-1.12-.14s-.76-.2-1.14-.26-.76-.07-1.13-.1c-.09,0-.2,0-.27,0-.59-.32-1.32-.2-1.88-.63a1.13,1.13,0,0,0-.42-.1c-.31-.07-.62-.12-.92-.21s-.57-.22-.85-.32a.77.77,0,0,1-.53-.59c-.09-.37-.4-.66-.36-1.06-.39-.32-.15-.67-.09-1a3.77,3.77,0,0,0,.14-1.16,1.51,1.51,0,0,1,.51-1.17c.16-.18.36-.33.54-.5a.83.83,0,0,1,.65-.12,1.06,1.06,0,0,0,1-.27s.11,0,.12,0a1.68,1.68,0,0,0,1.26.69l1.69.39a.68.68,0,0,0,.31,0,1.61,1.61,0,0,1,1.1.15,9.71,9.71,0,0,0,1.19.26c.59.1,1.2.15,1.8.24.32.05.62.16.93.22l1.62.32,2.37.5,3.22.7,2.54.5c.44.08.88.14,1.33.21,0,0,.11,0,.13,0,.25.29.64.26,1,.4a1.21,1.21,0,0,0,.57.06c.76-.07,1.52-.21,2.27-.22a7.23,7.23,0,0,1,1.73.11c.44.1,1.17.18,1.62.23a9.49,9.49,0,0,0,2.26.05c.78-.13,1.58-.12,2.36-.23a3.18,3.18,0,0,0,.6-.18,4.24,4.24,0,0,0,1.48-.6c.06-.05.2,0,.29,0a1.17,1.17,0,0,0,.53-.23,1.61,1.61,0,0,1,.63-.5.34.34,0,0,0,.23-.35,1.44,1.44,0,0,1,.07-.63,2,2,0,0,0,.37-1.31c.28-.43.13-.92.13-1.38a7,7,0,0,1,.08-1,4.68,4.68,0,0,0,0-1.54c0-.06,0-.14,0-.17.21-.28,0-.49-.1-.71a1.11,1.11,0,0,1-.1-.6,3.65,3.65,0,0,0-.14-1,1.49,1.49,0,0,1,0-.81.19.19,0,0,0,0-.13c-.28-.47-.2-1-.38-1.53A3.85,3.85,0,0,1,104,236.44Z"/><path class="cls-1" d="M150,268.65s4.16.37,5.17.42a8.36,8.36,0,0,1,2.17.25c.28.08.58.07.86.13.65.11,1.29.22,1.92.38a2.33,2.33,0,0,1,1.19.62,2.33,2.33,0,0,0,.89.67,1.26,1.26,0,0,1,.68.81c.09.29-.1.52-.2.77a2.1,2.1,0,0,1-.21.39c-.05.07-.11.18-.18.19-.34.09-.41.41-.6.63a6.25,6.25,0,0,1-.86.92,1.29,1.29,0,0,1-.69.17,5.17,5.17,0,0,1-1-.07,2.4,2.4,0,0,1-.45-.23l-.51.09a1.24,1.24,0,0,1-.71-.08,7.32,7.32,0,0,0-1.17-.18,2.11,2.11,0,0,1-.62-.09.93.93,0,0,0-.71,0,3.12,3.12,0,0,1-1.18,0c-.43-.08-.87-.17-1.31-.21s-.77,0-1.15,0l-2-.13a3.26,3.26,0,0,0-.54,0,2.78,2.78,0,0,1-1.18-.11.14.14,0,0,0-.09,0,8.64,8.64,0,0,1-1.76-.12c-.44,0-.88.06-1.32,0a12.16,12.16,0,0,1-1.21-.18,1.43,1.43,0,0,0-.45-.06,3.29,3.29,0,0,1-.94.06c-.38,0-.75.05-1.13.06s-1,0-1.49,0a5.08,5.08,0,0,1-.84-.19c-.07,0-.15-.07-.21-.06-.66.16-1.32-.14-2,0-.42-.21-.9-.06-1.33-.23-.14-.06-.34,0-.52,0s-.46-.18-.75-.06c-.11,0-.33-.17-.48-.26l-1.35.11a.76.76,0,0,0,0,.3,2.54,2.54,0,0,0,.29.57c.66.87,1.34,1.73,2,2.59.32.42.65.83,1,1.24s.73.9,1.1,1.34c.6.72,1.24,1.43,1.83,2.17.37.47.63,1.05,1,1.48s.4.79.74,1.11a5.27,5.27,0,0,1,.68,1.07c.22.36.46.7.69,1.05.06.09.07.19.13.27a20.7,20.7,0,0,0,1.35,2.09c.22.28.35.63.56.92s.49.73.72,1.09l1.26,2c.22.33.44.66.67,1s.54.77.82,1.15a1.09,1.09,0,0,1,.09,1.09,9.91,9.91,0,0,0-.59,1.57.84.84,0,0,1-.21.35,6.61,6.61,0,0,0-.91,1.06.88.88,0,0,1-.59.37,2.11,2.11,0,0,1-1.53-.32,2,2,0,0,1-.41-.63c-.2-.36-.37-.73-.6-1.07-.41-.61-.86-1.21-1.27-1.83-.19-.28-.32-.62-.5-.91-.44-.68-.89-1.34-1.33-2a5.49,5.49,0,0,0-.52-.8,6.5,6.5,0,0,1-.8-1.21c-.2-.32-.38-.66-.57-1-.35-.63-.7-1.28-1.06-1.91a11,11,0,0,0-.76-1.23c-.36-.49-.81-.92-1.15-1.41-.44-.65-1-1.18-1.49-1.78s-1.23-1.36-1.83-2a12.65,12.65,0,0,1-.8-1,14,14,0,0,0-1.21-1.6c-.33-.33-.51-.75-.83-1.07a7.38,7.38,0,0,1-.54-.71c-.16-.21-.33-.41-.48-.62a6.32,6.32,0,0,1-.86-1.65.55.55,0,0,0-.14-.22,1.46,1.46,0,0,1-.46-.71,2.61,2.61,0,0,0-.43-.74,2.39,2.39,0,0,1-.47-1.67,9.42,9.42,0,0,1,.21-1.16c0-.06,0-.12,0-.17.09-.34.46-.47.57-.84s.43-.54.69-.77a1.64,1.64,0,0,1,1-.34,9.34,9.34,0,0,1,2.18,0c.53.07,1.05.14,1.59.17a2,2,0,0,0,.35,0c.08,0,.17,0,.23,0a5.43,5.43,0,0,0,1.92.25l1.05.08,2.54.18,2,.17c.81.05,1.61.09,2.42.12a8.56,8.56,0,0,1,1.67.14,2.75,2.75,0,0,0,1,0,6.81,6.81,0,0,1,1.36.11l1.05.05c.43,0,.86.06,1.28.11A21.53,21.53,0,0,1,150,268.65Z"/><path class="cls-1" d="M92,232.82a.52.52,0,0,1-.29-.52,5.49,5.49,0,0,1-.65-1.44,5.34,5.34,0,0,0-.43-.69c-.11-.16-.28-.29-.25-.52,0-.06-.07-.13-.11-.18s-.1-.06-.1-.1c-.06-.52-.56-.77-.77-1.2a1.91,1.91,0,0,0-.35-.41s-.1-.08-.11-.13a2.58,2.58,0,0,0-.45-.87,6.63,6.63,0,0,0-.55-.83,7,7,0,0,1-.56-.92,1.51,1.51,0,0,0-.18-.26A16.11,16.11,0,0,1,85.74,223a2.91,2.91,0,0,1-.33-2.72l0-.05c.45-.32.66-.92,1.24-1.1a.78.78,0,0,0,.35-.21.93.93,0,0,1,.94-.18c.52.12,1,.21,1.56.35a1,1,0,0,1,.71.58c.07.19.13.38.19.57.11.35.21.72.32,1.07a1.5,1.5,0,0,0,.16.34c.54.83,1.09,1.64,1.62,2.48.4.64.77,1.3,1.14,2s.66,1.36,1.06,2a8.78,8.78,0,0,1,.81,1.73c.06.16.16.29.23.44.2.44.4.87.59,1.31.3.7.6,1.4.87,2.11s.42,1.24.63,1.86.5,1.47.73,2.21.46,1.42.64,2.14c.1.38,0,.79.13,1.17s.31,1,.48,1.52c.08.23.2.44.26.67a3.07,3.07,0,0,0,.27.77.7.7,0,0,1-.2.94,2.25,2.25,0,0,0-.34.41,1.23,1.23,0,0,1-.47.54c-.09,0-.14.15-.22.23s-.12.14-.2.16a2.9,2.9,0,0,0-1,.58l0,0c-.42,0-.79.3-1.22.17a1.51,1.51,0,0,0-.3,0c-.08,0-.18,0-.21,0-.18-.21-.42-.14-.63-.18a7.88,7.88,0,0,1-2.29-.54.59.59,0,0,0-.34-.08,2.64,2.64,0,0,1-1.27-.21c-.3-.12-.6-.37-1-.27-.08,0-.19-.08-.29-.12a1,1,0,0,0-.67-.09.57.57,0,0,1-.36,0,3.11,3.11,0,0,0-1.51-.21,1.59,1.59,0,0,1-.36-.06c-.72-.16-1.44-.33-2.17-.48s-1.76-.32-2.63-.5c-.48-.1-1-.3-1.43-.36-.32,0-.62-.13-.94-.15a3.25,3.25,0,0,1-.45-.06c-.61-.14-1.21-.32-1.82-.43s-1.12-.12-1.67-.2c-.38-.06-.75-.16-1.11-.25s-.53-.14-.8-.18c-.78-.11-1.57-.21-2.35-.3a3.72,3.72,0,0,1-1.22-.31,1,1,0,0,0-.54-.09,1,1,0,0,1-1-.45,1.21,1.21,0,0,1-.32-1c.06-.34,0-.7.08-1.05a1.25,1.25,0,0,1,.71-.95,5.07,5.07,0,0,0,.81-.59,1.72,1.72,0,0,1,1.1-.45,5.3,5.3,0,0,1,1.43.19,4.55,4.55,0,0,0,.91.15,18.64,18.64,0,0,1,2.56.49c1.24.29,2.49.59,3.74.82s2.35.55,3.53.78c.69.13,1.38.24,2.06.39s1.52.37,2.27.56a15.22,15.22,0,0,0,2.52.41c.37,0,.75.11,1.12.18.58.11,1.16.24,1.74.37a5.12,5.12,0,0,1,.7.18.39.39,0,0,0,.49-.09.78.78,0,0,1-.15-.78,2.34,2.34,0,0,0-.07-.63l0-.62s0-.12,0-.13c-.29-.13.07-.49-.21-.63a.15.15,0,0,1-.08-.11c0-.63-.58-1-.63-1.68,0-.33-.32-.64-.48-1-.05-.09-.12-.2-.1-.29a1.22,1.22,0,0,0-.2-.81c-.22-.47-.38-1-.57-1.44,0-.09,0-.18-.08-.26Z"/><path class="cls-1" d="M70.19,285.66c-.24-.54,0-1,.7-1.16a.64.64,0,0,1,.65-.75c.08,0,.16-.08.24-.12a2.43,2.43,0,0,1,.67-.24,2.65,2.65,0,0,0,1-.47,7.25,7.25,0,0,0,.7-.76,3.55,3.55,0,0,1,.47-.4,10.2,10.2,0,0,0,1.57-1.58c.44-.52.94-1,1.4-1.47a6.4,6.4,0,0,0,.41-.5c.28-.36.61-.68.9-1s.78-.68,1.1-1.11a15.51,15.51,0,0,1,1.33-1.36c.48-.51.93-1,1.39-1.56l.18-.2c.58-.64,1.17-1.27,1.74-1.93a4.14,4.14,0,0,0,.39-.65,1.18,1.18,0,0,1,.13-.18,7.76,7.76,0,0,0,.57-.58c.51-.65,1-1.31,1.48-2,.28-.39.53-.81.82-1.26-.34-.14-.64-.27-1-.38s-.5-.14-.73-.24a3.54,3.54,0,0,0-1-.24,9.39,9.39,0,0,1-1.26-.34,6.92,6.92,0,0,1-1.66-.71,2.79,2.79,0,0,0-.84-.2,1.24,1.24,0,0,1-.18,0l-2-.72-.22,0a4.27,4.27,0,0,1-1.26-.25,3.22,3.22,0,0,0-1.2-.14,1.43,1.43,0,0,1-.77-.16,1.45,1.45,0,0,0-.79-.17c-.59,0-1.18,0-1.77-.1-.29,0-.6,0-.84-.2-.72,0-1.37-.38-2.09-.4a.24.24,0,0,1-.17,0c-.39-.32-.86-.2-1.29-.25a2.87,2.87,0,0,1-.57-.17l-.85-.29a.62.62,0,0,0-.27,0c-.08,0-.17,0-.22,0-.4-.23-.87-.14-1.29-.26a1.45,1.45,0,0,1-1.16-1.65.6.6,0,0,0,0-.23,1.75,1.75,0,0,1,.24-1.4,2.61,2.61,0,0,1,1-1.12,1.15,1.15,0,0,1,1,0,7.91,7.91,0,0,0,1.39.42c.67.18,1.36.28,2,.44.5.11,1,.27,1.49.39s.79.15,1.18.25c.68.18,1.38.23,2.07.37s1.39.22,2.08.33c.49.09,1,.21,1.46.3.16,0,.34,0,.49,0,.44.09.88.22,1.32.33a1.36,1.36,0,0,0,.17,0,7.7,7.7,0,0,1,1.66.29c.25,0,.48.16.72.23.72.24,1.44.49,2.17.69a7.32,7.32,0,0,0,1.69.32,5.68,5.68,0,0,1,1.21.26,6.19,6.19,0,0,1,1.7.71,17.56,17.56,0,0,0,2,.86,11.78,11.78,0,0,1,1,.61c.06,0,.1.12.17.15.45.18.47.54.38.94a.7.7,0,0,0,0,.31,1.51,1.51,0,0,1-.09,1.07,2.82,2.82,0,0,1-.35.72c-.48.68-.78,1.47-1.31,2.13-.24.28-.37.66-.58,1s-.52.76-.78,1.12a14.38,14.38,0,0,0-.93,1.28.22.22,0,0,1-.09.1c-.38.06-.45.4-.64.64-.36.45-.73.89-1.1,1.32a2,2,0,0,1-.28.23c-.06.05-.17.07-.19.12-.16.58-.73.87-1,1.41-.07.19-.33.3-.49.46l-1.7,1.7c-.16.16-.3.34-.46.5L82,280l0,0a5.87,5.87,0,0,1-1.1,1.23l-.85.94-1.06,1.1c-.14.15-.24.35-.38.51a.87.87,0,0,1-.36.33.84.84,0,0,0-.46.41,1.2,1.2,0,0,1-.28.35c-.27.16-.56.25-.67.62-.06.19-.36.3-.54.45a7.21,7.21,0,0,1-.75.59,5.73,5.73,0,0,0-.75.65.75.75,0,0,1-.2.1,15.7,15.7,0,0,0-1.38.78,1.09,1.09,0,0,1-.47.12c-.2,0-.4-.06-.56.1-.4-.12-.84.06-1.24-.13a1,1,0,0,1-.56-.55c0-.15-.27-.27-.27-.41s-.13-.52-.14-.77A2.07,2.07,0,0,1,70.19,285.66Z"/><path class="cls-1" d="M121.9,238.29a3.07,3.07,0,0,0-.52-.06,1.24,1.24,0,0,1-1.08-.55,4.48,4.48,0,0,1-.51-1.14,1.86,1.86,0,0,0-.4-.66,1.08,1.08,0,0,1-.29-.95c-.48-.07-.4-.5-.51-.81s0-.36-.24-.47a.3.3,0,0,1-.07-.11c-.37-.83-.94-1.56-1.35-2.36-.18-.36-.33-.74-.51-1.1s-.37-.7-.53-1.06c-.36-.78-.71-1.58-1.06-2.37a.67.67,0,0,0-.06-.12,11.06,11.06,0,0,1-.91-1.78,5,5,0,0,1-.34-.94,4.17,4.17,0,0,0-.53-1,12.14,12.14,0,0,1-.7-1.34c-.19-.39-.33-.81-.52-1.21-.47-1-.9-1.93-1.42-2.86a33.45,33.45,0,0,0-2-3.35,2,2,0,0,1-.18-.79c0-.21-.06-.42-.1-.63a.82.82,0,0,1,.31-.89,2.24,2.24,0,0,0,.52-.5,1,1,0,0,1,.53-.32,1.43,1.43,0,0,1,1.64.46c.19.2.4.37.6.56a.5.5,0,0,1,.13.12,10.83,10.83,0,0,1,1.08,1.53c.07.16.21.29.29.45.19.37.53.68.54,1.14,0,.07.08.13.11.2.39.75.82,1.49,1.17,2.26a17.93,17.93,0,0,1,1.13,2.72,3.67,3.67,0,0,0,.27.46,8.81,8.81,0,0,1,.68,1.24,4,4,0,0,1,.5,1.34.76.76,0,0,0,.08.21l1,1.81c.14.27.29.53.42.8,0,.07,0,.15,0,.23s0,.18,0,.21c.33.22.33.64.55.93a.66.66,0,0,1,.08.3c0,.07,0,.17.06.21.44.32.46.87.73,1.29a9.29,9.29,0,0,1,.67,1.29,11.71,11.71,0,0,0,.75,1.45c.23.38.41.8.61,1.2.06.12.12.25.19.36a.49.49,0,0,0,.75.12c.17-.14.31-.32.49-.45s.36-.17.53-.27a2.51,2.51,0,0,0,.31-.26c.39-.39.75-.8,1.16-1.15s.86-.63,1.27-1c.75-.64,1.47-1.31,2.21-2a1.18,1.18,0,0,1,.21-.18,11.83,11.83,0,0,0,1.23-1c.33-.23.65-.46,1-.71s.86-.78,1.31-1.14A18,18,0,0,1,135,224.3c.33-.19.61-.45.93-.65a28.33,28.33,0,0,0,2.55-2.06c.61-.5,1.28-.94,1.91-1.42a2.58,2.58,0,0,1,.89-.45c.26-.06.52-.14.77-.22a.49.49,0,0,0,.21-.08,1.24,1.24,0,0,1,1-.28,1.59,1.59,0,0,1,1,.47.86.86,0,0,1,.17,1.18,2.87,2.87,0,0,0-.05.31c0,.09,0,.21-.11.24-.49.28-.68.81-1.05,1.19a2.09,2.09,0,0,1-.48.41,14.55,14.55,0,0,0-2.82,2.24c-.28.26-.78.65-1.08.88s-.73.59-1.12.85-1,.56-1.43.87a1.58,1.58,0,0,0-.77.91,1.17,1.17,0,0,0-.33.11,6.26,6.26,0,0,0-1.13.77c-.59.57-1.3,1-1.89,1.58a25,25,0,0,1-2.46,2c-.46.34-.92.7-1.39,1a8.35,8.35,0,0,0-1.23,1.14,1.33,1.33,0,0,1-.33.24,8.79,8.79,0,0,0-1.72,1.25,2.07,2.07,0,0,1-1.16.67.14.14,0,0,0-.09,0C123.25,238,122.52,238,121.9,238.29Z"/><path class="cls-1" d="M143.08,250.27l1.49.37c.55.12,1.1.23,1.66.33.1,0,.52,0,.5.1s0,.05.07.06l1.22.14s.11,0,.13,0c.24.24.55.21.85.27.82.17,1.64.36,2.45.54a3.93,3.93,0,0,0,.48.06,16,16,0,0,1,1.83.34,2.55,2.55,0,0,0,1.13.09c.07,0,.18,0,.21,0,.26.29.62.23.93.28.53.07,1.07,0,1.6.1.25,0,.8-.09,1-.05a4.19,4.19,0,0,0,.84-.07c.63,0,1.27-.07,1.9-.14.34,0,.68-.15,1-.22a2.2,2.2,0,0,1,.37-.06l1.61-.17a1.93,1.93,0,0,1,1,.12,1.35,1.35,0,0,0,.41.07c.26,0,.52,0,.77.05.09,0,.22.05.24.11.15.4.58.66.53,1.17A2.47,2.47,0,0,1,167,255a2.11,2.11,0,0,0-.18.49l-.62.14a6.81,6.81,0,0,0-1.07.47,4.72,4.72,0,0,1-1.12.15c-.52,0-1,0-1.56,0a4.17,4.17,0,0,0-.49.08l-.45.08-1.72.17-1.42.1c-.62,0-1.24.09-1.87.09a10.86,10.86,0,0,1-1.13-.13,7.81,7.81,0,0,0-1-.09,10.66,10.66,0,0,1-1.88-.28c-.48-.09-.95-.22-1.43-.3-.16,0-.3,0-.41-.17a.24.24,0,0,0-.2-.07,6.68,6.68,0,0,1-1.61-.1,5,5,0,0,1-1-.3c-.56-.12-1.09-.36-1.64-.49a7.17,7.17,0,0,0-1-.06,3.8,3.8,0,0,1-1.25-.24,2.74,2.74,0,0,0-.5,0,5.62,5.62,0,0,0-1-.24,12.38,12.38,0,0,1-2.26-.53,3.88,3.88,0,0,0-1.17-.09c-.26,0-.55-.07-.8.13,0,0-.2,0-.3,0l-.91-.29a.31.31,0,0,1-.19-.12,1.67,1.67,0,0,1-.38-1.39,2.1,2.1,0,0,0,0-.36.57.57,0,0,1,.22-.43.52.52,0,0,0,.21-.63.34.34,0,0,1,.2-.45l.2-.1a4.18,4.18,0,0,0,1.49-1.18l1.13-1.12c.28-.28.55-.57.83-.84s.58-.54.86-.82a2.27,2.27,0,0,0,.18-.25c.06-.1.12-.24.21-.29a6.26,6.26,0,0,0,1.46-1.49c.48-.5.76-1.16,1.27-1.65,0,0,0-.08.08-.1.8-.57,1.32-1.42,2.13-2,.48-.34.89-.79,1.36-1.15s1.14-.8,1.7-1.23a15.46,15.46,0,0,1,1.91-1.32c.21-.11.34-.34.52-.5a3.79,3.79,0,0,1,.38-.32,11.62,11.62,0,0,1,1.16-.94,4,4,0,0,1,1.68-.76,6.93,6.93,0,0,0,.89-.16.37.37,0,0,1,.18,0,7.94,7.94,0,0,1,.75.42,1.26,1.26,0,0,1,.43.73c.27.94-.31,1.59-.76,2.26a3.32,3.32,0,0,1-1.5,1.13,5.47,5.47,0,0,0-1,.66l-1.24.84c-.37.24-.73.48-1.08.74-.58.43-1.14.87-1.69,1.32-.21.17-.41.36-.6.54-.58.57-1.17,1.13-1.7,1.73-.68.76-1.3,1.57-1.95,2.35-.23.27-.49.51-.73.76s-.59.64-.89,1a4.45,4.45,0,0,1-.6.55A4.94,4.94,0,0,0,143.08,250.27Z"/><path class="cls-1" d="M91.4,305.24c-.24.06-.52-.22-.66-.48a1.37,1.37,0,0,1,.12-1.62,1.47,1.47,0,0,0,.24-.84,2,2,0,0,1,.13-.58,9.31,9.31,0,0,1,1.17-1.83A18,18,0,0,1,94.19,298c.2-.2.49-.32.71-.5s.42-.42.63-.64l0,0c.65-.35.91-1.09,1.5-1.49.81-.55,1.43-1.31,2.2-1.9.59-.44,1.09-1,1.65-1.49s1.18-1,1.77-1.47a1.59,1.59,0,0,0,.13-.13,7.25,7.25,0,0,1,1.42-1.11c.59-.39,1.18-.78,1.78-1.16a2.82,2.82,0,0,1,.49-.25,1.15,1.15,0,0,0,.64-.47.69.69,0,0,1,.44-.22,2.46,2.46,0,0,0,.9-.41.87.87,0,0,1,.87,0,4.92,4.92,0,0,0,1.08.65c.12,0,.21.18.31.28l.49.53a.54.54,0,0,1,.15.22,1.83,1.83,0,0,0,.48.71c.45.52.91,1,1.37,1.53s1,1.14,1.54,1.68a15,15,0,0,1,1.47,1.71c.9,1.24,1.74,2.51,2.56,3.79.21.33.46.64.68,1s.19.38.3.56a28.23,28.23,0,0,0,2.32,3.11,27.37,27.37,0,0,1,1.94,2.84,1.66,1.66,0,0,1,.22,1.34,1.56,1.56,0,0,1-.24.46,1.43,1.43,0,0,0-.15.27,1.43,1.43,0,0,1-.92,1c-.17.05-.32.09-.39.28a.16.16,0,0,1-.08.1c-.41,0-.76.37-1.2.23-.06,0-.13,0-.17-.06-.34-.39-1-.53-1-1.22-.22-.32-.47-.62-.67-1-.35-.6-.84-1.1-1.21-1.69a16.15,16.15,0,0,0-1.25-2c-.49-.56-.86-1.21-1.37-1.75a3.42,3.42,0,0,1-.4-.66l-.25-.38-.22-.29-1-1.53c-.08-.13-.11-.28-.18-.42a.92.92,0,0,0-.26-.37c-.39-.22-.46-.65-.69-1a1.43,1.43,0,0,0-.57-.6,1.18,1.18,0,0,1-.39-.38c-.25-.33-.48-.69-.74-1s-.42-.43-.62-.66c-.4-.44-.79-.88-1.17-1.33-.2-.23-.51-.3-.68-.57,0-.07-.3-.05-.43,0-.45.16-.93.21-1.37.36a2.34,2.34,0,0,0-1,.64c-.23.26-.56.39-.75.68a2,2,0,0,1-.36.4,6.8,6.8,0,0,1-.6.46.78.78,0,0,1-.2.11c-.49.2-.66.73-1,1.05l-.43.31c-.05,0-.12,0-.16.08-.38.39-.74.79-1.13,1.17s-.63.56-.93.84c-.45.43-.89.87-1.34,1.29s-.78.7-1.17,1.05a.69.69,0,0,0-.11.13A6.77,6.77,0,0,1,96,302c-.12.11-.26.18-.31.36a.41.41,0,0,1-.17.2,4.74,4.74,0,0,0-.94.73A18.28,18.28,0,0,1,91.4,305.24Z"/><path class="cls-1" d="M71.26,271.82l-.9,0-1.08,0c-.42,0-.83-.09-1.24-.12s-.79-.28-1.18,0a.13.13,0,0,1-.13,0c-.39-.25-.86,0-1.25-.21a.67.67,0,0,0-.57,0,.68.68,0,0,1-.89-.2c-.11-.15-.33-.23-.44-.39a1.83,1.83,0,0,1-.2-.54c0-.05,0-.12,0-.17a2.31,2.31,0,0,1,.5-2.32,4,4,0,0,1,1.28-1,1.05,1.05,0,0,1,.83-.11c.35.09.71.31,1.1.15a.15.15,0,0,1,.13,0,2.58,2.58,0,0,0,1.44.29c.67.06,1.33.19,2,.2.51,0,1,.23,1.53,0a6.51,6.51,0,0,0,1.76-.14c.2,0,.4-.11.61-.12a4.51,4.51,0,0,1,.73,0l.94.14a.31.31,0,0,1,.17,0,10,10,0,0,1,1,.89,3.49,3.49,0,0,1,.37.72c.07.15.15.29.22.43a.38.38,0,0,1,0,.17,3.71,3.71,0,0,1-.23.84,13.62,13.62,0,0,1-1,1.65,6.74,6.74,0,0,0-.62.95,9.3,9.3,0,0,1-1.22,1.57c-.53.22-.66.81-1.05,1.17-.19.17-.37.35-.55.53-.31.34-.62.67-.92,1s-.6.73-.91,1.08a5.57,5.57,0,0,1-.51.46,14.54,14.54,0,0,1-1.3,1.19c-.44.31-.85.75-1.47.73a.91.91,0,0,0-.38.13.73.73,0,0,1-1.08-.31,1.61,1.61,0,0,1-.23-.85c0-.33,0-.65,0-1a.87.87,0,0,0-.27-.55.27.27,0,0,1,0-.43c.63-.66,1.25-1.32,1.86-2s1.15-1.25,1.69-1.9,1-1.3,1.49-1.95Z"/><path class="cls-1" d="M156.81,278.89a5.34,5.34,0,0,0,.62.47,2.4,2.4,0,0,0,.48.11,2.87,2.87,0,0,1,.61.15c.48.23.93.5,1.41.74a.49.49,0,0,1,.28.48,3.27,3.27,0,0,1-.08.76,1.12,1.12,0,0,1-.35.72.43.43,0,0,0-.14.23,2.68,2.68,0,0,1-1,1.48,1.58,1.58,0,0,1-1.37.32,6,6,0,0,0-1-.1.73.73,0,0,1-.3-.07,1.16,1.16,0,0,0-.69-.2,3.86,3.86,0,0,1-1.41-.36,11.5,11.5,0,0,0-1.25-.4.89.89,0,0,0,.05.24c.3.49.49,1,.76,1.54s.7,1.17,1,1.76l.59,1a.16.16,0,0,1,0,.09c.07.43.16.86.21,1.3a.92.92,0,0,1-.09.39c-.11.25-.25.49-.37.72,0,0-1.13.87-1.35,1a.62.62,0,0,1-.72-.08,5.32,5.32,0,0,1-1.24-1.13,14.46,14.46,0,0,0-1.22-1.12v0c-.12-.45-.53-.69-.73-1.09a1.27,1.27,0,0,0-.24-.33,10.73,10.73,0,0,1-.9-1.3,6.12,6.12,0,0,0-1-1.42s-.06,0-.06-.06c-.05-.45-.44-.71-.6-1.11a8.14,8.14,0,0,0-.72-1.37,1.25,1.25,0,0,1-.14-.92c0-.22.12-.44.17-.65a.3.3,0,0,0,0-.18c-.13-.38.16-.66.21-1a.09.09,0,0,1,.05-.08c.35-.13.46-.51.7-.75s.32-.41.63-.41a.27.27,0,0,0,.15-.09.73.73,0,0,1,.63-.22c.5,0,1,.08,1.5.14s1.11.17,1.67.27,1.35.26,2,.44a3,3,0,0,0,1.18.07A2.42,2.42,0,0,1,156,279,.63.63,0,0,0,156.81,278.89Z"/><path class="cls-1" d="M74.53,232.74l.73-.74a.58.58,0,0,1,.48-.22.6.6,0,0,0,.42-.12.68.68,0,0,1,.76-.13,18.44,18.44,0,0,0,1.94.51c.55.1,1,.31,1.61.38s1.09.26,1.64.36a7.76,7.76,0,0,0,1.73.18s0,0,.09-.08c-.26-.35-.33-.83-.71-1.13-.11-.08-.13-.27-.2-.4s-.19-.35-.28-.52-.07-.07-.08-.11a1.31,1.31,0,0,0-.47-.88,4.65,4.65,0,0,1-.63-.83c0-.06-.07-.13-.11-.2s-.08-.28-.17-.37c-.38-.37-.49-.9-.82-1.3a1.54,1.54,0,0,1-.17-.42,2.81,2.81,0,0,0-.3-.63l.09-.87c.15-.21.34-.52.57-.8a1.12,1.12,0,0,1,1.15-.48,2.16,2.16,0,0,1,1.21.59.57.57,0,0,0,.22.16,1.74,1.74,0,0,1,.72.62c.42.56.87,1.1,1.26,1.68s.88,1.35,1.3,2,.83,1.54,1.12,2.14c.36.78.75,1.55,1.12,2.32.13.29.26.58.38.88a.43.43,0,0,1,0,.22c0,.35-.12.71-.19,1.06a.38.38,0,0,1-.07.21c-.37.37-.59.88-1.1,1.13a.46.46,0,0,0-.17.14c-.34.41-.81.37-1.27.41s-1,.13-1.44.19c-.1,0-.22.05-.3,0a2.62,2.62,0,0,0-.92-.12,2.81,2.81,0,0,1-.71-.07c-.68-.13-1.36-.29-2-.42-.38-.08-.77-.12-1.15-.19a1.12,1.12,0,0,1-.31-.05,8.16,8.16,0,0,0-1.78-.37,3.32,3.32,0,0,1-1.42-.58c-.31-.2-.65-.34-1-.51a.28.28,0,0,1-.16-.09,2.78,2.78,0,0,0-.74-.75.36.36,0,0,1-.09-.49,3,3,0,0,0,.24-.58.82.82,0,0,0,0-.22C74.57,233.09,74.54,232.88,74.53,232.74Z"/><path class="cls-1" d="M126,226.22a1.13,1.13,0,0,0-.36-.07c-.53.15-.93-.16-1.37-.35a.78.78,0,0,1-.45-.5c-.15-.47-.34-.92-.51-1.39l0,0c-.32-.35-.65-.68-1-1a4.3,4.3,0,0,1-.41-.57,10.2,10.2,0,0,0-1.14-1.31c-.4-.46-.76-1-1.12-1.44s-.73-1-1.07-1.48-.77-1.19-1.14-1.79a.71.71,0,0,1,0-.88,1,1,0,0,0,.21-.81,7.61,7.61,0,0,1-.08-1c0-.35.26-.52.46-.68a5.33,5.33,0,0,1,1-.53.19.19,0,0,1,.13,0,.28.28,0,0,1,.13,0c.24.16.61,0,.8.28s.29.49.44.74.44.76.68,1.12.36.44.54.67c.83,1,1.64,2.07,2.5,3.08a18.11,18.11,0,0,0,1.55,1.61,3.18,3.18,0,0,0,.77.47c.14.08.26,0,.36-.11s.3-.34.45-.52.18-.16.18-.25c0-.43.37-.61.63-.86s.74-.68,1.11-1c0,0,.07,0,.07-.06.08-.64.79-.85,1-1.44.08-.25.37-.43.56-.65a.91.91,0,0,0,.21-.23.72.72,0,0,1,.45-.35c.22-.08.39-.29.6-.39a1.44,1.44,0,0,1,1.74.11,1.87,1.87,0,0,1,.63,1.55,2.46,2.46,0,0,1-.6,1.5c-.18.22-.32.49-.5.71-.41.53-.83,1.05-1.28,1.55-.29.33-.63.6-.94.9s-.35.39-.52.58c-.38.42-1,1.12-1.32,1.56a7.61,7.61,0,0,0-.92,1.18,6.9,6.9,0,0,1-1.08,1.22.65.65,0,0,1-.34.14A1.5,1.5,0,0,0,126,226.22Z"/><path class="cls-1" d="M110.09,310a3.12,3.12,0,0,1-.79-.92c-.24-.46-.54-.88-.81-1.33a5.05,5.05,0,0,1-.24-.53c-.08-.19-.08-.42-.34-.51-.07,0-.09-.18-.14-.27a4.25,4.25,0,0,0-.35-.58c-.16-.21-.29-.2-.51,0s-.72.47-1,.76-.9.63-1.3,1a3.15,3.15,0,0,1-1.42,1.09c-.07,0-.11.1-.17.14-.29.18-.45.55-.89.55-.15,0-.3.24-.47.3-.41.15-.84.26-1.29.39-.32-.41-.84-.66-.91-1.29v0c.09-.41.22-.82.29-1.23a3.1,3.1,0,0,1,1-1.73c.36-.35.76-.66,1.1-1a6.19,6.19,0,0,1,.42-.5,12.41,12.41,0,0,0,1-1,.65.65,0,0,1,.17-.16,7.87,7.87,0,0,0,1.75-1.56,3.32,3.32,0,0,1,1.27-.95,1,1,0,0,0,.37-.26,1.25,1.25,0,0,1,1.72-.24l.17.07a1.71,1.71,0,0,1,1,.83c.34.53.78,1,1.12,1.51s.52,1,.82,1.53.63,1,.94,1.49a1.79,1.79,0,0,1,.12.24c.24.48.49,1,.75,1.45.07.13.21.22.28.35s.17.35.26.53.1.27.19.3c.39.13.4.52.56.79a.36.36,0,0,1-.23.52.69.69,0,0,0-.43.45c-.09.36-.37.5-.65.65a1.21,1.21,0,0,0-.35.21,1.15,1.15,0,0,1-.75.37s-.07,0-.09,0c-.5.28-.94,0-1.37-.18A1.77,1.77,0,0,1,110.09,310Z"/><path class="cls-1" d="M157.74,245.14c.51.13.93.26,1.35.36s.68.16,1,.22.66.09,1,.13a1.33,1.33,0,0,1,.28,0,12.49,12.49,0,0,0,1.92.36c.11,0,.21.15.29.25s.23.39.37.55.11.37.1.57a1,1,0,0,1-.52.89c-.56.33-1.1.7-1.65,1.05a.59.59,0,0,1-.28.1,6.71,6.71,0,0,1-1.55-.05c-.54-.12-1.11-.16-1.65-.29s-1-.29-1.54-.43a1.13,1.13,0,0,0-.44-.07,1.92,1.92,0,0,1-1-.13,3.57,3.57,0,0,0-1.52-.28,1.92,1.92,0,0,1-.57-.11.85.85,0,0,0-.26,0c-.67.1-.85-.17-1.16-.8a1.68,1.68,0,0,1-.15-.67,1.36,1.36,0,0,1,.14-.56c.16-.32.34-.62.52-.92a4.59,4.59,0,0,1,1-1.25l0,0a31,31,0,0,1,2.86-2.52c.57-.54,1.28-.86,1.88-1.34.08-.06.23-.13.29-.1a.89.89,0,0,0,.7,0,1.17,1.17,0,0,1,1.11.41,3.1,3.1,0,0,1,.58.86.73.73,0,0,1,0,.44,3.35,3.35,0,0,1-.67,1.44,3,3,0,0,1-.67.55c-.24.18-.5.33-.74.51S158.18,244.79,157.74,245.14Z"/></svg>