<?xml version="1.0" encoding="UTF-8"?>
<svg xmlns="http://www.w3.org/2000/svg" version="1.1" viewBox="0 0 535.3 535.3">
  <defs>
    <style>
      .cls-1 {
        fill: #fff;
      }
    </style>
  </defs>
  <!-- Generator: Adobe Illustrator 28.7.1, SVG Export Plug-In . SVG Version: 1.2.0 Build 142)  -->
  <g>
    <g id="Layer_1">
      <g>
        <path class="cls-1" d="M205.3,303h-9.5c.3-14,.1-26.9.5-41.4,7.5,0,15,0,16.6.7,1.9.8,3.5,2.2,4.4,4.1.7,2.7,1,5.6.9,8.4,0,3.7-.4,7.5-1.1,9.3-1.6,3.8-3.3,3.5-6.1,4.1-1.9.3-3.8.4-5.7.4v14.4ZM209.6,278.9c.5-.6.7-2.2.7-4.2,0-2.3,0-4-1.8-4.7-1.1-.2-2.3-.3-3.5-.3l.5,10.7c2.6.2,3.4-.6,4-1.4h0Z"/>
        <path class="cls-1" d="M232.3,271.7c0-2.9,0-5.1.2-9.7.7,0,1.4-.1,2.2-.1,1.6,0,3.3.2,5.8.2h2c.2,5.4.2,10.7.2,15.8,0,7.4-.1,14.6-.1,22.3v3l-10.2-.3v-31.1Z"/>
        <path class="cls-1" d="M255.9,267.1c.1-1.7,0-3,.6-4.9,2.1,0,4,.1,5.8.1,3.5,0,6.6-.1,10.1-.1s5.2,0,8.5.2c-2.9,11-5.8,20.4-9.5,31.3,3.6,0,6.2.1,10.5-.2.4,1.4.6,2.9.6,4.4,0,1.5-.1,3-.2,5.1-3.1,0-5.7.1-8,.1-4.9,0-8.8-.1-16.2-.2,2.4-9.3,7.3-21.3,10.5-31.8-4.3.1-7.9.1-13.1.2.1-1.8.3-2.7.5-4.3Z"/>
        <path class="cls-1" d="M293,267.1c-.1-1.7-.6-3.3-.7-4.9,2.3.1,4.3.1,6.2.1,2.8,0,5.3,0,8,0s5.9,0,9.7.3c-.1.7,0,1.4-.2,2.1-2.6,10.2-4.9,18.9-7.3,29.1,3.6,0,4.4.4,8.7.4.1,3.9.7,4.7.7,8.3v.5c-4.5.1-7.3.1-10.1.1s-6.6,0-12.6,0c1.5-5.9,3.4-12.8,5.3-19.6,1.1-3.9,2-8,3.1-11.8-4.2-.2-5.4-.3-10.5-.4,0-1.3-.2-2.6-.4-3.9Z"/>
        <path class="cls-1" d="M342.4,277.9c2.9.1,7,0,10.5.4.3,2.9.2,5.8-.4,8.6h-10.5c.1,2.3.1,4.3.3,6.5,4.5-.3,9-.3,13.5,0-.4,3.8-.3,5.4-.7,9-7.8.5-13.7.5-22.3.7-.2-4.7-.3-9.4-.3-14.1,0-8.8.2-17.5.3-26.3,8.5-.4,13.7-.7,22.6-.9,0,3.3.2,4.8.4,9.2l-13.1.3-.2,6.5Z"/>
        <path class="cls-1" d="M388.4,304.9c-3.5-8-4.5-10.7-6.6-15.8h-2.2s-.4,13.3-.4,14h-2.1c-2.5,0-2.6-.2-6.2-.4-.2-9.2-.2-15.8-.4-24.4-.1-3-.2-6.5-.2-9.9s0-3.9,0-5.8c2.2-.3,4.4-.4,6.6-.5.7,0,1.3,0,2.2,0,3.8,0,8.5.5,10.1,2.2,3.3,3.4,2.9,4.5,3.2,12.3,0,.4,0,.7,0,1.1,0,1.9-.3,3.7-.9,5.5l-2.5,3.8,6.6,14.1-7.2,3.6ZM383.3,280.5c.4-3.9.4-7.4-.4-9.1s-3.7-.9-3.9-.9.3,7.7.5,11.1c3.5.8,3.8-1.2,3.8-1.2h0Z"/>
        <path class="cls-1" d="M409.7,261.8c.8,0,1.5-.1,2.2-.1,1.6,0,2.9.2,5.1.2s1.4,0,2.3,0c.3,11.4.3,21.9.3,32.9v8.4l-10,.3s0-19.1,0-24.2c0-8.3,0-9.7.2-17.4Z"/>
        <path class="cls-1" d="M451.9,262.2c3.6,10.2,5.8,20.8,8.9,33.4.6,2.4,1.1,4.7,1.8,7.4h-10.8c-.2-2-.6-4.1-1.2-6.2-2.1,0-5.4-.2-7.4-.2l-1.1,6.5c-4.2,0-5.3-.1-10.1-.1l5.3-22.7,3.5-16.5.7-2h.7c1,0,2.4.2,4.1.2,1.9,0,3.7,0,5.6.3ZM449.6,288.2l-2.4-14c-.4,2.1-1,5.1-1.5,7.9-.6,3.5-.9,5.9-1,5.9,1.6.2,3.3.3,4.9.2h0Z"/>
        <path class="cls-1" d="M203,243.1h-2.7c-1.4,0-2.8,0-4.1-.1,0-7,0-15.1,0-21.9v-1.6h2.4c2.3,0,4.8.1,5.9,1.6.6,1.6.9,3.4.9,5.1,0,1.2,0,2.3-.3,3.4-.2,1.1-.9,1.5-1.1,1.9,1.5,1.6,2.3,3.8,2.2,6.1,0,1.2-.1,2.5-.4,3.7-.5,1.1-1.6,1.7-2.8,1.8ZM199.4,222.6c0,2.7,0,5.3,0,7.8.8,0,1.6-.1,2.4-.4.4-.8.6-1.8.5-2.7,0-1.1-.1-2.2-.1-3.3-.3-1.4-1.8-1.5-2.9-1.4h0ZM199.5,234.2v6c.8,0,1.5,0,2.3,0,.6-.2.7-1.1.7-2.4s0-1.5,0-2.4c-.2-1.8-1.8-1.4-3-1.3h0Z"/>
        <path class="cls-1" d="M223.8,243.1c-.5-1.3-.6-4.3-.9-5.8-1.6-.1-2.7.1-4.6.2l-1.6,5.9c-.8,0-2.2-.4-3.2-.6l.5-2.1,5.3-21h4.1c1.8,7.4,2.7,15.9,4.4,23.1-1.1,0-2.7.3-4,.3ZM221.2,224.6c-.5,3-1.4,6.3-2,9.2,1.1,0,2-.2,3.1-.2-.5-3-.7-5.1-1.1-9.1Z"/>
        <path class="cls-1" d="M244,222.9h-1.2c-1.7,0-3.5.1-4.1,1.9-.2,2.2-.3,4.4-.3,6.6,0,1.8,0,3.6.2,5.4.2,3,3.4,3.1,5.3,2.9,0,1.1,0,1.9-.1,3.5-1.7,0-7.8,0-8.5-2.9-.5-2.5-.7-5-.6-7.5,0-3.1.2-6.2.7-9.3.4-2.1,1.6-2.8,3.6-3.4,1.3-.4,2.6-.6,4-.6h1.2v3.4Z"/>
        <path class="cls-1" d="M259.8,243c-1.3-3.9-2.3-7.5-3.1-10.1-.8,1.2-1.1,2.1-1.8,3.1,0,1.4.3,3.9.1,6.9h-3.6v-23.5h3.6c0,2.8-.1,6.7,0,9.7,1.8-3,3.4-6.2,4.8-9.4h.3c1.1,0,2.2.3,3.2.7-.5,2.8-3,6.3-4.2,9,2.1,4.4,3.4,9.2,5.1,13.5h-4.2Z"/>
        <path class="cls-1" d="M290.6,243c-2.6,0-5.2-.6-5.7-3-.6-3.4-.9-6.9-.8-10.4v-5.2c0-1.6.8-3,2.1-3.8,1-.6,2.2-.9,3.3-.9,1.3,0,2.6.5,3.5,1.4.7.8.8,2.7.8,3.4v.3c-.9,0-1.8.2-3,.4-.2-1.4.2-2.3-1.4-2.3s-2.1.4-2.1,2.2c0,1.5,0,3.4,0,4.9l.5,7.5c.1,1.8,2.4,2,3.6,1.9.1-1,0-2.6,0-6h-1.7c0-1,0-2,0-3,1.1-.2,2.9-.1,4.5-.2,0,4.3.3,7.8.3,10.8v1.7c-1.3.2-2.7.3-4,.4Z"/>
        <path class="cls-1" d="M312.5,243c-.5-1.3-.7-3.4-1.1-4.9-1.6-.1-3.4,0-5.1,0l-1.3,4.9c-.7,0-1.4,0-2.1,0-.4,0-.7,0-1.1,0l.5-2.4,4.8-21.1h3.4c2,6.4,3.9,15.4,6,23.5h-4.1ZM308.9,225.9c-.7,2.9-1.7,8.8-1.7,8.8h3.4c-.5-2.9-1.1-6-1.7-8.7h0Z"/>
        <path class="cls-1" d="M333.9,243.3c-1.5-3-2.8-6.1-3.8-9.3-.8.2-1.6.3-2.4.3-.2,2.2,0,6.3,0,8.7h-3.4v-2.4c0-7,.1-14.8.2-21.2.7,0,1.4,0,2.3,0,2.2,0,4.7,0,6,1.4,1,1.1,1.6,2.5,1.6,4,0,1.3.1,2.3.1,3.2,0,1.2-.2,2.5-.6,3.7-.2.3-.6,1-1.1,1.3l3.8,8.9-2.7,1.4ZM330.3,223.3c-.4-.4-1-.6-1.6-.5-.3,0-.6,0-.9,0,.1,2.5-.2,5.7,0,8.5h1.3c1,0,2-.6,2-1.3v-3.9c.1-1-.2-2-.7-2.9h0Z"/>
        <path class="cls-1" d="M344.3,243.1c0-1,0-22.1,0-23.5,3.4,0,8,1,9.4,4.4.6,2.4.8,4.8.8,7.2,0,2.2-.2,4.4-.5,6.6-.4,3.6-6.1,5.3-9.7,5.3ZM351.4,230.5c0-2.2-.2-4.4-1.2-5.4-.6-.8-1.5-1.3-2.5-1.4,0,1.3,0,4,0,5.7,0,3.4-.3,6.7-.2,9.9l1.4-.4c1.3-.5,2.2-1.6,2.3-3,0-1.5.2-3.4.2-5.3Z"/>
        <path class="cls-1" d="M367.8,242.8c-1.7,0-3.6,0-5.2,0v-1.7c-.1-1.9-.1-3.8-.1-5.7,0-5.3.2-10.7.2-15.6,2.1-.1,4.2-.2,6.2-.2h2.1c0,.6,0,1.7.1,3.4l-4.8.2h0c0,0-.2,5.7-.2,5.7.9,0,2,0,4.1,0,0,.7.2,1.5.2,2.3,0,.3,0,.6,0,.9h-4.3c0,2.3,0,5.7,0,6.9,1.6,0,3.2,0,5,.1,0,.2,0,.4,0,.6,0,.7,0,1.5,0,2.2,0,.3,0,.6,0,.9-1,0-2.1,0-3.4,0Z"/>
        <path class="cls-1" d="M392.2,223.5c0,6.4-.3,12.9-.5,19.5h-2.9c-2.3-4.2-4-8.9-6.5-13,.1,4.3.2,8.7.3,13h-3.7v-23.4h2.5c2.4,4.8,4.9,9.6,7.2,14.7l-.2-14.6h3.9c0,1.3,0,2.6,0,3.9Z"/>
      </g>
      <g>
        <path class="cls-1" d="M104,236.4c-.2,0-.2-.2-.2-.5-.1-.5-.3-.9-.4-1.4,0-.2-.1-.3-.1-.5,0-.6-.3-1.1-.3-1.6-.5-.6-.4-1.4-.8-2.1-.3-.6-.6-1.3-.8-2-.2-.8-.5-1.5-.8-2.2-.4-.7-.6-1.4-.9-2.1-.1-.2-.3-.4-.4-.6-.1-.2-.2-.4-.3-.6-.3-.6-.6-1.2-1-1.8h0c-.4-.9-.7-1.9-.9-2.9,0-.5-.2-.9-.3-1.3-.1-.4,0-.8,0-1.2.3-.6.7-1.1,1.2-1.5.1-.1.3-.2.4-.4.3-.3.7-.5,1.2-.5.3,0,.6,0,.8.2.4.6.8,1.3,1,2,0,.2,0,.4.1.6.2.9.5,1.7,1,2.4,0,0,.1.1.1.2.3.8.6,1.5,1,2.2.2.5.4.9.6,1.4.1.3.3.5.4.8s.2.5.3.8.2.5.3.7c.2.5.4,1,.6,1.4,0,.1,0,.2.2.3.1.1.2.3.3.5,0,.2.2.3.4.4.2.1.4.2.5.4.1.1.2.3.3.5,0,.1,0,.2.1.3.4.6.8,1.4,1,2.1.1.2.2.4.3.6.1.2.2.4.3.6.2.4.4.8.6,1.1.2.3.3.7.4,1,0,.2.2.4.2.6.3.7.6,1.3.9,1.9.4.8.7,1.6,1,2.4.4,1,.9,1.9,1.5,2.8.2.2.3.5.5.8.3.5.6,1,1,1.5.3.4.6.7.9,1.1.3.4.6.7,1,1,.4.2.7.4,1.1.6.6.3,1.3.4,1.9.4.2,0,.5,0,.7,0,.5-.2,1-.4,1.4-.6s.8-.4,1.1-.7c.6-.4,1.1-.7,1.7-1.1,1.2-.9,2.4-1.6,3.6-2.5.8-.6,1.6-1.1,2.4-1.8.6-.5,1.3-1,1.9-1.5.3-.3.5-.7.8-1,0,0,0-.2.1-.2.3,0,.4-.3.6-.4.2-.1.3-.3.4-.4.1-.3.3-.5.6-.6.1,0,.3-.1.4-.1.3-.7.8-1.3,1.4-1.8.2-.2.5-.2.6-.6.6-.2.7-.8,1.2-1.1.3-.3.5-.6.8-.9.5-.6,1-1.2,1.5-1.8.5-.5,1-1,1.4-1.5.5-.4,1-.9,1.3-1.5.3-.4.6-.7,1-1,.3-.2.6-.5.9-.7.3-.3.8-.5,1.3-.5.2,0,.4,0,.6,0,.4-.2.6,0,.9.2.6.4,1.1.9,1.5,1.4.1.3.3.7.4,1s.2.4.2.5c0,.2,0,.5-.2.7-.1.3-.3.6-.4.9,0,0-.1.1-.1.2-.2.8-1,1.2-1.6,1.7,0,0-.2,0-.2.1-.2.2-.6.1-.8.3s-.4.4-.7.5c0,0,0,.1-.1.1-.6.3-1.1.6-1.6,1.1-.5.4-1,.7-1.5,1.1-.3.2-.5.5-.7.8,0,0-.1.1-.2.2-.3.1-.5.3-.7.6-.1.2-.4.2-.5.4-.6.6-1.2,1.3-1.7,2.1,0,0-.1.2-.2.2-.2.1-.3.3-.5.4-.2.3-.5.6-.8.8-.3.3-.5.6-.8.9-.3.4-.6.7-1,.9-.1,0-.2.1-.2.2-.3.5-.7,1-1.3,1.3-.3.2-.6.5-.9.8-.8.7-1.6,1.3-2.4,1.9,0,0-.2.2-.3.3-.2.2-.3.4-.5.6s-.2.2-.3.4l-.8.8c-.3.3-.6.5-.9.8-.3.4-.6.7-.8,1-.2.3-.4.7-.5,1-.3.7-.5,1.4-.4,2.2,0,.4.2.7.5.9.3.4.6.7,1,1,1.1,1,2.6,1.2,3.9,1.9,1.4.8,2.9,1.3,4.4,1.7,2.4.6,4.8.5,7.2.7,2.3.3,4.7.3,7,.2.2,0,.3,0,.5,0s.2,0,.3,0c.6.2,1.1.2,1.7.2,1.4,0,2.8,0,4.2.1.7,0,1.4.2,2,.2.5,0,.9.1,1.4.1.3,0,.7,0,1,0,.4,0,.8,0,1.1.4.2.3.4.5.7.8.3.3.5.8.4,1.3,0,.2,0,.4,0,.5v.4c-.2.3-.4.7-.5,1.1-.1.4-.5.6-.8.8-.2,0-.4.2-.6.2,0,0-.2,0-.2,0-.6-.2-1.2,0-1.8-.2-.3,0-.7-.1-1-.1-.8,0-1.5-.2-2.3-.1-.4,0-.7-.2-1.1,0-.1,0-.2,0-.4,0h-4.2c-.7,0-1.4-.1-2.1-.2h-1.3c-.7,0-1.4,0-2,0s-1.5,0-2.3-.1h-.9c-.3,0-.8-.1-1.3-.2-.2,0-.4-.1-.5,0h0c-.3-.3-.7,0-1.1,0-.3,0-.7,0-1,0,0,0,0,0-.1,0-.4-.3-.9-.2-1.3-.2-1,0-2,0-3-.2-.4,0-.8,0-1.3,0h-.2c-.4,0-.7-.1-1.1-.1-.5,0-1,0-1.4-.1-.4,0-.8,0-1.1,0-.3,0-.7,0-1,0-.4,0-.8,0-1.2,0-.3,0-.6,0-.8,0,0,0-.2,0-.3,0-.6,0-1.1.1-1.6.2h-.8c-.4,0-.8,0-1.1,0s-.8.1-1.2.1h-1.3c0,.1,0,.1,0,.1-.5.2-1.1.3-1.6.4-.3,0-.6.2-.9.3-.4.1-.8.3-1.1.5-.3.2-.6.5-.9.8,0,0-.1.2-.1.3-.2,1-.1,1.9,0,2.9.2.6.4,1.3.6,1.9,0,.3.2.7.4,1,.4.7.6,1.5.9,2.1.3.5.5,1,.8,1.5l1.2,2.2c.2.3.4.6.6,1,.4.7.7,1.4,1.1,2,.2.5.5.9.9,1.3,0,.1.2.2.2.3.5.7,1,1.4,1.3,2.2,0,0,0,.2.2.2.4.5.8,1,1,1.6,0,.1,0,.2.2.3.5.5,1,1.1,1.3,1.7l1.8,2.5c0,0,0,.1.1.2.3.6.7,1.2,1.1,1.7.5.6.9,1.4,1.4,2,.4.5.7,1.1,1,1.6s.9,1.3,1.3,1.9c.1.2.3.4.5.6l.9,1.2c.2.3.4.6.7.9,0,.2.2.3.3.5.1.2.2.4.3.6s.1.2,0,.2c0,.2,0,.5.2.7,0,0,0,.1,0,.2v2.6c0,.2,0,.2-.1.3-.4.2-.6.6-1,.8-.2.2-.4.2-.7.2,0,0-.2,0-.2,0-.6.1-1.1,0-1.6-.3,0,0-.1,0-.2-.2-.2-.4-.4-.7-.6-1-.5-.7-.9-1.5-1.3-2.2-.2-.3-.4-.6-.7-.8-.2-.2-.4-.4-.6-.7-.3-.3-.6-.6-.8-.9-.2-.4-.5-.8-.7-1.2,0,0,0-.2-.1-.2-.3-.4-.7-.8-1-1.1-.4-.4-.8-.9-1.1-1.4,0-.2-.2-.3-.4-.4-.5-.7-1-1.4-1.6-2-.2-.3-.6-.5-.9-.8s-.6-.7-.9-1-.8-1.1-1.4-1.4c0,0-.1,0-.1-.1-.2-.5-.5-1-.9-1.4-.4-.4-.7-.9-1.1-1.3-.2-.3-.4-.5-.6-.8-.1-.2-.3-.4-.5-.5-.1,0-.2-.1-.3-.2,0-.3-.2-.5-.4-.7-.5-.4-.9-.9-1.2-1.4-.2,0-.4-.1-.5-.4-.3-.4-.6-.8-.9-1.2-.2-.2-.3-.4-.5-.5s-.4-.4-.6-.6c-.5-.5-1.1-1-1.6-1.5-.3-.3-.6-.6-1-.9-.1-.1-.2-.2-.4-.4-.2-.2-.4-.3-.7-.4-.2,0-.4-.1-.6-.3-.6-.3-1.3-.4-2-.3-.9.2-1.7.5-2.5,1-.2.1-.4.2-.6.2-.4.2-.7.4-1.1.5s-.9.5-1.4.7c-.2,0-.4.3-.6.5-.3.3-.7.6-1.1.8-.3.2-.6.4-.8.7-.2.1-.4.3-.6.4-.5.3-.8.8-1.3,1.1-.2.2-.4.3-.6.5-.2.2-.4.4-.6.6s-.7.6-1,1c-.2.3-.4.5-.7.7-.3.3-.6.6-.9.9-.1,0-.2.2-.3.3,0,.2-.2.4-.4.5,0,0,0,.2-.2.3-.2.3-.4.6-.6.8-.3.2-.6.5-.8.8,0,.1-.2.2-.3.3-.4.4-.8.7-1.1,1.1-.4.4-.8.8-1.2,1.1-.3.2-.6.4-.8.7,0,.1-.2.1-.3.2l-1.8,1.7s0,0,0,0c-.4.6-1,1.1-1.7,1.4-.2,0-.3.2-.4.3-.4,0-.7,0-1.1,0-.3,0-.5,0-.7-.2-.7-.5-1.1-1.4-1.2-2.3,0-.1,0-.3.1-.4,0-.1,0-.2,0-.4,0-.4.1-.7.4-1,.2-.2.4-.5,0-.8-.1-.2-.2-.4-.3-.6,0-.1,0-.3,0-.4.2-.3.1-.5-.2-.6,0-.2.2-.4.3-.6.2-.2.2-.5,0-.6l.4-.7c0,0,0-.2.1-.2.5-.3.7-.9,1-1.2.2-.2.3-.4.5-.6,0-.1.2-.2.2-.3.5-.3.9-.8,1.2-1.3,0-.2.2-.3.4-.5.6-.4,1-1.1,1.6-1.6.9-.7,1.6-1.6,2.4-2.4.7-.6,1.4-1.2,2-1.9.3-.3.7-.6,1.1-.9.1-.1.2-.3.4-.4.5-.4,1-.8,1.4-1.2s1-.9,1.4-1.4.8-.7,1.1-1.1.8-.9,1.1-1.4.7-.9,1.1-1.4c.2-.3.3-.6.5-.9.3-.4.5-.8.8-1.2.1-.2.3-.4.4-.6.3-.7.5-1.4.8-2.1,0-.2,0-.5,0-.7-.1-.2,0-.5,0-.7.1-.2.1-.5,0-.7-.2-.3-.3-.6-.3-1,0-.3-.1-.6-.3-.9,0-.1-.1-.3,0-.4,0-.3-.2-.5-.4-.6-.2,0-.4-.3-.5-.5,0-.3-.3-.6-.5-.7-.2-.1-.4-.3-.6-.5-.2-.2-.5-.5-.8-.7-.3-.2-.5-.4-.7-.6-.3-.3-.7-.5-1.1-.6-.3-.1-.7-.2-1.1-.4-.4-.1-.7-.3-1.1-.5-.5-.4-1.1-.7-1.7-.9,0,0-.2,0-.2-.2-.1-.1-.3-.2-.5-.1-.3,0-.5,0-.8-.2-.3-.2-.6-.3-1-.3-.4,0-.9-.1-1.3-.2-.2,0-.4-.1-.6-.1s-.6,0-.8-.1c-.7-.2-1.4-.3-2.1-.5-.4-.1-.7-.2-1.1-.4s-.5-.1-.8-.2c-.3.3-.6,0-1,0s-.7-.1-1.1-.2c0,0-.1,0-.2,0-.5-.2-1-.3-1.6-.3-.3,0-.5,0-.8-.1h-.4c-.6-.1-1.3-.2-1.9-.4h0c-.4.3-.7-.1-1.1-.1s-.8-.2-1.1-.3-.8,0-1.1-.1h-.3c-.6-.3-1.3-.2-1.9-.6-.1,0-.3,0-.4-.1-.3,0-.6-.1-.9-.2s-.6-.2-.8-.3c-.3,0-.5-.3-.5-.6,0-.4-.4-.7-.4-1.1-.4-.3-.2-.7,0-1,.1-.4.2-.8.1-1.2,0-.4.2-.9.5-1.2.2-.2.4-.3.5-.5.2-.1.4-.2.7-.1.4,0,.7,0,1-.3h.1c.3.4.8.7,1.3.7l1.7.4c.1,0,.2,0,.3,0,.4,0,.8,0,1.1.1.4.1.8.2,1.2.3.6.1,1.2.1,1.8.2.3,0,.6.2.9.2l1.6.3,2.4.5,3.2.7,2.5.5c.4,0,.9.1,1.3.2h.1c.2.3.6.3,1,.4.2,0,.4,0,.6,0,.8,0,1.5-.2,2.3-.2.6,0,1.2,0,1.7.1.4.1,1.2.2,1.6.2.7.1,1.5.1,2.3,0,.8-.1,1.6-.1,2.4-.2.2,0,.4-.1.6-.2.5-.1,1-.3,1.5-.6,0,0,.2,0,.3,0,.2,0,.4-.1.5-.2.2-.2.4-.4.6-.5.1,0,.2-.2.2-.4,0-.2,0-.4,0-.6.3-.4.4-.8.4-1.3.3-.4.1-.9.1-1.4,0-.3,0-.7,0-1,0-.5,0-1,0-1.5v-.2c.2-.3,0-.5,0-.7,0-.2-.1-.4,0-.6,0-.3,0-.7-.1-1,0-.3,0-.5,0-.8,0,0,0,0,0-.1-.3-.5-.2-1-.4-1.5,0-.3-.1-.6-.2-.9Z"/>
        <path class="cls-1" d="M150,268.6s4.2.4,5.2.4c.7,0,1.5,0,2.2.2.3,0,.6,0,.9.1.6.1,1.3.2,1.9.4.4,0,.9.3,1.2.6.2.3.5.5.9.7.3.2.6.5.7.8,0,.3-.1.5-.2.8,0,.1-.1.3-.2.4,0,0-.1.2-.2.2-.3,0-.4.4-.6.6-.3.3-.5.6-.9.9-.2.1-.4.2-.7.2-.3,0-.7,0-1,0-.2,0-.3-.1-.4-.2h-.5c-.2.1-.5.1-.7,0-.4,0-.8-.2-1.2-.2-.2,0-.4,0-.6,0-.2,0-.5,0-.7,0-.4,0-.8,0-1.2,0-.4,0-.9-.2-1.3-.2s-.8,0-1.1,0h-2c-.2-.1-.4-.1-.5-.1-.4,0-.8,0-1.2-.1,0,0,0,0,0,0-.6,0-1.2,0-1.8-.1-.4,0-.9,0-1.3,0-.4,0-.8,0-1.2-.2-.1,0-.3,0-.4,0-.3,0-.6,0-.9,0-.4,0-.8,0-1.1,0s-1,0-1.5,0c-.3,0-.6-.1-.8-.2,0,0-.1,0-.2,0-.7.2-1.3-.1-2,0-.4-.2-.9,0-1.3-.2-.1,0-.3,0-.5,0s-.5-.2-.8,0c-.1,0-.3-.2-.5-.3h-1.4c0,.2,0,.3,0,.4,0,.2.2.4.3.6.7.9,1.3,1.7,2,2.6.3.4.6.8,1,1.2s.7.9,1.1,1.3c.6.7,1.2,1.4,1.8,2.2.4.5.6,1,1,1.5s.4.8.7,1.1c.3.3.5.7.7,1.1.2.4.5.7.7,1,0,0,0,.2.1.3.4.7.9,1.4,1.4,2.1.2.3.4.6.6.9s.5.7.7,1.1l1.3,2c.2.3.4.7.7,1s.5.8.8,1.1c.2.3.3.7,0,1.1-.2.5-.4,1-.6,1.6,0,.1-.1.3-.2.4-.3.3-.6.7-.9,1.1-.1.2-.4.3-.6.4-.5,0-1.1,0-1.5-.3-.2-.2-.3-.4-.4-.6-.2-.4-.4-.7-.6-1.1-.4-.6-.9-1.2-1.3-1.8-.2-.3-.3-.6-.5-.9-.4-.7-.9-1.3-1.3-2-.1-.3-.3-.5-.5-.8-.3-.4-.6-.8-.8-1.2-.2-.3-.4-.7-.6-1-.4-.6-.7-1.3-1.1-1.9-.2-.4-.5-.8-.8-1.2-.4-.5-.8-.9-1.1-1.4-.4-.6-1-1.2-1.5-1.8s-1.2-1.4-1.8-2c-.3-.3-.6-.7-.8-1-.4-.6-.8-1.1-1.2-1.6-.3-.3-.5-.8-.8-1.1-.2-.2-.4-.5-.5-.7-.2-.2-.3-.4-.5-.6-.4-.5-.7-1.1-.9-1.6,0,0,0-.2-.1-.2-.2-.2-.4-.4-.5-.7-.1-.3-.2-.5-.4-.7-.4-.5-.5-1.1-.5-1.7,0-.4.1-.8.2-1.2v-.2c0-.3.5-.5.6-.8s.4-.5.7-.8c.3-.2.6-.3,1-.3.7,0,1.5,0,2.2,0,.5,0,1.1.1,1.6.2.1,0,.2,0,.4,0h.2c.6.2,1.3.3,1.9.2h1.1c0,0,2.5.3,2.5.3l2,.2c.8,0,1.6,0,2.4.1.6,0,1.1,0,1.7.1.3,0,.7,0,1,0,.5,0,.9,0,1.4.1h1.1c.4,0,.9.1,1.3.2.8-.2,1.7-.3,2.6-.3Z"/>
        <path class="cls-1" d="M92,232.8c-.2,0-.3-.3-.3-.5-.3-.4-.5-.9-.7-1.4-.1-.2-.3-.5-.4-.7-.1-.2-.3-.3-.2-.5,0,0,0-.1-.1-.2s0,0,0-.1c0-.5-.6-.8-.8-1.2,0-.2-.2-.3-.3-.4,0,0,0,0-.1-.1,0-.3-.2-.6-.4-.9-.2-.3-.3-.6-.6-.8-.2-.3-.4-.6-.6-.9,0,0-.1-.2-.2-.3-.5-.5-1-1.1-1.5-1.8-.6-.8-.7-1.8-.3-2.7h0c.4-.4.7-1,1.2-1.2.1,0,.3-.1.3-.2.3-.2.6-.3.9-.2.5.1,1,.2,1.6.4.3,0,.6.3.7.6,0,.2.1.4.2.6.1.4.2.7.3,1.1,0,.1,0,.2.2.3.5.8,1.1,1.6,1.6,2.5.4.6.8,1.3,1.1,2s.7,1.4,1.1,2c.3.5.6,1.1.8,1.7,0,.2.2.3.2.4.2.4.4.9.6,1.3.3.7.6,1.4.9,2.1s.4,1.2.6,1.9.5,1.5.7,2.2.5,1.4.6,2.1c0,.4,0,.8.1,1.2s.3,1,.5,1.5c0,.2.2.4.3.7,0,.3.1.5.3.8.2.3.1.7-.2.9-.1.1-.2.3-.3.4,0,.2-.3.4-.5.5,0,0-.1.1-.2.2s-.1.1-.2.2c-.4.1-.7.3-1,.6h0c-.4,0-.8.3-1.2.2,0,0-.2,0-.3,0h-.2c-.2-.2-.4-.1-.6-.2-.8,0-1.6-.2-2.3-.5-.1,0-.2,0-.3,0-.4,0-.9,0-1.3-.2-.3-.1-.6-.4-1-.3,0,0-.2,0-.3-.1-.2-.1-.4-.1-.7,0-.1,0-.2,0-.4,0-.5-.2-1-.3-1.5-.2-.1,0-.2,0-.4,0-.7-.2-1.4-.3-2.2-.5s-1.8-.3-2.6-.5c-.5-.1-1-.3-1.4-.4-.3,0-.6-.1-.9-.1-.2,0-.3,0-.4,0-.6-.1-1.2-.3-1.8-.4s-1.1-.1-1.7-.2c-.4,0-.8-.2-1.1-.2s-.5-.1-.8-.2c-.8-.1-1.6-.2-2.3-.3-.4,0-.8-.1-1.2-.3-.2,0-.4-.1-.5,0-.4,0-.8-.1-1-.4-.3-.3-.4-.6-.3-1,0-.3,0-.7,0-1.1,0-.4.3-.8.7-.9.3-.2.6-.4.8-.6.3-.3.7-.4,1.1-.4.5,0,1,0,1.4.2.3,0,.6.1.9.1.9.1,1.7.3,2.6.5,1.2.3,2.5.6,3.7.8s2.3.6,3.5.8c.7.1,1.4.2,2.1.4s1.5.4,2.3.6c.8.2,1.7.3,2.5.4.4,0,.8.1,1.1.2.6.1,1.2.2,1.7.4.2,0,.5.1.7.2.2,0,.4,0,.5,0-.2-.2-.2-.5-.2-.8,0-.2,0-.4,0-.6v-.6h0c-.3-.3,0-.6-.2-.8,0,0,0,0,0-.1,0-.6-.6-1-.6-1.7,0-.3-.3-.6-.5-1,0,0-.1-.2,0-.3,0-.3,0-.6-.2-.8-.2-.5-.4-1-.6-1.4,0,0,0-.2,0-.3l-.2-.8Z"/>
        <path class="cls-1" d="M70.2,285.7c-.2-.5,0-1,.7-1.2,0-.3.2-.7.5-.7,0,0,0,0,.1,0,0,0,.2,0,.2-.1.2-.1.4-.2.7-.2.4,0,.7-.2,1-.5.3-.2.5-.5.7-.8.1-.1.3-.3.5-.4.6-.5,1.1-1,1.6-1.6.4-.5.9-1,1.4-1.5.1-.2.3-.3.4-.5.3-.4.6-.7.9-1s.8-.7,1.1-1.1c.4-.5.9-.9,1.3-1.4.5-.5.9-1,1.4-1.6l.2-.2c.6-.6,1.2-1.3,1.7-1.9.1-.2.3-.4.4-.6,0,0,0-.1.1-.2.2-.2.4-.4.6-.6.5-.6,1-1.3,1.5-2,.3-.4.5-.8.8-1.3-.3-.1-.6-.3-1-.4s-.5-.1-.7-.2c-.3-.1-.7-.2-1-.2-.4,0-.8-.2-1.3-.3-.6-.2-1.1-.4-1.7-.7-.3-.1-.6-.2-.8-.2,0,0-.1,0-.2,0l-2-.7h-.2c-.4,0-.9-.1-1.3-.2-.4-.1-.8-.2-1.2-.1-.3,0-.5,0-.8-.2-.2-.1-.5-.2-.8-.2-.6,0-1.2,0-1.8-.1-.3,0-.6,0-.8-.2-.7,0-1.4-.4-2.1-.4,0,0-.1,0-.2,0-.4-.3-.9-.2-1.3-.2-.2,0-.4,0-.6-.2l-.8-.3c0,0-.2,0-.3,0h-.2c-.4-.2-.9-.1-1.3-.3-.8-.1-1.3-.9-1.2-1.6,0,0,0-.2,0-.2-.1-.5,0-1,.2-1.4.2-.5.6-.9,1-1.1.3-.2.7-.2,1,0,.4.2.9.3,1.4.4.7.2,1.4.3,2,.4.5.1,1,.3,1.5.4s.8.1,1.2.2c.7.2,1.4.2,2.1.4s1.4.2,2.1.3c.5,0,1,.2,1.5.3h.5c.4,0,.9.2,1.3.3,0,0,.1,0,.2,0,.6,0,1.1.1,1.7.3.2,0,.5.2.7.2.7.2,1.4.5,2.2.7.5.2,1.1.3,1.7.3.4,0,.8.1,1.2.3.6.2,1.2.4,1.7.7.6.3,1.3.6,2,.9.3.2.7.4,1,.6,0,0,0,.1.2.1.4.2.5.5.4.9,0,.1,0,.2,0,.3.1.4,0,.7,0,1.1,0,.3-.2.5-.3.7-.5.7-.8,1.5-1.3,2.1-.2.3-.4.7-.6,1s-.5.8-.8,1.1c-.3.4-.6.8-.9,1.3,0,0,0,0,0,.1-.4,0-.4.4-.6.6-.4.5-.7.9-1.1,1.3,0,0-.2.2-.3.2,0,0-.2,0-.2.1-.2.6-.7.9-1,1.4,0,.2-.3.3-.5.5l-1.7,1.7c-.2.2-.3.3-.5.5l-1.2,1.2h0c-.3.5-.7.9-1.1,1.2l-.8.9-1.1,1.1c-.1.1-.2.4-.4.5,0,.1-.2.3-.4.3-.2,0-.4.2-.5.4,0,.1-.2.3-.3.4-.3.2-.6.2-.7.6,0,.2-.4.3-.5.5-.2.2-.5.4-.8.6-.3.2-.5.4-.8.6,0,0-.1,0-.2.1-.5.2-.9.5-1.4.8-.1,0-.3.1-.5.1-.2,0-.4,0-.6.1-.4-.1-.8,0-1.2-.1-.3,0-.5-.3-.6-.5,0-.1-.3-.3-.3-.4s-.1-.5-.1-.8c0-.3,0-.5.2-.8Z"/>
        <path class="cls-1" d="M121.9,238.3c-.2,0-.3,0-.5,0-.4,0-.8-.2-1.1-.6-.2-.4-.4-.7-.5-1.1,0-.2-.2-.5-.4-.7-.2-.3-.4-.6-.3-.9-.5,0-.4-.5-.5-.8s0-.4-.2-.5c0,0,0,0,0-.1-.4-.8-.9-1.6-1.3-2.4-.2-.4-.3-.7-.5-1.1s-.4-.7-.5-1.1c-.4-.8-.7-1.6-1.1-2.4,0,0,0,0,0-.1-.4-.6-.7-1.2-.9-1.8-.1-.3-.3-.6-.3-.9-.1-.4-.3-.7-.5-1-.3-.4-.5-.9-.7-1.3-.2-.4-.3-.8-.5-1.2-.5-1-.9-1.9-1.4-2.9-.6-1.2-1.3-2.3-2-3.4-.1-.2-.2-.5-.2-.8,0-.2,0-.4,0-.6,0-.3,0-.7.3-.9.2-.1.4-.3.5-.5.1-.2.3-.3.5-.3.6-.2,1.3,0,1.6.5.2.2.4.4.6.6,0,0,0,0,.1.1.4.5.8,1,1.1,1.5,0,.2.2.3.3.4.2.4.5.7.5,1.1,0,0,0,.1.1.2.4.8.8,1.5,1.2,2.3.5.9.8,1.8,1.1,2.7,0,.2.2.3.3.5.3.4.5.8.7,1.2.2.4.4.9.5,1.3,0,0,0,.1,0,.2l1,1.8c.1.3.3.5.4.8v.4c.3.2.3.6.6.9,0,0,0,.2,0,.3,0,0,0,.2,0,.2.4.3.5.9.7,1.3.3.4.5.8.7,1.3.2.5.5,1,.8,1.4.2.4.4.8.6,1.2s.1.2.2.4c.1.2.4.3.7.2,0,0,0,0,0,0,.2-.1.3-.3.5-.4s.4-.2.5-.3c.1,0,.2-.2.3-.3.4-.4.8-.8,1.2-1.1s.9-.6,1.3-1c.8-.6,1.5-1.3,2.2-2,0,0,.1-.1.2-.2.4-.3.8-.6,1.2-1,.3-.2.6-.5,1-.7s.9-.8,1.3-1.1c.6-.5,1.2-.9,1.8-1.3.3-.2.6-.4.9-.6.9-.6,1.7-1.3,2.6-2.1.6-.5,1.3-.9,1.9-1.4.3-.2.6-.4.9-.4.3,0,.5-.1.8-.2,0,0,.1,0,.2,0,.3-.2.6-.3,1-.3.4,0,.7.2,1,.5.4.3.4.8.2,1.2,0,.1,0,.2,0,.3,0,0,0,.2-.1.2-.5.3-.7.8-1.1,1.2-.1.2-.3.3-.5.4-1,.6-2,1.4-2.8,2.2-.3.3-.8.6-1.1.9s-.7.6-1.1.9-1,.6-1.4.9c-.4.2-.6.5-.8.9-.1,0-.2,0-.3.1-.4.2-.8.5-1.1.8-.6.6-1.3,1-1.9,1.6-.8.7-1.6,1.4-2.5,2-.5.3-.9.7-1.4,1-.4.3-.9.7-1.2,1.1,0,0-.2.2-.3.2-.6.3-1.2.8-1.7,1.2-.3.3-.7.6-1.2.7,0,0,0,0,0,0-.5.5-1.3.5-1.9.8Z"/>
        <path class="cls-1" d="M143.1,250.3l1.5.4c.6.1,1.1.2,1.7.3.1,0,.5,0,.5.1s0,0,0,0h1.2c0,.1.1.1.1.1.2.2.6.2.9.3.8.2,1.6.4,2.4.5.2,0,.3,0,.5,0,.6,0,1.2.2,1.8.3.4.1.8.1,1.1,0h.2c.3.3.6.2.9.3.5,0,1.1,0,1.6.1.2,0,.8,0,1,0,.3,0,.6,0,.8,0,.6,0,1.3,0,1.9-.1.3,0,.7-.1,1-.2.1,0,.2,0,.4,0l1.6-.2c.3,0,.7,0,1,.1.1,0,.3,0,.4,0,.3,0,.5,0,.8,0,0,0,.2,0,.2.1.1.4.6.7.5,1.2,0,.4,0,.9-.3,1.2,0,.2-.1.3-.2.5h-.6c-.4.3-.7.4-1.1.6-.4,0-.7.1-1.1.1h-1.6c-.2,0-.3,0-.5,0h-.4c0,0-1.7.2-1.7.2h-1.4c-.6.1-1.2.2-1.9.2-.4,0-.8,0-1.1-.1-.3,0-.7,0-1,0-.6,0-1.3-.1-1.9-.3-.5,0-.9-.2-1.4-.3-.2,0-.3,0-.4-.2,0,0-.1,0-.2,0-.5,0-1.1,0-1.6-.1-.3,0-.7-.2-1-.3-.6-.1-1.1-.4-1.6-.5-.3,0-.7,0-1,0-.4,0-.8,0-1.2-.2-.2,0-.3,0-.5,0-.3-.1-.7-.2-1-.2-.8-.1-1.5-.3-2.3-.5-.4,0-.8-.1-1.2,0-.3,0-.6,0-.8.1h-.3l-.9-.3c0,0-.1,0-.2-.1-.3-.4-.5-.9-.4-1.4,0-.1,0-.2,0-.4,0-.2,0-.3.2-.4.2-.1.3-.4.2-.6,0-.2,0-.4.2-.4,0,0,0,0,0,0h.2c.6-.4,1.1-.8,1.5-1.3l1.1-1.1c.3-.3.6-.6.8-.8s.6-.5.9-.8c0,0,.1-.2.2-.2,0-.1.1-.2.2-.3.6-.4,1.1-.9,1.5-1.5.5-.5.8-1.2,1.3-1.6,0,0,0,0,0-.1.8-.6,1.3-1.4,2.1-2,.5-.3.9-.8,1.4-1.1s1.1-.8,1.7-1.2c.6-.5,1.2-.9,1.9-1.3.2-.1.3-.3.5-.5.1-.1.2-.2.4-.3.4-.3.8-.7,1.2-.9.5-.4,1.1-.6,1.7-.8.3,0,.6,0,.9-.2,0,0,.1,0,.2,0,.3.1.5.3.8.4.2.2.4.4.4.7.3.9-.3,1.6-.8,2.3-.4.5-.9.9-1.5,1.1-.4.2-.7.4-1,.7l-1.2.8c-.4.2-.7.5-1.1.7-.6.4-1.1.9-1.7,1.3-.2.2-.4.4-.6.5-.6.6-1.2,1.1-1.7,1.7-.7.8-1.3,1.6-1.9,2.4-.2.3-.5.5-.7.8s-.6.6-.9,1c-.2.2-.4.4-.6.6-.4.4-.8.8-1.1,1.3Z"/>
        <path class="cls-1" d="M91.4,305.2c-.2,0-.5-.2-.7-.5-.3-.5-.3-1.2.1-1.6.2-.2.2-.5.2-.8,0-.2,0-.4.1-.6.3-.7.7-1.3,1.2-1.8.6-.7,1.1-1.3,1.8-1.9.2-.2.5-.3.7-.5s.4-.4.6-.6h0c.7-.4.9-1.1,1.5-1.5.8-.5,1.4-1.3,2.2-1.9.6-.4,1.1-1,1.7-1.5s1.2-1,1.8-1.5c0,0,0,0,.1-.1.4-.4.9-.8,1.4-1.1.6-.4,1.2-.8,1.8-1.2.2,0,.3-.2.5-.2.3,0,.5-.2.6-.5.1-.1.3-.2.4-.2.3,0,.6-.2.9-.4.3-.2.6-.2.9,0,.3.3.7.5,1.1.6.1,0,.2.2.3.3l.5.5c0,0,.1.1.2.2.1.3.3.5.5.7.4.5.9,1,1.4,1.5s1,1.1,1.5,1.7c.5.5,1,1.1,1.5,1.7.9,1.2,1.7,2.5,2.6,3.8.2.3.5.6.7,1s.2.4.3.6c.7,1.1,1.5,2.1,2.3,3.1.7.9,1.4,1.9,1.9,2.8.3.4.3.9.2,1.3,0,.2-.1.3-.2.5,0,0-.1.2-.2.3-.1.5-.5.8-.9,1-.2,0-.3,0-.4.3,0,0,0,0,0,.1-.4,0-.8.4-1.2.2,0,0-.1,0-.2,0-.3-.4-1-.5-1-1.2-.2-.3-.5-.6-.7-1-.3-.6-.8-1.1-1.2-1.7-.4-.7-.8-1.4-1.2-2-.5-.6-.9-1.2-1.4-1.8-.2-.2-.3-.4-.4-.7l-.2-.4-.2-.3-1-1.5c0-.1-.1-.3-.2-.4,0-.1-.1-.3-.3-.4-.4-.2-.5-.6-.7-1-.1-.3-.3-.5-.6-.6-.2,0-.3-.2-.4-.4-.2-.3-.5-.7-.7-1s-.4-.4-.6-.7c-.4-.4-.8-.9-1.2-1.3-.2-.2-.5-.3-.7-.6,0,0-.3,0-.4,0-.4.2-.9.2-1.4.4-.4.1-.7.3-1,.6-.2.3-.6.4-.8.7-.1.1-.2.3-.4.4-.2.2-.4.3-.6.5,0,0-.1,0-.2.1-.5.2-.7.7-1,1l-.4.3c0,0-.1,0-.2,0-.4.4-.7.8-1.1,1.2s-.6.6-.9.8c-.4.4-.9.9-1.3,1.3s-.8.7-1.2,1c0,0,0,0-.1.1-.4.5-.9.9-1.4,1.3-.1.1-.3.2-.3.4,0,0,0,.2-.2.2-.3.2-.7.4-.9.7-1,.8-2.1,1.4-3.2,1.9Z"/>
        <path class="cls-1" d="M71.3,271.8h-2c-.4,0-.8,0-1.2-.1s-.8-.3-1.2,0c0,0,0,0-.1,0-.4-.2-.9,0-1.2-.2-.2,0-.4,0-.6,0-.3.2-.7,0-.9-.2-.1-.1-.3-.2-.4-.4,0-.2-.2-.4-.2-.5v-.2c-.3-.8,0-1.7.5-2.3.4-.4.8-.8,1.3-1,.2-.2.6-.2.8-.1.3,0,.7.3,1.1.1,0,0,0,0,.1,0,.4.2.9.3,1.4.3.7,0,1.3.2,2,.2.5,0,1,.2,1.5,0,.6,0,1.2,0,1.8-.1.2,0,.4-.1.6-.1.2,0,.5,0,.7,0h.9c0,.1.1.1.2.1.4.3.7.6,1,.9.2.2.3.5.4.7,0,.1.2.3.2.4,0,0,0,.1,0,.2,0,.3-.1.6-.2.8-.3.6-.6,1.1-1,1.6-.2.3-.4.6-.6,1-.3.6-.8,1.1-1.2,1.6-.5.2-.7.8-1.1,1.2-.2.2-.4.4-.6.5-.3.3-.6.7-.9,1s-.6.7-.9,1.1c-.2.2-.3.3-.5.5-.4.4-.8.8-1.3,1.2-.4.3-.8.8-1.5.7-.1,0-.3,0-.4.1-.3.2-.8.1-1-.2,0,0,0,0,0-.1-.2-.3-.2-.6-.2-.9v-1c0-.2-.1-.4-.3-.5-.1,0-.1-.3,0-.4,0,0,0,0,0,0,.6-.7,1.2-1.3,1.9-2s1.2-1.2,1.7-1.9,1-1.3,1.5-2h0Z"/>
        <path class="cls-1" d="M156.8,278.9c.2.2.4.3.6.5.2,0,.3,0,.5.1.2,0,.4,0,.6.1.5.2.9.5,1.4.7.2,0,.3.3.3.5,0,.3,0,.5,0,.8,0,.3-.1.5-.4.7,0,0-.1.1-.1.2-.2.6-.5,1.1-1,1.5-.4.3-.9.4-1.4.3-.3,0-.7,0-1-.1-.1,0-.2,0-.3,0-.2-.1-.4-.2-.7-.2-.5,0-1-.2-1.4-.4-.4-.2-.8-.3-1.2-.4,0,0,0,.2,0,.2.3.5.5,1,.8,1.5s.7,1.2,1,1.8l.6,1s0,0,0,0c0,.4.2.9.2,1.3,0,.1,0,.3,0,.4-.1.2-.2.5-.4.7,0,0-1.1.9-1.4,1-.2.1-.5,0-.7,0-.5-.3-.9-.7-1.2-1.1-.4-.4-.8-.8-1.2-1.1h0c-.1-.5-.5-.7-.7-1.1,0-.1-.1-.2-.2-.3-.3-.4-.6-.8-.9-1.3-.3-.5-.6-1-1-1.4,0,0,0,0,0,0,0-.5-.4-.7-.6-1.1-.2-.5-.4-.9-.7-1.4-.2-.3-.2-.6-.1-.9,0-.2.1-.4.2-.6,0,0,0-.1,0-.2-.1-.4.2-.7.2-1,0,0,0,0,0,0,.4-.1.5-.5.7-.8s.3-.4.6-.4c0,0,.1,0,.1,0,.2-.2.4-.3.6-.2.5,0,1,0,1.5.1s1.1.2,1.7.3,1.4.3,2,.4c.4.1.8.1,1.2,0,.4,0,.9,0,1.3.1.3.2.6.1.8-.1Z"/>
        <path class="cls-1" d="M74.5,232.7l.7-.7c.1-.1.3-.2.5-.2.2,0,.3,0,.4-.1.2-.2.5-.2.8-.1.6.2,1.3.4,1.9.5.6.1,1,.3,1.6.4s1.1.3,1.6.4c.6.1,1.1.2,1.7.2h0c-.3-.4-.3-.9-.7-1.2-.1,0-.1-.3-.2-.4s-.2-.4-.3-.5,0,0,0-.1c0-.3-.2-.7-.5-.9-.2-.3-.5-.5-.6-.8,0,0,0-.1-.1-.2s0-.3-.2-.4c-.4-.4-.5-.9-.8-1.3,0-.1-.1-.3-.2-.4,0-.2-.2-.4-.3-.6v-.9c.2-.2.4-.5.7-.8.3-.4.7-.6,1.2-.5.5,0,.9.3,1.2.6,0,0,.1.1.2.2.3.1.5.4.7.6.4.6.9,1.1,1.3,1.7s.9,1.4,1.3,2,.8,1.5,1.1,2.1c.4.8.8,1.6,1.1,2.3.1.3.3.6.4.9,0,0,0,.1,0,.2,0,.4-.1.7-.2,1.1,0,0,0,.1,0,.2-.4.4-.6.9-1.1,1.1,0,0-.1,0-.2.1-.3.4-.8.4-1.3.4s-1,.1-1.4.2c0,0-.2,0-.3,0-.3,0-.6-.1-.9-.1-.2,0-.5,0-.7,0-.7-.1-1.4-.3-2-.4-.4,0-.8-.1-1.2-.2-.1,0-.2,0-.3,0-.6-.2-1.2-.3-1.8-.4-.5,0-1-.3-1.4-.6-.3-.2-.7-.3-1-.5,0,0-.1,0-.2,0-.2-.3-.4-.5-.7-.8-.2-.1-.2-.3,0-.5.1-.2.2-.4.2-.6,0,0,0-.1,0-.2,0-.2,0-.4,0-.5Z"/>
        <path class="cls-1" d="M126,226.2c-.1,0-.2,0-.4,0-.5.1-.9-.2-1.4-.4-.2,0-.4-.3-.4-.5-.2-.5-.3-.9-.5-1.4h0c-.3-.4-.7-.7-1-1-.2-.2-.3-.4-.4-.6-.3-.5-.7-.9-1.1-1.3-.4-.5-.8-1-1.1-1.4s-.7-1-1.1-1.5-.8-1.2-1.1-1.8c-.2-.3-.2-.6,0-.9.2-.2.3-.5.2-.8,0-.3,0-.7,0-1,0-.4.3-.5.5-.7.3-.2.6-.4,1-.5,0,0,0,0,.1,0,0,0,0,0,.1,0,.2.2.6,0,.8.3s.3.5.4.7.4.8.7,1.1.4.4.5.7c.8,1,1.6,2.1,2.5,3.1.5.6,1,1.1,1.6,1.6.2.2.5.4.8.5.1,0,.3,0,.4-.1s.3-.3.4-.5.2-.2.2-.2c0-.4.4-.6.6-.9.3-.2.7-.7,1.1-1,0,0,0,0,0,0,0-.6.8-.9,1-1.4,0-.2.4-.4.6-.6,0,0,.2-.1.2-.2,0-.2.3-.3.4-.4.2,0,.4-.3.6-.4.5-.4,1.3-.3,1.7.1.4.4.7,1,.6,1.6,0,.6-.2,1.1-.6,1.5-.2.2-.3.5-.5.7-.4.5-.8,1.1-1.3,1.6-.3.3-.6.6-.9.9s-.4.4-.5.6c-.4.4-1,1.1-1.3,1.6-.3.4-.7.8-.9,1.2-.3.4-.7.9-1.1,1.2,0,0-.2.1-.3.1-.4,0-.8.3-1.1.7Z"/>
        <path class="cls-1" d="M110.1,310c-.3-.3-.6-.6-.8-.9-.2-.5-.5-.9-.8-1.3,0-.2-.2-.3-.2-.5,0-.2,0-.4-.3-.5,0,0,0-.2-.1-.3-.1-.2-.2-.4-.3-.6-.2-.2-.3-.2-.5,0s-.7.5-1,.8-.9.6-1.3,1c-.4.5-.9.9-1.4,1.1,0,0-.1.1-.2.1-.3.2-.4.5-.9.5s-.3.2-.5.3c-.4.1-.8.3-1.3.4-.3-.4-.8-.7-.9-1.3h0c0-.4.2-.8.3-1.2.1-.7.5-1.3,1-1.7.4-.4.8-.7,1.1-1,.1-.2.3-.3.4-.5.4-.3.7-.6,1-1,0,0,.1-.1.2-.2.7-.4,1.2-1,1.8-1.6.3-.4.8-.7,1.3-1,.1,0,.3-.1.4-.3.4-.5,1.2-.6,1.7-.2h.2c.4.2.8.5,1,.9.3.5.8,1,1.1,1.5s.5,1,.8,1.5.6,1,.9,1.5c0,0,0,.2.1.2.2.5.5,1,.8,1.5,0,.1.2.2.3.4s.2.4.3.5,0,.3.2.3c.4.1.4.5.6.8,0,.2,0,.4-.1.5,0,0,0,0,0,0-.2,0-.4.2-.4.5,0,.4-.4.5-.7.6-.1,0-.2.1-.3.2-.2.2-.5.3-.8.4h0c-.5.3-.9,0-1.4-.2-.4-.3-.7-.8-.8-1.3Z"/>
        <path class="cls-1" d="M157.7,245.1c.5.1.9.3,1.4.4s.7.2,1,.2.7,0,1,.1c0,0,.2,0,.3,0,.6.2,1.3.3,1.9.4.1,0,.2.1.3.2s.2.4.4.6.1.4.1.6c0,.4-.2.7-.5.9-.6.3-1.1.7-1.6,1.1,0,0-.2,0-.3.1-.5,0-1,0-1.6,0-.5-.1-1.1-.2-1.6-.3s-1-.3-1.5-.4c-.1,0-.3,0-.4,0-.3,0-.7,0-1-.1-.5-.2-1-.3-1.5-.3-.2,0-.4,0-.6-.1,0,0-.2,0-.3,0-.7.1-.9-.2-1.2-.8,0-.2-.1-.4-.1-.7,0-.2,0-.4.1-.6.2-.3.3-.6.5-.9.3-.5.6-.9,1-1.2h0c.9-.9,1.9-1.7,2.9-2.5.6-.5,1.3-.9,1.9-1.3,0,0,.2-.1.3-.1.2,0,.5,0,.7,0,.4,0,.8,0,1.1.4.2.3.4.5.6.9,0,.1,0,.3,0,.4-.1.5-.3,1-.7,1.4-.2.2-.4.4-.7.6-.2.2-.5.3-.7.5s-.6.5-1,.8Z"/>
      </g>
    </g>
  </g>
</svg>