<svg id="Layer_1" data-name="Layer 1" xmlns="http://www.w3.org/2000/svg" viewBox="0 0 365.2 365.2"><defs><style>.cls-1{fill:#fff;}</style></defs><rect x="-1.4" y="-1.4" width="368" height="368"/><path class="cls-1" d="M150.83,113.05c-.48-.15-.53-.69-.68-1.3-.31-1.33-.81-2.61-1.23-3.91a4,4,0,0,1-.4-1.46c.18-1.61-.84-3-.82-4.52-1.27-1.72-1.09-4-2.18-5.81a33.83,33.83,0,0,1-2.21-5.57A53.58,53.58,0,0,0,141,84.16c-1-1.93-1.58-4-2.63-5.93-.33-.59-.82-1.09-1.19-1.66a15,15,0,0,1-.88-1.69,26.22,26.22,0,0,0-2.84-5,.55.55,0,0,1-.08-.15c-.78-2.65-2.35-5-2.53-7.9a17,17,0,0,0-.88-3.71,4.25,4.25,0,0,1,.29-3.25,12.28,12.28,0,0,1,3.32-4.32,5.26,5.26,0,0,0,1.11-1.05c.85-1.17,2.13-1.3,3.38-1.48a2.34,2.34,0,0,1,2.25.56c.42.44,2.58,4,2.83,5.64.09.59.28,1.17.38,1.76a16.88,16.88,0,0,0,2.89,6.64c.11.17.31.33.34.52.42,2.3,2,4.06,2.84,6.16.54,1.34,1.2,2.63,1.81,3.94.34.72.72,1.42,1,2.15s.55,1.52.83,2.27.46,1.29.72,1.91q.84,2,1.71,4a3.77,3.77,0,0,0,.48.91,5.75,5.75,0,0,1,.79,1.39,2.94,2.94,0,0,0,1.18,1.27,9.68,9.68,0,0,1,1.51,1.12,2.85,2.85,0,0,1,.82,1.32,3,3,0,0,0,.39.8,24.2,24.2,0,0,1,2.81,5.87,15.51,15.51,0,0,0,1,1.76c.29.56.53,1.15.8,1.72a28.08,28.08,0,0,0,1.58,3.15,14.8,14.8,0,0,1,1,2.87c.21.59.45,1.16.69,1.74a50.52,50.52,0,0,0,2.59,5.34,60,60,0,0,1,2.9,6.74,43.08,43.08,0,0,0,4.21,7.9c.48.7.85,1.48,1.31,2.2a40.43,40.43,0,0,0,2.81,4.24c.83,1,1.55,2.07,2.47,3a24.69,24.69,0,0,0,2.92,2.69,19.89,19.89,0,0,0,3.18,1.64,14.49,14.49,0,0,0,5.36,1.09,5.39,5.39,0,0,0,2-.28c1.38-.52,2.73-1.09,4-1.74,1.09-.54,2.11-1.21,3.15-1.86,1.56-1,3.16-1.9,4.63-3,3.27-2.46,6.78-4.59,10-7.1,2.21-1.72,4.6-3.22,6.79-5,1.76-1.4,3.62-2.69,5.24-4.25a27.22,27.22,0,0,0,2.18-2.69c.13-.16.24-.48.35-.48.84,0,1.17-.79,1.8-1.12a2.86,2.86,0,0,0,1.09-1.19,4.65,4.65,0,0,1,1.58-1.82,5.49,5.49,0,0,1,1.21-.43c.71-2.07,2.47-3.39,3.95-4.91.5-.52,1.36-.7,1.58-1.54,1.64-.51,2.06-2.28,3.36-3.19a13.2,13.2,0,0,0,2.11-2.54,41.53,41.53,0,0,1,4.34-5,49.93,49.93,0,0,0,4-4.28c1.27-1.37,2.89-2.47,3.71-4.22a8.76,8.76,0,0,1,2.83-2.85c.86-.7,1.79-1.31,2.64-2a4.92,4.92,0,0,1,3.62-1.37,3.24,3.24,0,0,0,1.65-.18c1.09-.55,1.79.17,2.58.59a23.57,23.57,0,0,1,4.23,3.92c.44.92.79,1.88,1.2,2.82.22.49.47,1,.73,1.5a17.15,17.15,0,0,1-.49,2c-.31.88-.72,1.73-1.11,2.58-.11.23-.37.4-.44.64-.71,2.33-2.8,3.34-4.49,4.73-.19.16-.47.21-.68.36-.69.48-1.63.33-2.28,1s-1.25,1-1.88,1.51c-.13.11-.25.28-.4.32-1.85.52-3,2-4.49,3.09s-2.82,1.94-4.16,3a25.44,25.44,0,0,0-2.05,2.1,2.32,2.32,0,0,1-.66.56,4,4,0,0,0-2,1.54c-.31.49-1.06.68-1.5,1.11a44.65,44.65,0,0,0-4.87,5.77,5.51,5.51,0,0,1-.67.7,6.68,6.68,0,0,0-1.28,1.2,12.07,12.07,0,0,1-2.16,2.35c-.8.76-1.49,1.65-2.25,2.45a8.5,8.5,0,0,1-2.91,2.41,1.45,1.45,0,0,0-.7.66,10.34,10.34,0,0,1-3.51,3.6c-.91.69-1.77,1.44-2.64,2.18-2.16,1.86-4.35,3.71-6.68,5.36a4.58,4.58,0,0,0-.75.83c-.45.55-.73,1.22-1.45,1.57-.39.18-.61.68-.93,1-.71.73-1.44,1.45-2.17,2.16a23.69,23.69,0,0,0-2.39,2.3c-.74,1-1.61,1.84-2.3,2.83a28,28,0,0,0-1.45,2.71,12.47,12.47,0,0,0-1.16,6.12,4.28,4.28,0,0,0,1.49,2.62,27.77,27.77,0,0,0,2.78,2.75c3.18,2.7,7.39,3.36,11,5.29a53.19,53.19,0,0,0,12.37,4.87c6.75,1.7,13.47,1.28,20.32,1.93a121.27,121.27,0,0,0,19.72.55c.47,0,.94-.12,1.41-.17a2,2,0,0,1,.76,0,13,13,0,0,0,4.8.46c3.93,0,7.85.22,11.78.42,1.94.1,3.82.45,5.73.61,1.32.11,2.63.28,3.94.33a15.14,15.14,0,0,0,2.69-.18,3.06,3.06,0,0,1,3.07,1.19,23.44,23.44,0,0,0,1.91,2.21,4,4,0,0,1,1.07,3.55,9.39,9.39,0,0,0,0,1.5c0,.37.11.86-.08,1.09a8.71,8.71,0,0,0-1.35,3c-.41,1.21-1.4,1.66-2.32,2.22a7.31,7.31,0,0,1-1.57.56,1.07,1.07,0,0,1-.62.09c-1.68-.61-3.47-.15-5.17-.63a10.7,10.7,0,0,0-2.93-.37c-2.14,0-4.23-.53-6.39-.43-1,.05-2-.47-3.13-.19-.3.08-.66-.18-1-.2-.84-.07-1.68-.11-2.53-.13-.29,0-.59.08-.89.09l-3.57.11c-1.58,0-3.16.12-4.73,0-2-.1-4-.36-6-.51-1.18-.1-2.38-.13-3.56-.16-1.92-.05-3.83,0-5.75-.24-2.1-.22-4.22-.24-6.33-.32-.85,0-1.7.05-2.54,0-1.18-.11-2.35-.32-3.52-.51-.5-.08-1-.32-1.47.08-.06.05-.2.09-.24.06-.92-.78-2-.11-3-.25a20.57,20.57,0,0,0-2.94,0,.62.62,0,0,1-.36-.07c-1.09-.85-2.36-.5-3.58-.56-2.82-.15-5.65-.26-8.47-.55a10.51,10.51,0,0,0-3.54-.1c-.19.05-.42-.07-.62-.11a13.45,13.45,0,0,0-3-.38c-1.36,0-2.72-.23-4.07-.37a15.26,15.26,0,0,0-3.17,0,26.23,26.23,0,0,1-2.89-.25,7.35,7.35,0,0,0-3.28.24,6.17,6.17,0,0,1-2.4.08c-.24,0-.5-.18-.73-.16-1.53.18-3,.41-4.58.58a16.82,16.82,0,0,1-2.13,0c-1.06,0-2.09.18-3.13.21s-2.16.36-3.24.43-2.38.22-3.57.34a.66.66,0,0,0-.25,0c-1.43.72-3,.69-4.53,1.09a19,19,0,0,0-2.52.91,18.06,18.06,0,0,0-3.1,1.49,16.25,16.25,0,0,0-2.53,2.31,1.25,1.25,0,0,0-.37.76,21.12,21.12,0,0,0,.24,8.12c.47,1.8,1.19,3.54,1.81,5.31a13.06,13.06,0,0,0,1,2.75c1.18,1.87,1.56,4.06,2.64,6,.78,1.38,1.46,2.8,2.22,4.19q1.68,3.07,3.4,6.12c.53.93,1.13,1.82,1.64,2.76,1,1.87,1.91,3.82,3.06,5.6.81,1.26,1.36,2.72,2.56,3.73a4.09,4.09,0,0,1,.65,1,38.79,38.79,0,0,1,3.79,6.23,2.08,2.08,0,0,0,.47.61,11.69,11.69,0,0,1,2.72,4.45,1.78,1.78,0,0,0,.45.78c1.62,1.31,2.51,3.18,3.7,4.82q2.54,3.46,5.06,6.95a2.66,2.66,0,0,1,.38.52,17.36,17.36,0,0,0,3.2,4.65c1.52,1.76,2.6,3.81,3.95,5.68,1,1.46,2,3,2.94,4.51q1.78,2.75,3.61,5.46c.4.6.89,1.15,1.3,1.75.81,1.15,1.59,2.32,2.4,3.47.6.83,1.26,1.62,1.86,2.45a10.69,10.69,0,0,1,.75,1.32c.28.53.53,1.07.79,1.61.1.23.28.49.24.7a2.17,2.17,0,0,0,.61,1.88,1,1,0,0,1,.24.58c0,1.78,0,3.56,0,5.34a17.61,17.61,0,0,1-.08,1.92c0,.27-.15.7-.34.77-1.23.47-1.83,1.65-2.84,2.36a2.43,2.43,0,0,1-1.88.58,2,2,0,0,0-.71.11,5.51,5.51,0,0,1-4.51-.83,1.29,1.29,0,0,1-.44-.46,17.84,17.84,0,0,0-1.61-2.72c-1.38-2-2.47-4.2-3.75-6.27a17.47,17.47,0,0,0-1.88-2.26c-.57-.64-1.18-1.23-1.77-1.85a23.57,23.57,0,0,1-2.24-2.46,35,35,0,0,1-1.9-3.33,3.57,3.57,0,0,0-.33-.68c-.93-1-1.84-2.11-2.86-3.08a12.92,12.92,0,0,1-3-3.94c-.19-.44-.7-.71-1-1.11-1.49-1.91-2.91-3.88-4.45-5.75a32.24,32.24,0,0,0-2.42-2.24c-.87-.88-1.64-1.87-2.53-2.72-1.32-1.27-2.19-3-3.93-3.83-.14-.07-.34-.2-.37-.33-.34-1.65-1.64-2.73-2.65-3.85s-1.82-2.56-2.94-3.69a18.07,18.07,0,0,1-1.54-2.33c-.39-.55-.88-1-1.3-1.56a1.44,1.44,0,0,1-.3-.65,2.81,2.81,0,0,0-1.23-1.88c-1.43-1-2.22-2.54-3.35-4-.64.07-1.06-.29-1.49-1a28,28,0,0,0-2.61-3.28c-.43-.52-.86-1-1.33-1.53s-1.14-1.11-1.72-1.66c-1.47-1.41-3-2.76-4.41-4.25a20.58,20.58,0,0,0-2.86-2.58c-.37-.27-.63-.7-1-1a6.25,6.25,0,0,0-1.95-1.17,6.37,6.37,0,0,1-1.7-.75,8.36,8.36,0,0,0-5.6-.73,24.78,24.78,0,0,0-7,2.72c-.57.28-1.19.46-1.77.72-1,.46-2.07,1-3.15,1.4-1.39.5-2.53,1.49-4,2a7.18,7.18,0,0,0-1.78,1.34,20.85,20.85,0,0,1-2.94,2.23,14.47,14.47,0,0,0-2.32,2,12.08,12.08,0,0,1-1.53,1.13c-1.4.87-2.38,2.22-3.68,3.21-.59.44-1.18.9-1.73,1.4s-1.14,1.15-1.72,1.71c-1,.92-1.93,1.8-2.87,2.73a12.88,12.88,0,0,1-1.83,1.92,26.62,26.62,0,0,0-2.54,2.43c-.32.27-.74.55-.85.91-.21.66-.43,1.16-1.18,1.34-.19.05-.29.49-.44.74a10.21,10.21,0,0,1-1.7,2.2,7.06,7.06,0,0,0-2.1,2.34,3.35,3.35,0,0,1-.76.85c-1,1-2.13,2-3.09,3.15a30.79,30.79,0,0,1-3.42,3.23,8.75,8.75,0,0,0-2.15,2c-.17.29-.66.38-.93.64-1.68,1.61-3.33,3.24-5,4.87a1.38,1.38,0,0,0-.27.27c-1.09,1.95-2.91,3-4.85,3.87a7.6,7.6,0,0,0-1.21.87,23.66,23.66,0,0,0-3,.24,2.37,2.37,0,0,1-2-.51,8.1,8.1,0,0,1-3.22-6.39,3.59,3.59,0,0,1,.27-1,4.41,4.41,0,0,0,.21-1,3.87,3.87,0,0,1,1.06-2.76c.6-.66,1-1.36.26-2.26a4.37,4.37,0,0,1-.78-1.69,1.66,1.66,0,0,1,.15-1.22c.51-.78.41-1.35-.43-1.8a10.21,10.21,0,0,1,.79-1.69,1.34,1.34,0,0,0,0-1.77l1.07-1.92c.11-.19.17-.45.33-.55,1.37-.83,1.85-2.39,2.9-3.48.5-.52.92-1.11,1.39-1.66a2.94,2.94,0,0,1,.69-.75,9,9,0,0,0,3.33-3.62,3.76,3.76,0,0,1,1.08-1.26c1.77-1.22,2.75-3.24,4.45-4.46,2.64-1.9,4.43-4.61,6.86-6.71a76.11,76.11,0,0,0,5.56-5.21,23.67,23.67,0,0,1,3-2.5c.4-.31.67-.77,1-1.1,1.31-1.17,2.66-2.28,4-3.46s2.74-2.55,4.09-3.85c1-1,2.12-2,3.08-3.07,1.13-1.25,2.15-2.6,3.2-3.92s2.08-2.57,3-3.91a23.45,23.45,0,0,1,1.47-2.5,29,29,0,0,0,2.08-3.38,8.57,8.57,0,0,0,1-1.7c.79-1.94,1.45-3.93,2.2-5.88a2.85,2.85,0,0,0,.07-2,2.1,2.1,0,0,1,.18-2,1.72,1.72,0,0,0,0-1.95c-.7-.87-.59-1.86-.76-2.8a4.67,4.67,0,0,0-.82-2.48,2,2,0,0,1-.28-1.23,1.69,1.69,0,0,0-1.24-1.73,1.86,1.86,0,0,1-1.27-1.44,2.56,2.56,0,0,0-1.52-1.92,8.89,8.89,0,0,1-1.72-1.45,21.88,21.88,0,0,0-2.25-1.85,8.33,8.33,0,0,1-2-1.71,8,8,0,0,0-3.18-1.8c-1-.42-2-.61-3-1a15.18,15.18,0,0,1-3-1.33,45.58,45.58,0,0,0-4.81-2.64,2.51,2.51,0,0,1-.63-.43,1.57,1.57,0,0,0-1.36-.41,3.54,3.54,0,0,1-2.16-.61c-.87-.66-1.83-.54-2.75-.72-1.24-.24-2.51-.36-3.76-.55-.55-.09-1.08-.26-1.63-.36-.79-.14-1.6-.21-2.38-.39-2-.46-4-.94-6-1.46-1-.27-2-.68-3-1-.69-.2-1.4-.32-2.2-.5-.81.77-1.78.16-2.72.07s-2-.31-3-.48a1.32,1.32,0,0,1-.49-.14c-1.36-.78-2.89-.71-4.38-.85-.77-.08-1.52-.25-2.28-.37-.42-.07-.84-.13-1.25-.16a26.82,26.82,0,0,1-5.33-.94c-.08,0-.19-.1-.23-.08-1.15.75-2.07-.34-3.13-.4a31.67,31.67,0,0,1-3.22-.73c-1-.17-2.11-.19-3.17-.28-.26,0-.56.08-.76,0-1.66-.89-3.71-.57-5.27-1.77a3.36,3.36,0,0,0-1.2-.29c-.86-.19-1.73-.33-2.57-.58s-1.59-.63-2.4-.9a2.22,2.22,0,0,1-1.49-1.65c-.24-1-1.11-1.85-1-3-1.11-.89-.44-1.87-.25-2.9a10.38,10.38,0,0,0,.38-3.26,4.21,4.21,0,0,1,1.43-3.27,18,18,0,0,1,1.51-1.39,2.23,2.23,0,0,1,1.85-.34,3,3,0,0,0,2.78-.78c.1,0,.29,0,.34.12.77,1.39,2.17,1.64,3.53,1.95l4.74,1.08c.29.06.63.2.87.1,1.13-.41,2.08.14,3.1.44a26.56,26.56,0,0,0,3.32.74c1.69.27,3.39.41,5.07.67.89.14,1.75.44,2.62.62,1.51.31,3,.59,4.53.89,2.22.46,4.44.91,6.66,1.39,3,.65,6,1.33,9,2,2.38.5,4.76,1,7.15,1.41,1.23.23,2.48.4,3.72.59.13,0,.31,0,.38,0,.71.81,1.79.73,2.68,1.12a3.57,3.57,0,0,0,1.6.17c2.12-.19,4.25-.6,6.37-.61a21.28,21.28,0,0,1,4.84.28,41.54,41.54,0,0,0,4.57.65,24.9,24.9,0,0,0,6.34.14c2.19-.34,4.43-.34,6.63-.63a8.69,8.69,0,0,0,1.7-.5c1.39-.51,2.94-.67,4.14-1.69.18-.15.57,0,.83-.13.51-.17,1.17-.26,1.47-.63a4.53,4.53,0,0,1,1.78-1.41,1,1,0,0,0,.65-1,4,4,0,0,1,.19-1.77,5.47,5.47,0,0,0,1-3.68c.79-1.22.39-2.6.37-3.87a16.57,16.57,0,0,1,.24-2.91,13.85,13.85,0,0,0-.1-4.31c0-.17-.13-.4-.06-.49.59-.77,0-1.37-.27-2a3.21,3.21,0,0,1-.29-1.69,11.5,11.5,0,0,0-.37-2.88,3.91,3.91,0,0,1-.16-2.27.46.46,0,0,0,0-.36c-.79-1.33-.55-2.9-1.07-4.3A11.63,11.63,0,0,1,150.83,113.05Z"/><path class="cls-1" d="M280.07,203.51c.11,0,11.67,1.05,14.51,1.18a25.24,25.24,0,0,1,6.11.7c.77.22,1.61.21,2.41.36,1.8.33,3.62.61,5.39,1.08a6.54,6.54,0,0,1,3.34,1.73,6.82,6.82,0,0,0,2.51,1.9,3.56,3.56,0,0,1,1.89,2.27c.27.82-.28,1.46-.55,2.16a5.66,5.66,0,0,1-.59,1.08c-.14.21-.31.51-.51.56-1,.23-1.16,1.14-1.68,1.77a17.73,17.73,0,0,1-2.41,2.56,3.48,3.48,0,0,1-1.95.5,14.19,14.19,0,0,1-2.68-.22,4.85,4.85,0,0,1-1.27-.64c-.37.07-.91.15-1.45.27a3.79,3.79,0,0,1-2-.22,19.57,19.57,0,0,0-3.27-.53,6.07,6.07,0,0,1-1.75-.24,2.76,2.76,0,0,0-2-.13,8.43,8.43,0,0,1-3.32,0c-1.22-.22-2.45-.47-3.68-.59-1.07-.1-2.15,0-3.23,0-1.83-.09-3.67-.24-5.5-.36a11.34,11.34,0,0,0-1.53-.1,7.67,7.67,0,0,1-3.3-.28.59.59,0,0,0-.25-.05c-1.68.36-3.29-.37-4.94-.34-1.24,0-2.49.18-3.72.12a32.75,32.75,0,0,1-3.4-.49,3.52,3.52,0,0,0-1.25-.17,9.53,9.53,0,0,1-2.66.15c-1.05,0-2.11.15-3.16.17-1.39,0-2.8.07-4.19,0a14.3,14.3,0,0,1-2.36-.53c-.2-.05-.42-.2-.59-.16-1.86.44-3.71-.42-5.56-.06-1.17-.59-2.52-.17-3.73-.66-.42-.16-1,.05-1.48.05-.69,0-1.29-.48-2.09-.16-.32.13-.93-.47-1.37-.72l-3.79.31a2.2,2.2,0,0,0,0,.85,6.31,6.31,0,0,0,.82,1.59c1.85,2.44,3.74,4.86,5.63,7.27.91,1.17,1.84,2.33,2.77,3.49s2,2.52,3.07,3.76c1.7,2,3.48,4,5.13,6.09,1.06,1.33,1.79,2.94,2.94,4.17.89.94,1.12,2.21,2.08,3.12a14.64,14.64,0,0,1,1.9,3c.63,1,1.31,2,1.95,3,.15.23.2.53.35.76a57.74,57.74,0,0,0,3.81,5.87c.61.77,1,1.76,1.58,2.58.73,1,1.35,2,2,3.06,1.18,1.83,2.35,3.67,3.54,5.5.61.93,1.24,1.85,1.88,2.76.76,1.09,1.53,2.16,2.3,3.24a3,3,0,0,1,.24,3.05,27.57,27.57,0,0,0-1.64,4.42,2.24,2.24,0,0,1-.59,1,18.8,18.8,0,0,0-2.56,3,2.49,2.49,0,0,1-1.66,1c-1.48.08-3.06.12-4.3-.88a6.37,6.37,0,0,1-1.14-1.79c-.57-1-1.06-2-1.69-3-1.15-1.74-2.41-3.41-3.57-5.15-.54-.81-.89-1.74-1.41-2.56-1.22-1.9-2.49-3.77-3.74-5.65a13.19,13.19,0,0,0-1.46-2.23,18.49,18.49,0,0,1-2.23-3.43c-.57-.9-1.09-1.83-1.61-2.76-1-1.79-2-3.59-3-5.37a35.12,35.12,0,0,0-2.14-3.47c-1-1.37-2.27-2.56-3.23-4-1.25-1.8-2.83-3.3-4.2-5-1.6-2-3.43-3.81-5.13-5.73-.79-.89-1.54-1.82-2.25-2.77a39.74,39.74,0,0,0-3.38-4.5c-.92-.92-1.43-2.09-2.34-3a19,19,0,0,1-1.53-2c-.44-.58-.9-1.14-1.34-1.73a17.51,17.51,0,0,1-2.41-4.64,1.43,1.43,0,0,0-.41-.61,4.12,4.12,0,0,1-1.29-2,6.94,6.94,0,0,0-1.19-2.08,6.5,6.5,0,0,1-1.31-4.69,24.34,24.34,0,0,1,.58-3.25c0-.16.07-.33.11-.5.26-.94,1.3-1.29,1.59-2.35.23-.84,1.22-1.5,1.94-2.17a4.7,4.7,0,0,1,2.9-.94,27.23,27.23,0,0,1,6.12.11c1.48.2,3,.38,4.46.47.33,0,.67,0,1,0s.47-.13.63,0c1.73.86,3.6.53,5.4.7,1,.09,2,.16,2.94.23l7.14.51c1.87.14,3.73.35,5.6.47,2.26.15,4.52.26,6.78.36a23.23,23.23,0,0,1,4.7.37,7.53,7.53,0,0,0,2.68.1,19.44,19.44,0,0,1,3.82.3c1,.07,2,.09,2.95.16,1.19.08,2.39.15,3.58.3C274.2,204.18,280.12,203,280.07,203.51Z"/><path class="cls-1" d="M117.35,102.88a1.47,1.47,0,0,1-.81-1.47c-1-1.16-1.19-2.72-1.84-4a15.68,15.68,0,0,0-1.21-1.94c-.3-.45-.77-.79-.7-1.45,0-.16-.19-.36-.31-.52s-.27-.16-.28-.26c-.16-1.48-1.56-2.17-2.15-3.38a5.81,5.81,0,0,0-1-1.14c-.11-.12-.3-.23-.33-.36a7.51,7.51,0,0,0-1.26-2.47,17.58,17.58,0,0,0-1.55-2.31,19.82,19.82,0,0,1-1.55-2.6,4.47,4.47,0,0,0-.51-.72,43.27,43.27,0,0,1-4.19-4.83,8.18,8.18,0,0,1-.93-7.64.32.32,0,0,1,.13-.15c1.28-.9,1.86-2.57,3.49-3.09a2.36,2.36,0,0,0,1-.58,2.53,2.53,0,0,1,2.63-.51c1.46.32,2.94.58,4.38,1a2.87,2.87,0,0,1,2,1.65c.2.52.37,1,.53,1.58.31,1,.58,2,.9,3a4.07,4.07,0,0,0,.45.94c1.5,2.33,3.06,4.63,4.54,7,1.12,1.8,2.18,3.64,3.21,5.5s1.86,3.82,3,5.62a23.88,23.88,0,0,1,2.27,4.86c.16.44.45.82.65,1.25.56,1.22,1.12,2.44,1.65,3.67.83,2,1.69,3.93,2.45,5.93.66,1.71,1.18,3.48,1.76,5.22.69,2.06,1.41,4.13,2.07,6.2s1.29,4,1.79,6c.26,1.06.1,2.22.35,3.28.35,1.45.88,2.85,1.36,4.27.22.64.57,1.25.73,1.9a7.39,7.39,0,0,0,.77,2.15,2,2,0,0,1-.57,2.64,6.25,6.25,0,0,0-1,1.16,3.35,3.35,0,0,1-1.34,1.5c-.24.11-.39.44-.6.65a1.78,1.78,0,0,1-.56.47,8,8,0,0,0-2.8,1.62s-.07.07-.11.07c-1.16,0-2.2.86-3.43.49a3.9,3.9,0,0,0-.84,0c-.2,0-.51.07-.59,0-.49-.59-1.17-.39-1.77-.51-2.16-.41-4.41-.44-6.42-1.53a1.82,1.82,0,0,0-1-.22,7.56,7.56,0,0,1-3.56-.58c-.84-.35-1.67-1.05-2.75-.77-.23.06-.54-.22-.82-.32a2.8,2.8,0,0,0-1.87-.27,1.5,1.5,0,0,1-1-.07,9.22,9.22,0,0,0-4.25-.61,3.58,3.58,0,0,1-1-.15c-2-.45-4.06-.93-6.11-1.35-2.46-.5-4.93-.9-7.39-1.41-1.35-.28-2.65-.85-4-1-.89-.1-1.75-.38-2.65-.41a6.83,6.83,0,0,1-1.26-.18c-1.7-.39-3.39-.88-5.1-1.19-1.55-.29-3.15-.34-4.71-.58-1.05-.15-2.08-.46-3.12-.7-.74-.17-1.47-.4-2.22-.5-2.2-.31-4.41-.59-6.61-.85a10.49,10.49,0,0,1-3.43-.86,2.71,2.71,0,0,0-1.5-.26,3,3,0,0,1-2.79-1.26,3.43,3.43,0,0,1-.91-3c.19-1,.06-2,.22-2.94a3.54,3.54,0,0,1,2-2.69,13.83,13.83,0,0,0,2.28-1.64,4.78,4.78,0,0,1,3.1-1.26,13.72,13.72,0,0,1,4,.53,11.93,11.93,0,0,0,2.53.41,50.55,50.55,0,0,1,7.2,1.39c3.5.8,7,1.65,10.52,2.3,3.33.61,6.58,1.53,9.9,2.18,1.93.38,3.88.68,5.8,1.1,2.14.47,4.25,1,6.37,1.58a44.34,44.34,0,0,0,7.07,1.15c1.06.1,2.11.31,3.16.51,1.63.3,3.25.67,4.88,1a19,19,0,0,1,2,.51,1.07,1.07,0,0,0,1.37-.26,2.19,2.19,0,0,1-.42-2.17,6.53,6.53,0,0,0-.18-1.78c-.06-.58-.07-1.16-.09-1.74,0-.13,0-.34,0-.36-.83-.38.21-1.38-.59-1.78a.42.42,0,0,1-.22-.3c0-1.77-1.65-2.93-1.77-4.74-.07-.92-.9-1.79-1.36-2.7a1.48,1.48,0,0,1-.27-.81,3.6,3.6,0,0,0-.58-2.3c-.59-1.31-1.06-2.69-1.58-4-.09-.24-.16-.49-.23-.73C117.74,104.27,117.58,103.69,117.35,102.88Z"/><path class="cls-1" d="M56,251.29c-.67-1.51,0-2.69,2-3.27a1.79,1.79,0,0,1,1.82-2.09c.23,0,.44-.23.67-.35a6.89,6.89,0,0,1,1.88-.67,7.17,7.17,0,0,0,2.72-1.32,18.31,18.31,0,0,0,2-2.14,13,13,0,0,1,1.34-1.12,27.93,27.93,0,0,0,4.4-4.43c1.22-1.46,2.63-2.76,3.94-4.15a16.81,16.81,0,0,0,1.15-1.38c.78-1,1.72-1.9,2.53-2.86,1-1.12,2.19-1.91,3.07-3.12a42.51,42.51,0,0,1,3.76-3.84c1.33-1.42,2.59-2.91,3.88-4.37l.51-.57c1.63-1.8,3.29-3.57,4.89-5.4a12.91,12.91,0,0,0,1.11-1.83,2.78,2.78,0,0,1,.35-.52,22.5,22.5,0,0,0,1.61-1.63q2.13-2.73,4.16-5.53c.79-1.1,1.48-2.26,2.31-3.55-1-.38-1.81-.75-2.68-1.06-.67-.25-1.4-.39-2.06-.68a10.51,10.51,0,0,0-2.71-.65,32.09,32.09,0,0,1-3.55-.95,20.27,20.27,0,0,1-4.67-2,8,8,0,0,0-2.33-.55c-.17,0-.35,0-.51-.08l-5.74-2a2.07,2.07,0,0,0-.61-.12,12.51,12.51,0,0,1-3.55-.71,9.72,9.72,0,0,0-3.37-.4,3.9,3.9,0,0,1-2.17-.44,4,4,0,0,0-2.21-.48c-1.66,0-3.33-.12-5-.29-.8-.08-1.69.11-2.36-.55-2-.12-3.84-1.07-5.86-1.13a.78.78,0,0,1-.49-.1c-1.09-.91-2.4-.57-3.63-.72a8.11,8.11,0,0,1-1.58-.45c-.8-.27-1.59-.58-2.39-.83a2.44,2.44,0,0,0-.76,0c-.22,0-.48.1-.63,0-1.13-.65-2.43-.4-3.62-.73a4.07,4.07,0,0,1-3.25-4.64,2,2,0,0,0,0-.64A4.9,4.9,0,0,1,41,173c.74-1.19,1.44-2.53,2.82-3.15a3.16,3.16,0,0,1,2.72.09,21.38,21.38,0,0,0,3.88,1.17c1.88.51,3.82.79,5.71,1.23,1.41.32,2.79.77,4.19,1.12,1.09.26,2.22.4,3.3.68,1.92.51,3.89.65,5.82,1.06s3.9.59,5.84.93c1.38.23,2.73.58,4.1.82.45.08,1-.14,1.39,0,1.24.25,2.46.6,3.69.91a2.42,2.42,0,0,0,.5.12c1.61-.08,3.1.55,4.65.82a16.51,16.51,0,0,1,2,.65c2,.65,4,1.37,6.09,1.92a21,21,0,0,0,4.75.92,14.47,14.47,0,0,1,3.39.73,17.47,17.47,0,0,1,4.79,2c1.72,1.09,3.73,1.58,5.57,2.43a28.41,28.41,0,0,1,2.84,1.7c.17.11.28.35.47.43,1.28.51,1.33,1.51,1.09,2.64a1.75,1.75,0,0,0-.12.88,4.17,4.17,0,0,1-.26,3,7.62,7.62,0,0,1-1,2c-1.36,1.91-2.18,4.14-3.68,6-.67.81-1,1.86-1.63,2.72-.74,1.05-1.45,2.12-2.19,3.14a36.49,36.49,0,0,0-2.61,3.59c-.06.11-.16.27-.26.28-1,.16-1.26,1.14-1.8,1.8-1,1.25-2,2.49-3.09,3.72a4.84,4.84,0,0,1-.78.64c-.17.13-.48.19-.52.34-.45,1.63-2.07,2.43-2.69,4-.22.53-.93.83-1.38,1.28q-2.4,2.37-4.79,4.77c-.45.46-.85,1-1.3,1.42-1.16,1.19-2.34,2.37-3.52,3.55l-.08.1c-.68,1.46-2.06,2.29-3.08,3.44-.79.89-1.58,1.78-2.4,2.65-1,1-2,2-3,3.09-.4.43-.69,1-1.07,1.43s-.61.8-1,.92a2.47,2.47,0,0,0-1.3,1.16,3.17,3.17,0,0,1-.79,1c-.76.46-1.56.72-1.89,1.77-.16.52-1,.84-1.51,1.26a20.88,20.88,0,0,1-2.09,1.63,18.29,18.29,0,0,0-2.12,1.83,1.94,1.94,0,0,1-.57.3A40.5,40.5,0,0,0,64.36,258a3,3,0,0,1-1.34.35c-.55,0-1.11-.17-1.57.28-1.13-.36-2.35.15-3.47-.37a2.62,2.62,0,0,1-1.58-1.56c-.14-.42-.77-.76-.77-1.14,0-.77-.35-1.47-.39-2.17A5.94,5.94,0,0,1,56,251.29Z"/><path class="cls-1" d="M201.26,118.24a10.69,10.69,0,0,0-1.47-.17,3.56,3.56,0,0,1-3-1.55,13.91,13.91,0,0,1-1.43-3.2,5.7,5.7,0,0,0-1.1-1.87,3,3,0,0,1-.84-2.64c-1.35-.2-1.12-1.42-1.43-2.29-.17-.48-.14-1-.66-1.31a.77.77,0,0,1-.21-.31c-1-2.35-2.62-4.38-3.79-6.65-.51-1-.93-2.06-1.42-3.08s-1-2-1.5-3c-1-2.21-2-4.44-3-6.66a1.2,1.2,0,0,0-.17-.34c-1.2-1.49-1.66-3.36-2.56-5a15.09,15.09,0,0,1-.95-2.64,11.66,11.66,0,0,0-1.49-2.81,31.06,31.06,0,0,1-2-3.75c-.54-1.12-.95-2.29-1.48-3.4-1.3-2.69-2.51-5.44-4-8a95,95,0,0,0-5.67-9.43,5.66,5.66,0,0,1-.52-2.21c-.11-.58-.17-1.18-.26-1.77a2.25,2.25,0,0,1,.87-2.49,6.26,6.26,0,0,0,1.44-1.42,3.07,3.07,0,0,1,1.5-.88c1.9-.75,3.3,0,4.6,1.3.55.53,1.13,1,1.7,1.55a2,2,0,0,1,.37.35c.93,1.47,2.31,2.63,3,4.28.2.46.61.82.84,1.27.53,1.05,1.47,1.91,1.51,3.2,0,.19.21.37.31.56,1.1,2.12,2.31,4.19,3.27,6.37,1.11,2.52,2.52,4.92,3.2,7.62a5.91,5.91,0,0,0,.75,1.3,27.35,27.35,0,0,1,1.91,3.47c.5,1.24,1.35,2.37,1.41,3.78a1.52,1.52,0,0,0,.22.59c1,1.7,1.9,3.39,2.84,5.09.41.74.82,1.49,1.19,2.25a2.07,2.07,0,0,1,0,.62c0,.2,0,.52.08.59.93.63.91,1.81,1.54,2.61.17.21.16.56.24.84s0,.5.17.6c1.22.9,1.29,2.46,2,3.63a23.44,23.44,0,0,1,1.88,3.62,32.8,32.8,0,0,0,2.11,4.08c.65,1.07,1.14,2.24,1.7,3.36a9.13,9.13,0,0,0,.56,1,1.39,1.39,0,0,0,2.1.33c.48-.38.86-.89,1.36-1.25s1-.48,1.49-.76a4.79,4.79,0,0,0,.87-.75c1.09-1.08,2.12-2.23,3.27-3.23s2.41-1.77,3.55-2.74c2.1-1.8,4.15-3.67,6.22-5.52a3.91,3.91,0,0,1,.59-.5c1.34-.7,2.25-1.93,3.46-2.78.91-.64,1.82-1.28,2.67-2,1.25-1,2.41-2.18,3.68-3.2a44.64,44.64,0,0,1,5.17-4c.91-.53,1.7-1.28,2.6-1.84,2.63-1.64,4.77-3.86,7.15-5.79,1.74-1.4,3.62-2.62,5.38-4a7.18,7.18,0,0,1,2.51-1.27c.73-.15,1.44-.4,2.16-.6a1.57,1.57,0,0,0,.58-.23,3.36,3.36,0,0,1,2.75-.78A4.47,4.47,0,0,1,264,65.77a2.43,2.43,0,0,1,.48,3.31c-.13.24-.06.59-.14.88s-.13.58-.31.67c-1.39.77-1.93,2.27-2.95,3.34a6,6,0,0,1-1.34,1.14,42.42,42.42,0,0,0-7.95,6.29c-.78.74-2.16,1.83-3,2.5-1,.8-2,1.65-3.13,2.37-1.31.87-2.74,1.56-4,2.46a4.33,4.33,0,0,0-2.15,2.55,3.55,3.55,0,0,0-.94.29,19.5,19.5,0,0,0-3.17,2.17c-1.67,1.61-3.65,2.83-5.32,4.44a71.55,71.55,0,0,1-6.89,5.62c-1.31,1-2.61,2-3.93,2.9a22.7,22.7,0,0,0-3.45,3.19,3.81,3.81,0,0,1-.92.67,26,26,0,0,0-4.83,3.53,6,6,0,0,1-3.26,1.87.37.37,0,0,0-.24.09C205.05,117.42,203,117.39,201.26,118.24Z"/><path class="cls-1" d="M260.74,151.87c1.54.39,2.85.74,4.18,1,1.55.35,3.1.67,4.65,1,.28,0,1.46.06,1.42.28.06.05.12.14.19.15,1.14.14,2.29.26,3.43.39.13,0,.3,0,.37.09.66.68,1.55.61,2.39.78,2.3.47,4.59,1,6.88,1.51a10.17,10.17,0,0,0,1.35.17,40.77,40.77,0,0,1,5.14,1,7.2,7.2,0,0,0,3.16.24c.19,0,.51,0,.61.07.71.81,1.73.65,2.61.77,1.47.21,3,.14,4.48.28.7.07,2.26-.24,2.71-.13a10,10,0,0,0,2.35-.2c1.78-.07,3.56-.19,5.33-.38a28.47,28.47,0,0,0,2.85-.63c.34-.07.68-.13,1-.17l4.54-.47a5.6,5.6,0,0,1,2.93.32,3.06,3.06,0,0,0,1.13.21c.73.06,1.46.06,2.18.14.23,0,.59.14.66.3.43,1.13,1.64,1.86,1.49,3.31a6.69,6.69,0,0,1-.9,3.41,5.72,5.72,0,0,0-.49,1.37c-.52.12-1.13.31-1.75.4-1.14.17-2,1-3,1.32a13.74,13.74,0,0,1-3.14.44c-1.46.07-2.92,0-4.37.07a9.5,9.5,0,0,0-1.38.24c-.42.07-.84.16-1.26.21-1.62.17-3.23.35-4.85.49-1.32.11-2.65.18-4,.26-1.75.1-3.5.25-5.26.26a31.25,31.25,0,0,1-3.18-.36,21.91,21.91,0,0,0-2.67-.25,30.32,30.32,0,0,1-5.28-.79c-1.34-.25-2.67-.61-4-.86-.43-.08-.82-.07-1.13-.46a.68.68,0,0,0-.57-.19c-1.53.33-3-.27-4.53-.28-1,0-1.91-.64-2.9-.85-1.57-.34-3-1-4.59-1.37a20.32,20.32,0,0,0-2.93-.17,11.14,11.14,0,0,1-3.51-.67c-.41-.17-.94,0-1.39-.13a16.75,16.75,0,0,0-2.71-.67c-2.23-.08-4.23-1-6.34-1.49a10.23,10.23,0,0,0-3.29-.24c-.74.07-1.54-.2-2.24.36-.16.13-.58,0-.86-.09-.86-.25-1.71-.52-2.56-.81a1,1,0,0,1-.52-.34c-.75-1.19-1.48-2.39-1.07-3.9a5.69,5.69,0,0,0,.09-1,1.54,1.54,0,0,1,.61-1.19,1.45,1.45,0,0,0,.59-1.77.93.93,0,0,1,.56-1.27,4.3,4.3,0,0,1,.57-.28c1.78-.63,2.91-2.07,4.18-3.32,1.07-1,2.11-2.1,3.17-3.16.78-.79,1.55-1.59,2.35-2.36s1.62-1.51,2.41-2.28a6.07,6.07,0,0,0,.49-.72c.19-.28.34-.66.61-.81,1.79-1,2.76-2.76,4.1-4.17s2.12-3.28,3.55-4.64c.09-.09.14-.23.24-.3,2.24-1.58,3.7-4,6-5.56,1.36-1,2.51-2.19,3.83-3.21,1.55-1.2,3.21-2.27,4.78-3.45a41.71,41.71,0,0,1,5.37-3.72c.57-.3.95-.94,1.44-1.41.34-.32.71-.61,1.07-.9a32.62,32.62,0,0,1,3.27-2.62c1.45-.92,2.88-2,4.7-2.14.84-.08,1.67-.3,2.5-.45a.89.89,0,0,1,.51,0,16.61,16.61,0,0,1,2.1,1.18,3.52,3.52,0,0,1,1.21,2c.78,2.64-.86,4.45-2.13,6.36a9.16,9.16,0,0,1-4.21,3.15,16.57,16.57,0,0,0-2.69,1.86c-1.15.8-2.33,1.57-3.5,2.35-1,.69-2.05,1.36-3,2.09-1.61,1.2-3.18,2.45-4.74,3.72-.59.48-1.15,1-1.69,1.52-1.62,1.59-3.27,3.15-4.77,4.84-1.89,2.14-3.64,4.42-5.48,6.61-.63.75-1.36,1.42-2,2.14-.84.88-1.66,1.79-2.51,2.67a14.58,14.58,0,0,1-1.69,1.55A14.4,14.4,0,0,0,260.74,151.87Z"/><path class="cls-1" d="M115.57,306.29c-.68.17-1.45-.61-1.86-1.35a3.87,3.87,0,0,1,.35-4.54,4.18,4.18,0,0,0,.68-2.38,5.23,5.23,0,0,1,.36-1.61,25.86,25.86,0,0,1,3.27-5.14,50.26,50.26,0,0,1,5-5.37c.56-.57,1.37-.9,2-1.42s1.2-1.18,1.79-1.78c0,0,0-.09.07-.11,1.84-.95,2.56-3.06,4.21-4.17,2.28-1.53,4-3.67,6.18-5.32,1.66-1.26,3-2.84,4.63-4.21s3.32-2.75,5-4.12a4.17,4.17,0,0,0,.36-.37,20.77,20.77,0,0,1,4-3.11c1.65-1.11,3.33-2.19,5-3.26a9.7,9.7,0,0,1,1.36-.7A3.35,3.35,0,0,0,159.8,256a1.91,1.91,0,0,1,1.22-.61,7.38,7.38,0,0,0,2.54-1.14,2.36,2.36,0,0,1,2.42-.06c1,.58,1.86,1.49,3.06,1.83.33.1.58.49.85.76.47.49.93,1,1.39,1.5a1.46,1.46,0,0,1,.42.63,4.71,4.71,0,0,0,1.35,2c1.26,1.45,2.55,2.88,3.84,4.31s2.81,3.2,4.32,4.7a39.5,39.5,0,0,1,4.13,4.82c2.53,3.46,4.9,7,7.21,10.65.59.93,1.29,1.79,1.9,2.71.32.5.52,1.08.84,1.58a82.7,82.7,0,0,0,6.5,8.73,76.18,76.18,0,0,1,5.48,8,4.72,4.72,0,0,1,.62,3.75,5.38,5.38,0,0,1-.69,1.32,4,4,0,0,0-.43.74,3.9,3.9,0,0,1-2.58,2.77c-.47.16-.89.28-1.08.79,0,.11-.16.28-.25.28-1.15.06-2.12,1.06-3.35.67-.17-.05-.38-.07-.48-.18-.95-1.11-2.8-1.5-2.75-3.42-.64-.9-1.33-1.76-1.89-2.71-1-1.68-2.36-3.08-3.39-4.75-1.17-1.88-2.05-4-3.53-5.66s-2.41-3.4-3.85-4.93a11,11,0,0,1-1.12-1.85c-.21-.36-.46-.71-.7-1.05s-.42-.54-.6-.82c-.91-1.43-1.82-2.86-2.7-4.3-.22-.36-.31-.8-.52-1.17s-.38-.86-.71-1.05c-1.11-.63-1.32-1.84-1.94-2.78a4,4,0,0,0-1.62-1.69,3.44,3.44,0,0,1-1.08-1.07c-.71-.93-1.35-1.93-2.08-2.84-.53-.66-1.19-1.21-1.76-1.84-1.11-1.23-2.2-2.47-3.28-3.74-.54-.63-1.42-.84-1.91-1.59-.12-.2-.84-.15-1.21,0-1.25.46-2.6.59-3.84,1a6.7,6.7,0,0,0-2.91,1.8c-.65.74-1.59,1.09-2.12,1.92a5.08,5.08,0,0,1-1,1.12c-.53.46-1.12.87-1.69,1.29a2.39,2.39,0,0,1-.56.32c-1.39.56-1.85,2.05-2.91,2.94-.37.31-.79.58-1.2.86-.14.09-.34.12-.45.23-1.05,1.1-2.07,2.23-3.16,3.3-.84.83-1.78,1.55-2.63,2.36-1.27,1.19-2.49,2.44-3.75,3.62-1.07,1-2.19,2-3.28,2.94a1.94,1.94,0,0,0-.33.37,19.65,19.65,0,0,1-4,3.91c-.35.31-.74.5-.87,1a1.15,1.15,0,0,1-.49.56,14.93,14.93,0,0,0-2.63,2A51.29,51.29,0,0,1,115.57,306.29Z"/><path class="cls-1" d="M59,212.42c-.84,0-1.68-.09-2.52-.09-1,0-2,.06-3.05.06-1.18,0-2.33-.26-3.49-.34s-2.21-.79-3.3,0c-.1.07-.29.14-.36.1-1.09-.71-2.43,0-3.52-.61a1.87,1.87,0,0,0-1.6-.07c-.93.3-1.8.42-2.5-.56-.31-.44-.92-.66-1.23-1.1a5.56,5.56,0,0,1-.57-1.51c0-.16,0-.35,0-.5-1-2.49,0-4.5,1.39-6.49.92-1.34,2.34-2,3.61-2.8a2.86,2.86,0,0,1,2.33-.3c1,.25,2,.87,3.09.4a.45.45,0,0,1,.36,0c1.23.89,2.67.71,4.06.82,1.87.16,3.73.52,5.6.56,1.43,0,2.86.64,4.3,0,1.68.34,3.29-.3,4.94-.41.58,0,1.14-.3,1.72-.34a14,14,0,0,1,2,.11c.88.1,1.76.24,2.64.37a.9.9,0,0,1,.48.13,28.8,28.8,0,0,1,2.67,2.5,9,9,0,0,1,1,2c.2.4.42.8.61,1.2a.82.82,0,0,1,.13.49,10.65,10.65,0,0,1-.65,2.34,38.89,38.89,0,0,1-2.69,4.64,16.35,16.35,0,0,0-1.74,2.65c-.78,1.78-2.35,2.91-3.44,4.43-1.49.63-1.85,2.28-2.94,3.27-.53.49-1.05,1-1.54,1.51-.88.93-1.75,1.87-2.59,2.84s-1.68,2-2.56,3a17.4,17.4,0,0,1-1.43,1.28,39.79,39.79,0,0,1-3.67,3.34c-1.23.87-2.36,2.1-4.1,2.06a2.7,2.7,0,0,0-1.09.36,2.08,2.08,0,0,1-3-.87,4.58,4.58,0,0,1-.64-2.4c0-.92,0-1.82.05-2.75a2.53,2.53,0,0,0-.74-1.54c-.44-.48-.34-.8,0-1.2,1.74-1.86,3.5-3.71,5.22-5.59S53.51,220,55,218.2s2.79-3.64,4.18-5.47Z"/><path class="cls-1" d="M299.29,232.28a16.18,16.18,0,0,0,1.75,1.31,5.56,5.56,0,0,0,1.35.32,7.67,7.67,0,0,1,1.73.42c1.33.64,2.6,1.41,3.93,2.06a1.37,1.37,0,0,1,.79,1.36,9,9,0,0,1-.2,2.14,3.08,3.08,0,0,1-1,2,1.16,1.16,0,0,0-.39.64,7.45,7.45,0,0,1-2.85,4.15,4.38,4.38,0,0,1-3.84.9,17,17,0,0,0-2.94-.29,1.66,1.66,0,0,1-.84-.2,3.29,3.29,0,0,0-1.94-.55,11.08,11.08,0,0,1-3.95-1c-1.08-.47-2.24-.73-3.51-1.14a2.46,2.46,0,0,0,.14.69c.85,1.37,1.37,2.9,2.12,4.32.89,1.7,2,3.3,3,4.94l1.65,2.71a.74.74,0,0,1,.1.26c.2,1.21.42,2.42.57,3.64a2.3,2.3,0,0,1-.25,1.1c-.31.69-.68,1.36-1,2-.1,0-3.18,2.43-3.79,2.75a1.8,1.8,0,0,1-2-.23,15.89,15.89,0,0,1-3.49-3.17,36.9,36.9,0,0,0-3.43-3.16l0-.05c-.32-1.26-1.48-1.95-2-3.05a3.88,3.88,0,0,0-.68-.94,27.45,27.45,0,0,1-2.52-3.64c-.91-1.35-1.56-2.91-2.86-4-.06,0-.15-.12-.16-.19-.15-1.25-1.24-2-1.67-3.12a23,23,0,0,0-2-3.83,3.64,3.64,0,0,1-.4-2.59,15,15,0,0,1,.49-1.83.88.88,0,0,0,.08-.49c-.37-1.07.46-1.87.58-2.83a.27.27,0,0,1,.14-.2c1-.39,1.29-1.44,2-2.13.51-.51.9-1.15,1.76-1.13A.66.66,0,0,0,274,230a2,2,0,0,1,1.77-.6c1.4.07,2.81.21,4.21.39,1.57.21,3.13.46,4.69.76,1.89.36,3.79.72,5.63,1.24a8.43,8.43,0,0,0,3.3.19,6.67,6.67,0,0,1,3.52.48A1.8,1.8,0,0,0,299.29,232.28Z"/><path class="cls-1" d="M68.18,102.64l2.07-2.08a1.64,1.64,0,0,1,1.34-.62,1.67,1.67,0,0,0,1.19-.34,1.86,1.86,0,0,1,2.12-.35,52.19,52.19,0,0,0,5.46,1.43c1.53.27,3,.88,4.51,1.08s3.07.72,4.63,1a22.54,22.54,0,0,0,4.85.48c.06,0,.12-.1.23-.2-.72-1-.91-2.34-2-3.17-.3-.23-.36-.76-.56-1.14s-.52-1-.79-1.45c-.06-.11-.18-.21-.2-.32a3.76,3.76,0,0,0-1.33-2.47,13.16,13.16,0,0,1-1.77-2.32,3.42,3.42,0,0,1-.3-.57,3.65,3.65,0,0,0-.5-1c-1.06-1-1.37-2.54-2.28-3.67a4.14,4.14,0,0,1-.49-1.18A7.72,7.72,0,0,0,83.52,84l.27-2.44c.41-.58.94-1.46,1.59-2.24a3.14,3.14,0,0,1,3.24-1.36A6.14,6.14,0,0,1,92,79.59a1.59,1.59,0,0,0,.61.45,4.81,4.81,0,0,1,2,1.73c1.17,1.58,2.43,3.09,3.52,4.72,1.25,1.89,2.48,3.79,3.66,5.73,1,1.6,2.33,4.33,3.13,6,1,2.18,2.11,4.35,3.15,6.53.38.8.73,1.63,1.08,2.45a1.23,1.23,0,0,1,.12.62c-.15,1-.34,2-.53,3a1.19,1.19,0,0,1-.21.59c-1,1-1.66,2.49-3.07,3.17a1.51,1.51,0,0,0-.51.39c-.94,1.17-2.27,1.06-3.56,1.17s-2.69.35-4,.52a1.78,1.78,0,0,1-.85,0,6.73,6.73,0,0,0-2.59-.34,9.43,9.43,0,0,1-2-.19c-1.93-.38-3.84-.82-5.76-1.2-1.07-.2-2.15-.34-3.23-.51a6.36,6.36,0,0,1-.89-.15,23.14,23.14,0,0,0-5-1,9.34,9.34,0,0,1-4-1.62,27.3,27.3,0,0,0-2.74-1.42c-.15-.08-.35-.14-.43-.27a7.46,7.46,0,0,0-2.09-2.1,1,1,0,0,1-.24-1.38,9.27,9.27,0,0,0,.66-1.63,1.43,1.43,0,0,0,0-.62C68.3,103.63,68.22,103,68.18,102.64Z"/><path class="cls-1" d="M212.68,84.33c-.43-.09-.75-.26-1-.19-1.49.41-2.64-.46-3.87-1a2.18,2.18,0,0,1-1.24-1.39c-.44-1.32-1-2.6-1.45-3.9a.39.39,0,0,0-.1-.16c-.89-1-1.81-1.91-2.71-2.87a11.09,11.09,0,0,1-1.14-1.6A28.79,28.79,0,0,0,198,69.55c-1.13-1.28-2.14-2.67-3.16-4s-2-2.74-3-4.15c-1.11-1.65-2.17-3.33-3.2-5a2,2,0,0,1,.09-2.47,2.71,2.71,0,0,0,.59-2.27,21.68,21.68,0,0,1-.24-2.69c-.09-1,.73-1.47,1.29-1.93a14.28,14.28,0,0,1,2.72-1.49.8.8,0,0,1,.38,0,1.2,1.2,0,0,1,.36.13c.69.44,1.7,0,2.24.77s.82,1.38,1.24,2.07c.63,1.06,1.24,2.15,1.92,3.17.45.66,1,1.24,1.52,1.86,2.33,2.9,4.61,5.84,7,8.68a56.36,56.36,0,0,0,4.36,4.52A9.39,9.39,0,0,0,214.26,68a.72.72,0,0,0,1-.32c.38-.51.84-1,1.26-1.45.2-.22.51-.46.52-.71.08-1.2,1-1.73,1.76-2.43,1-1,2.09-1.9,3.14-2.84.06-.06.18-.11.18-.17.24-1.8,2.23-2.41,2.76-4.06.23-.7,1-1.21,1.57-1.81a3.09,3.09,0,0,0,.6-.66,1.89,1.89,0,0,1,1.25-1c.61-.23,1.09-.81,1.69-1.11,1.74-.85,3.45-1,4.89.31a5.3,5.3,0,0,1,1.76,4.36A6.88,6.88,0,0,1,235,60.33c-.52.62-.9,1.36-1.4,2-1.18,1.47-2.35,2.95-3.61,4.36-.8.9-1.76,1.67-2.63,2.53-.52.51-1,1.09-1.47,1.63-1.06,1.17-2.72,3.14-3.72,4.35a22.76,22.76,0,0,0-2.58,3.33,18.2,18.2,0,0,1-3,3.43,1.77,1.77,0,0,1-.93.38A4.26,4.26,0,0,0,212.68,84.33Z"/><path class="cls-1" d="M168.08,319.7a8.46,8.46,0,0,1-2.23-2.57c-.66-1.29-1.52-2.48-2.26-3.74a13.33,13.33,0,0,1-.7-1.48c-.22-.54-.22-1.18-.93-1.44-.2-.07-.27-.5-.41-.75a13.41,13.41,0,0,0-1-1.64c-.46-.59-.81-.55-1.42-.09-1,.73-2,1.34-2.92,2.14-1.16,1-2.54,1.76-3.65,2.92s-2.23,2.63-4,3.05c-.18,0-.3.29-.48.4-.81.52-1.26,1.57-2.48,1.56-.44,0-.84.66-1.33.84-1.16.42-2.36.72-3.62,1.1-.9-1.15-2.37-1.85-2.56-3.62v-.09c.25-1.16.61-2.3.81-3.46a8.65,8.65,0,0,1,2.85-4.86c1-1,2.13-1.84,3.09-2.86a14.78,14.78,0,0,1,1.18-1.42,34.18,34.18,0,0,0,2.66-2.72,1.91,1.91,0,0,1,.47-.43c2-1.09,3.37-2.83,4.93-4.4a9.86,9.86,0,0,1,3.55-2.67,3,3,0,0,0,1.06-.71c1.62-1.56,2.81-1.74,4.82-.69a2.14,2.14,0,0,0,.47.2,4.8,4.8,0,0,1,2.89,2.34c.94,1.47,2.18,2.75,3.12,4.22s1.48,2.9,2.3,4.3,1.78,2.79,2.66,4.19c.13.21.21.46.32.68.7,1.36,1.38,2.72,2.1,4.06.2.36.59.62.81,1s.48,1,.73,1.5c.15.3.28.75.53.83,1.09.38,1.11,1.47,1.57,2.24a1,1,0,0,1-.63,1.47,1.83,1.83,0,0,0-1.21,1.24c-.27,1-1,1.41-1.83,1.84a3,3,0,0,0-1,.57,3.3,3.3,0,0,1-2.12,1.07c-.08,0-.19,0-.25,0-1.41.79-2.64,0-3.85-.5C169.16,322.93,168.12,320.92,168.08,319.7Z"/><path class="cls-1" d="M301.91,137.47c1.43.39,2.61.73,3.8,1,1,.24,1.91.46,2.88.63s1.86.25,2.8.36a4.77,4.77,0,0,1,.76.06,33.2,33.2,0,0,0,5.42,1c.29,0,.58.42.79.7.38.5.65,1.1,1.06,1.56s.3,1.05.27,1.58a2.84,2.84,0,0,1-1.45,2.52c-1.58.91-3.09,2-4.63,2.93a1.67,1.67,0,0,1-.81.3,19.71,19.71,0,0,1-4.34-.14c-1.53-.34-3.11-.46-4.65-.81s-2.87-.83-4.31-1.23a3.12,3.12,0,0,0-1.23-.18,5.54,5.54,0,0,1-2.77-.37,10,10,0,0,0-4.26-.78,5.8,5.8,0,0,1-1.61-.31,2.2,2.2,0,0,0-.74-.14c-1.87.28-2.37-.49-3.24-2.26a4.44,4.44,0,0,1-.41-1.87,3.65,3.65,0,0,1,.39-1.58c.43-.88.94-1.73,1.44-2.58a13.15,13.15,0,0,1,2.91-3.52l.1-.08c2.3-2.8,5.46-4.61,8-7.06,1.62-1.54,3.6-2.44,5.29-3.79.22-.17.64-.36.82-.27a2.49,2.49,0,0,0,2-.11c1.32-.37,2.29.41,3.12,1.15a8.47,8.47,0,0,1,1.61,2.41,2.08,2.08,0,0,1,.12,1.24,9.09,9.09,0,0,1-1.88,4,9.72,9.72,0,0,1-1.87,1.54c-.68.5-1.41.94-2.09,1.44C304.16,135.68,303.15,136.5,301.91,137.47Z"/></svg>