<svg id="Layer_1" data-name="Layer 1" xmlns="http://www.w3.org/2000/svg" viewBox="0 0 373.75 373.75"><defs><style>.cls-1{fill:#c44a0c;}</style></defs><path class="cls-1" d="M155.11,117.33c-.48-.16-.54-.7-.68-1.31-.31-1.33-.81-2.61-1.23-3.91a3.88,3.88,0,0,1-.41-1.46c.18-1.6-.84-3-.81-4.51-1.28-1.72-1.09-4-2.19-5.81a33.83,33.83,0,0,1-2.21-5.57,50.4,50.4,0,0,0-2.35-6.33c-1-1.93-1.58-4-2.63-5.92-.33-.6-.82-1.09-1.18-1.67a13.62,13.62,0,0,1-.89-1.69,26,26,0,0,0-2.84-5,.53.53,0,0,1-.08-.15c-.78-2.65-2.35-5-2.52-7.89a17.43,17.43,0,0,0-.89-3.71,4.37,4.37,0,0,1,.29-3.26,12.16,12.16,0,0,1,3.32-4.31,5.29,5.29,0,0,0,1.11-1c.85-1.17,2.14-1.31,3.39-1.49a2.31,2.31,0,0,1,2.24.57,18.61,18.61,0,0,1,2.83,5.64c.09.59.28,1.16.38,1.75a16.82,16.82,0,0,0,2.89,6.64c.12.18.31.34.35.53.41,2.3,2,4.06,2.84,6.16.54,1.34,1.19,2.63,1.81,3.94.33.72.71,1.42,1,2.15s.55,1.51.83,2.27.45,1.28.72,1.91c.55,1.32,1.13,2.64,1.7,4a4.08,4.08,0,0,0,.48.9,5.07,5.07,0,0,1,.79,1.4,3,3,0,0,0,1.19,1.27,8.49,8.49,0,0,1,1.5,1.12,2.78,2.78,0,0,1,.82,1.31,2.83,2.83,0,0,0,.39.8,24.27,24.27,0,0,1,2.81,5.88,17.91,17.91,0,0,0,1,1.75c.3.56.54,1.15.81,1.72a28.14,28.14,0,0,0,1.57,3.16,14.08,14.08,0,0,1,1,2.86c.21.59.45,1.17.69,1.74a50.75,50.75,0,0,0,2.6,5.35,61,61,0,0,1,2.89,6.74,43.61,43.61,0,0,0,4.21,7.89c.49.71.86,1.49,1.32,2.21a39.2,39.2,0,0,0,2.8,4.23c.83,1,1.55,2.08,2.47,3a25.41,25.41,0,0,0,2.92,2.68,20.79,20.79,0,0,0,3.18,1.65,14.69,14.69,0,0,0,5.36,1.08,5.42,5.42,0,0,0,2-.28c1.37-.52,2.73-1.08,4-1.73,1.1-.55,2.12-1.22,3.15-1.87,1.56-1,3.17-1.89,4.63-3,3.28-2.46,6.78-4.59,10-7.1,2.22-1.72,4.61-3.22,6.8-5,1.75-1.4,3.62-2.68,5.24-4.25a25.65,25.65,0,0,0,2.17-2.68c.13-.16.24-.49.36-.49.83,0,1.17-.79,1.79-1.12a2.79,2.79,0,0,0,1.09-1.19,4.71,4.71,0,0,1,1.58-1.81,5.35,5.35,0,0,1,1.21-.43c.71-2.07,2.47-3.4,4-4.92.5-.51,1.36-.7,1.59-1.54,1.63-.5,2.06-2.28,3.36-3.19a13.83,13.83,0,0,0,2.11-2.53,41.56,41.56,0,0,1,4.33-5,50.05,50.05,0,0,0,4-4.28c1.26-1.36,2.88-2.46,3.7-4.21a8.57,8.57,0,0,1,2.83-2.85c.87-.7,1.8-1.31,2.65-2a5,5,0,0,1,3.62-1.37,3.25,3.25,0,0,0,1.65-.18c1.08-.55,1.78.18,2.58.6A23.1,23.1,0,0,1,285.36,88c.45.92.8,1.89,1.21,2.82.21.5.46,1,.72,1.51a17.37,17.37,0,0,1-.48,2c-.32.88-.73,1.73-1.12,2.59-.1.23-.36.4-.43.63-.71,2.33-2.81,3.34-4.5,4.74-.19.15-.46.21-.67.35-.7.48-1.64.34-2.29,1s-1.25,1-1.87,1.52c-.14.1-.25.27-.41.31-1.85.53-3,2-4.48,3.1s-2.82,1.94-4.16,3a22.61,22.61,0,0,0-2.05,2.1,2.35,2.35,0,0,1-.67.55,4.15,4.15,0,0,0-2,1.54c-.31.49-1.06.68-1.5,1.12a44.69,44.69,0,0,0-4.87,5.76,5.47,5.47,0,0,1-.66.7,7.42,7.42,0,0,0-1.29,1.2,12.13,12.13,0,0,1-2.16,2.36c-.8.76-1.48,1.64-2.25,2.45a8.58,8.58,0,0,1-2.91,2.4,1.45,1.45,0,0,0-.7.66,10.34,10.34,0,0,1-3.51,3.6c-.91.69-1.77,1.44-2.63,2.19-2.17,1.86-4.35,3.7-6.69,5.35a4.28,4.28,0,0,0-.74.84c-.46.54-.74,1.22-1.46,1.56-.38.18-.61.68-.93,1-.71.73-1.43,1.45-2.17,2.15a22.62,22.62,0,0,0-2.38,2.31c-.75,1-1.61,1.83-2.31,2.82A29.36,29.36,0,0,0,221.6,157a12.21,12.21,0,0,0-1.16,6.12,4.24,4.24,0,0,0,1.48,2.61,28.87,28.87,0,0,0,2.78,2.75c3.18,2.71,7.39,3.36,11,5.29A53.19,53.19,0,0,0,248,178.6c6.76,1.7,13.48,1.28,20.32,1.94a121.27,121.27,0,0,0,19.72.54c.47,0,.94-.11,1.41-.16a1.82,1.82,0,0,1,.76,0,12.8,12.8,0,0,0,4.8.46c3.94,0,7.86.23,11.78.43,1.94.09,3.82.44,5.74.6,1.31.11,2.62.29,3.94.33a14.15,14.15,0,0,0,2.68-.18,3.07,3.07,0,0,1,3.07,1.2,24.78,24.78,0,0,0,1.92,2.2,4,4,0,0,1,1.06,3.56,10.58,10.58,0,0,0,0,1.49c0,.37.12.86-.07,1.09a9,9,0,0,0-1.36,3c-.41,1.2-1.4,1.65-2.32,2.21a7.22,7.22,0,0,1-1.56.56,1.13,1.13,0,0,1-.63.1c-1.67-.62-3.47-.16-5.17-.64a10.59,10.59,0,0,0-2.92-.37c-2.14,0-4.23-.53-6.4-.43-1,.05-2-.46-3.13-.18-.29.07-.65-.18-1-.21-.84-.07-1.69-.1-2.53-.13-.3,0-.6.08-.9.09-1.19.05-2.38.09-3.56.11-1.58,0-3.16.12-4.73,0-2-.1-4-.37-6-.52-1.18-.09-2.37-.12-3.56-.15-1.92-.05-3.83-.05-5.74-.25-2.1-.22-4.23-.23-6.34-.32-.84,0-1.7,0-2.54,0-1.18-.11-2.35-.31-3.52-.5-.5-.09-1-.33-1.46.07-.06.05-.21.1-.24.07-.93-.79-2-.11-3-.26a20.43,20.43,0,0,0-2.93,0,.72.72,0,0,1-.37-.06c-1.09-.86-2.36-.51-3.57-.57-2.83-.15-5.66-.25-8.47-.55a10.84,10.84,0,0,0-3.55-.09,1.58,1.58,0,0,1-.62-.12,14,14,0,0,0-3-.38c-1.36,0-2.71-.23-4.07-.36a14.51,14.51,0,0,0-3.16,0c-.94.1-1.93-.26-2.9-.26a7.36,7.36,0,0,0-3.28.24,5.93,5.93,0,0,1-2.39.09c-.25,0-.5-.19-.74-.16-1.53.17-3.05.4-4.58.58a18.74,18.74,0,0,1-2.12,0c-1.06,0-2.1.17-3.14.2s-2.15.36-3.24.44-2.38.22-3.57.33a.74.74,0,0,0-.25,0c-1.42.72-3,.69-4.53,1.09a18.28,18.28,0,0,0-2.51.9,18.93,18.93,0,0,0-3.11,1.49,16.71,16.71,0,0,0-2.53,2.31,1.4,1.4,0,0,0-.37.76,21.52,21.52,0,0,0,.24,8.12c.48,1.81,1.2,3.55,1.81,5.31a12.86,12.86,0,0,0,1,2.75c1.18,1.87,1.57,4.07,2.65,6,.77,1.37,1.46,2.8,2.21,4.18,1.12,2.05,2.26,4.09,3.4,6.13.53.93,1.13,1.82,1.65,2.76,1,1.86,1.9,3.81,3,5.59.81,1.26,1.37,2.72,2.56,3.73a4.31,4.31,0,0,1,.65.95,37.09,37.09,0,0,1,3.79,6.24,2.12,2.12,0,0,0,.48.6A11.93,11.93,0,0,1,213.8,257a1.68,1.68,0,0,0,.44.77c1.62,1.32,2.52,3.18,3.71,4.82q2.52,3.48,5.06,6.95a3.08,3.08,0,0,1,.37.52,17.43,17.43,0,0,0,3.2,4.65c1.52,1.77,2.61,3.81,3.95,5.69,1.05,1.45,2,3,2.94,4.5,1.2,1.83,2.39,3.65,3.61,5.46.4.61.89,1.16,1.31,1.75.81,1.15,1.58,2.33,2.4,3.47.59.83,1.25,1.62,1.85,2.46a10.69,10.69,0,0,1,.75,1.32c.28.53.54,1.07.79,1.61.11.22.29.49.25.7a2.12,2.12,0,0,0,.61,1.87,1.18,1.18,0,0,1,.24.59c0,1.78,0,3.56,0,5.34a17.33,17.33,0,0,1-.08,1.91c0,.28-.15.7-.34.77-1.22.47-1.83,1.65-2.84,2.36a2.4,2.4,0,0,1-1.88.58,2.17,2.17,0,0,0-.7.11,5.49,5.49,0,0,1-4.52-.83,1.21,1.21,0,0,1-.44-.46,16.54,16.54,0,0,0-1.61-2.71c-1.38-2-2.46-4.2-3.75-6.27a16.18,16.18,0,0,0-1.88-2.27c-.56-.64-1.18-1.23-1.76-1.85a24.74,24.74,0,0,1-2.25-2.45,37.55,37.55,0,0,1-1.89-3.33,3.39,3.39,0,0,0-.33-.69c-.94-1-1.85-2.11-2.86-3.08a12.64,12.64,0,0,1-3-3.94c-.2-.43-.71-.71-1-1.1-1.49-1.92-2.91-3.89-4.45-5.76-.69-.84-1.64-1.46-2.41-2.24s-1.64-1.86-2.53-2.72c-1.32-1.27-2.2-3-3.94-3.83-.14-.07-.33-.19-.36-.32-.35-1.65-1.65-2.73-2.66-3.85s-1.82-2.57-2.93-3.69a17.25,17.25,0,0,1-1.55-2.34c-.39-.55-.88-1-1.3-1.55a1.52,1.52,0,0,1-.3-.66,2.77,2.77,0,0,0-1.22-1.88c-1.43-1-2.23-2.54-3.36-4-.63.06-1-.3-1.48-1a27.19,27.19,0,0,0-2.62-3.29c-.43-.52-.86-1-1.33-1.53s-1.14-1.11-1.71-1.66c-1.48-1.41-3-2.75-4.41-4.24a21.17,21.17,0,0,0-2.86-2.58c-.37-.28-.63-.7-1-1a6,6,0,0,0-1.94-1.17,6.6,6.6,0,0,1-1.71-.76,8.39,8.39,0,0,0-5.59-.73,25,25,0,0,0-7,2.73c-.57.28-1.18.46-1.76.71-1.06.46-2.08,1-3.15,1.41-1.4.5-2.54,1.48-4,2a7.13,7.13,0,0,0-1.78,1.33,21.09,21.09,0,0,1-2.94,2.24,13.92,13.92,0,0,0-2.31,2,13.7,13.7,0,0,1-1.53,1.13c-1.41.86-2.39,2.22-3.69,3.2-.59.45-1.17.9-1.72,1.4s-1.14,1.15-1.73,1.71c-.95.92-1.93,1.81-2.87,2.74a12.86,12.86,0,0,1-1.83,1.92,27.76,27.76,0,0,0-2.54,2.42c-.32.27-.73.56-.85.92-.21.65-.42,1.16-1.17,1.34-.2.05-.29.49-.45.73a10.21,10.21,0,0,1-1.7,2.2,7.1,7.1,0,0,0-2.1,2.35,3.29,3.29,0,0,1-.75.84c-1,1.05-2.13,2-3.09,3.16a32.82,32.82,0,0,1-3.43,3.23,8.54,8.54,0,0,0-2.15,2c-.17.29-.66.37-.93.63-1.68,1.61-3.33,3.25-5,4.87a1.43,1.43,0,0,0-.27.28c-1.1,1.94-2.92,3-4.85,3.86a7.68,7.68,0,0,0-1.22.87,22,22,0,0,0-3,.25,2.33,2.33,0,0,1-2-.52,8.08,8.08,0,0,1-3.22-6.39,4.07,4.07,0,0,1,.26-1,3.73,3.73,0,0,0,.21-1A3.86,3.86,0,0,1,89,278.17c.59-.65,1-1.35.25-2.26a4.23,4.23,0,0,1-.77-1.68A1.73,1.73,0,0,1,88.6,273c.51-.78.42-1.35-.43-1.8a11.56,11.56,0,0,1,.79-1.69,1.34,1.34,0,0,0,0-1.77c.37-.66.72-1.29,1.08-1.91.1-.19.16-.46.32-.55,1.38-.83,1.86-2.39,2.9-3.49.5-.52.93-1.11,1.39-1.66a3.31,3.31,0,0,1,.69-.75,8.94,8.94,0,0,0,3.33-3.62,3.64,3.64,0,0,1,1.09-1.25c1.76-1.23,2.74-3.25,4.45-4.47,2.64-1.9,4.43-4.61,6.85-6.7,1.93-1.66,3.81-3.38,5.57-5.22a23.72,23.72,0,0,1,3-2.5c.4-.3.67-.77,1-1.1,1.31-1.16,2.66-2.28,4-3.45s2.73-2.56,4.08-3.86c1.05-1,2.12-2,3.09-3.06,1.12-1.26,2.15-2.6,3.2-3.92s2.07-2.58,3-3.92a25.62,25.62,0,0,1,1.47-2.5,30.48,30.48,0,0,0,2.09-3.38,8.93,8.93,0,0,0,1-1.69c.79-1.94,1.46-3.93,2.2-5.89a2.8,2.8,0,0,0,.07-2,2.12,2.12,0,0,1,.18-2,1.7,1.7,0,0,0,0-1.95c-.7-.87-.58-1.87-.76-2.8a4.68,4.68,0,0,0-.82-2.49,2,2,0,0,1-.28-1.22,1.69,1.69,0,0,0-1.24-1.74,1.87,1.87,0,0,1-1.27-1.44,2.56,2.56,0,0,0-1.51-1.92,8,8,0,0,1-1.72-1.45,21,21,0,0,0-2.26-1.85,8.74,8.74,0,0,1-2-1.71,7.93,7.93,0,0,0-3.17-1.79c-1-.42-2-.62-3-1a15.23,15.23,0,0,1-3-1.34,42.88,42.88,0,0,0-4.81-2.63,2.8,2.8,0,0,1-.63-.43,1.48,1.48,0,0,0-1.35-.41,3.65,3.65,0,0,1-2.17-.62c-.86-.66-1.83-.54-2.75-.72-1.24-.24-2.51-.35-3.76-.55-.55-.08-1.08-.25-1.62-.35-.79-.15-1.6-.22-2.38-.4-2-.46-4-.93-6-1.45-1-.27-2-.68-3-1-.69-.21-1.4-.33-2.2-.51-.8.78-1.78.16-2.72.08s-2-.32-3-.49a1.32,1.32,0,0,1-.48-.13c-1.37-.79-2.9-.71-4.39-.86-.76-.07-1.52-.25-2.28-.37a10.4,10.4,0,0,0-1.25-.15,27.33,27.33,0,0,1-5.32-.94c-.09,0-.2-.11-.24-.08-1.14.74-2.07-.35-3.12-.41a30.44,30.44,0,0,1-3.22-.72c-1-.18-2.12-.2-3.18-.28-.25,0-.56.07-.76,0-1.65-.89-3.7-.57-5.27-1.76a3.16,3.16,0,0,0-1.19-.29c-.86-.2-1.74-.34-2.58-.59s-1.59-.62-2.39-.9a2.19,2.19,0,0,1-1.49-1.64c-.25-1-1.12-1.86-1-3-1.11-.89-.43-1.87-.24-2.89a10.75,10.75,0,0,0,.38-3.26,4.24,4.24,0,0,1,1.42-3.28,20.21,20.21,0,0,1,1.52-1.39,2.2,2.2,0,0,1,1.84-.33,3,3,0,0,0,2.78-.78c.11,0,.29,0,.34.11.77,1.39,2.17,1.64,3.54,2,1.58.36,3.15.73,4.74,1.08a1.68,1.68,0,0,0,.87.11c1.13-.42,2.07.13,3.09.43a23.87,23.87,0,0,0,3.33.74c1.68.27,3.38.42,5.07.68.88.14,1.74.43,2.62.61,1.5.32,3,.59,4.53.9q3.33.68,6.66,1.39c3,.64,6,1.33,9,2,2.37.5,4.76,1,7.14,1.41,1.24.24,2.49.4,3.73.59.12,0,.31,0,.37,0,.71.81,1.8.74,2.68,1.12a3.31,3.31,0,0,0,1.6.17c2.13-.19,4.25-.6,6.37-.6a20.81,20.81,0,0,1,4.85.28,43.7,43.7,0,0,0,4.57.65,25.36,25.36,0,0,0,6.34.13c2.18-.33,4.42-.33,6.62-.63a7.88,7.88,0,0,0,1.7-.5c1.4-.51,2.94-.66,4.14-1.69.18-.15.57,0,.83-.12.51-.17,1.17-.27,1.47-.64a4.55,4.55,0,0,1,1.78-1.4,1,1,0,0,0,.65-1,3.77,3.77,0,0,1,.2-1.76,5.54,5.54,0,0,0,1-3.69c.79-1.21.39-2.59.38-3.86a16.49,16.49,0,0,1,.23-2.91,13.61,13.61,0,0,0-.09-4.32c0-.16-.14-.4-.06-.49.59-.76,0-1.37-.27-2a3.09,3.09,0,0,1-.3-1.69,10.93,10.93,0,0,0-.37-2.87,3.92,3.92,0,0,1-.15-2.27.48.48,0,0,0,0-.37c-.78-1.32-.55-2.89-1.07-4.29A11.08,11.08,0,0,1,155.11,117.33Z"/><path class="cls-1" d="M284.34,207.78c.11,0,11.68,1.05,14.51,1.19a24.64,24.64,0,0,1,6.11.69,23.7,23.7,0,0,0,2.41.36c1.81.33,3.63.62,5.4,1.08a6.57,6.57,0,0,1,3.33,1.74,7.22,7.22,0,0,0,2.51,1.9A3.52,3.52,0,0,1,320.5,217c.27.82-.28,1.46-.54,2.16a6.82,6.82,0,0,1-.6,1.09c-.14.21-.3.5-.5.55-1,.23-1.16,1.14-1.69,1.77a17.8,17.8,0,0,1-2.41,2.57,3.53,3.53,0,0,1-1.94.49,13.51,13.51,0,0,1-2.69-.22,5.06,5.06,0,0,1-1.26-.63c-.37.06-.92.14-1.46.26a3.75,3.75,0,0,1-2-.22,19.85,19.85,0,0,0-3.28-.53,5.53,5.53,0,0,1-1.75-.24,2.76,2.76,0,0,0-2-.13,8.25,8.25,0,0,1-3.32,0c-1.22-.22-2.44-.47-3.68-.59-1.06-.1-2.15,0-3.22,0-1.84-.09-3.67-.23-5.51-.36a11.22,11.22,0,0,0-1.53-.09,7.53,7.53,0,0,1-3.3-.29.44.44,0,0,0-.25,0c-1.68.36-3.28-.37-4.94-.34-1.24,0-2.48.18-3.72.12s-2.27-.33-3.4-.5a3.47,3.47,0,0,0-1.25-.16,9.91,9.91,0,0,1-2.66.14c-1.05,0-2.1.15-3.15.17-1.4,0-2.8.08-4.19,0a13.89,13.89,0,0,1-2.36-.54c-.21,0-.42-.2-.6-.15-1.86.43-3.7-.42-5.56-.07-1.17-.59-2.52-.16-3.73-.65-.41-.17-1,0-1.47,0-.69,0-1.3-.48-2.1-.16-.31.13-.93-.47-1.36-.71l-3.8.31a2.37,2.37,0,0,0,0,.84,6.18,6.18,0,0,0,.81,1.6c1.86,2.44,3.75,4.85,5.63,7.26.92,1.17,1.84,2.34,2.77,3.49s2,2.52,3.07,3.76c1.71,2,3.49,4,5.14,6.1,1.05,1.33,1.78,2.94,2.93,4.16.89,1,1.12,2.22,2.08,3.12a14,14,0,0,1,1.9,3c.64,1,1.32,2,2,2.95.15.23.2.53.34.76a60.85,60.85,0,0,0,3.81,5.88c.62.76,1,1.76,1.58,2.58s1.35,2,2,3.06c1.18,1.83,2.35,3.67,3.54,5.49.61.94,1.25,1.85,1.89,2.77.75,1.08,1.52,2.16,2.29,3.23a3,3,0,0,1,.25,3.06,27.46,27.46,0,0,0-1.64,4.41,2.36,2.36,0,0,1-.6,1,19.25,19.25,0,0,0-2.56,3,2.44,2.44,0,0,1-1.66,1c-1.48.08-3.06.12-4.3-.88a6,6,0,0,1-1.13-1.79c-.57-1-1.06-2-1.69-3-1.16-1.74-2.42-3.41-3.58-5.14-.54-.81-.88-1.74-1.41-2.56-1.22-1.91-2.49-3.77-3.73-5.66a14.28,14.28,0,0,0-1.46-2.23,18.65,18.65,0,0,1-2.24-3.42c-.57-.9-1.08-1.84-1.6-2.77-1-1.78-2-3.59-3-5.37a33.19,33.19,0,0,0-2.14-3.46c-1-1.37-2.26-2.57-3.23-4-1.24-1.81-2.83-3.31-4.19-5-1.61-2-3.44-3.81-5.14-5.73-.79-.89-1.53-1.82-2.25-2.77a40.89,40.89,0,0,0-3.37-4.5c-.93-.92-1.44-2.09-2.35-3a18.91,18.91,0,0,1-1.52-2c-.45-.58-.91-1.14-1.34-1.72a18.16,18.16,0,0,1-2.42-4.64,1.39,1.39,0,0,0-.4-.62,4,4,0,0,1-1.29-2,7.27,7.27,0,0,0-1.2-2.07,6.6,6.6,0,0,1-1.31-4.69,26.05,26.05,0,0,1,.58-3.25c0-.17.07-.34.12-.5.25-1,1.3-1.3,1.59-2.36.22-.83,1.22-1.49,1.93-2.16a4.71,4.71,0,0,1,2.9-.95,27.23,27.23,0,0,1,6.12.12c1.49.19,3,.37,4.46.47.34,0,.67,0,1,0s.46-.12.63,0c1.72.85,3.59.52,5.4.7,1,.09,2,.15,2.93.22l7.14.51c1.87.15,3.74.35,5.61.47,2.26.15,4.52.26,6.78.36a22.44,22.44,0,0,1,4.69.38,7.53,7.53,0,0,0,2.68.09,18.86,18.86,0,0,1,3.83.31c1,.07,2,.09,2.94.15,1.2.09,2.4.15,3.58.3C278.48,208.45,284.4,207.3,284.34,207.78Z"/><path class="cls-1" d="M121.62,107.15a1.44,1.44,0,0,1-.8-1.46c-1-1.16-1.2-2.72-1.85-4.06a14.79,14.79,0,0,0-1.2-1.93c-.31-.45-.78-.8-.71-1.45,0-.17-.19-.36-.31-.53s-.27-.16-.28-.25c-.16-1.48-1.56-2.18-2.15-3.39a5.7,5.7,0,0,0-1-1.13c-.11-.13-.31-.23-.34-.37a7.53,7.53,0,0,0-1.25-2.46,18,18,0,0,0-1.55-2.32,19.88,19.88,0,0,1-1.56-2.6,5.14,5.14,0,0,0-.5-.72,43.51,43.51,0,0,1-4.2-4.83A8.18,8.18,0,0,1,103,72a.33.33,0,0,1,.12-.16c1.28-.89,1.87-2.57,3.49-3.08a2.52,2.52,0,0,0,1-.58,2.52,2.52,0,0,1,2.64-.51c1.46.32,2.94.57,4.37,1a2.82,2.82,0,0,1,2,1.64c.21.52.37,1,.54,1.58.3,1,.57,2,.89,3a4,4,0,0,0,.45.93c1.51,2.33,3.07,4.63,4.54,7,1.13,1.8,2.19,3.64,3.21,5.5s1.87,3.82,3,5.61a25,25,0,0,1,2.28,4.86c.15.44.45.83.64,1.25.56,1.22,1.12,2.44,1.65,3.68.84,2,1.7,3.93,2.46,5.93.65,1.71,1.17,3.47,1.76,5.21.69,2.07,1.4,4.13,2.06,6.21s1.29,4,1.8,6c.26,1,.1,2.21.35,3.27.34,1.45.88,2.86,1.36,4.27.21.65.56,1.25.73,1.9a7.73,7.73,0,0,0,.76,2.16,2,2,0,0,1-.56,2.64,7.06,7.06,0,0,0-1,1.15c-.37.57-.64,1.2-1.33,1.51-.25.11-.39.43-.6.64a1.79,1.79,0,0,1-.57.47,8.18,8.18,0,0,0-2.8,1.62s-.07.08-.1.08c-1.17,0-2.21.85-3.44.49a2.94,2.94,0,0,0-.84,0c-.2,0-.5.07-.59,0-.48-.6-1.16-.4-1.77-.51-2.16-.42-4.41-.45-6.41-1.54a1.94,1.94,0,0,0-1-.22,7.5,7.5,0,0,1-3.57-.58c-.84-.35-1.67-1-2.75-.77-.23.06-.54-.22-.82-.32a2.77,2.77,0,0,0-1.86-.27,1.53,1.53,0,0,1-1-.07,9.17,9.17,0,0,0-4.24-.6,3.86,3.86,0,0,1-1-.15c-2-.45-4.07-.94-6.11-1.35-2.46-.5-4.94-.9-7.4-1.41a41.27,41.27,0,0,0-4-1c-.89-.11-1.75-.38-2.64-.42a7.63,7.63,0,0,1-1.26-.17c-1.71-.4-3.39-.89-5.11-1.2-1.55-.28-3.14-.34-4.7-.57-1.05-.16-2.08-.46-3.12-.7-.74-.17-1.47-.4-2.22-.51-2.21-.31-4.41-.59-6.62-.84a11,11,0,0,1-3.42-.86,2.75,2.75,0,0,0-1.51-.27A2.92,2.92,0,0,1,58,131.65a3.44,3.44,0,0,1-.91-3c.18-1,.06-2,.22-2.95a3.5,3.5,0,0,1,2-2.69,13.94,13.94,0,0,0,2.28-1.63,4.81,4.81,0,0,1,3.1-1.27,14,14,0,0,1,4,.53,11.32,11.32,0,0,0,2.54.41,51.57,51.57,0,0,1,7.19,1.39c3.5.8,7,1.66,10.52,2.3,3.33.61,6.58,1.54,9.9,2.18,1.93.38,3.88.68,5.8,1.11,2.14.47,4.26,1,6.37,1.58a44.51,44.51,0,0,0,7.07,1.14c1.06.1,2.11.31,3.16.51,1.63.31,3.26.67,4.88,1a16.42,16.42,0,0,1,2,.51,1.09,1.09,0,0,0,1.37-.26,2.21,2.21,0,0,1-.43-2.18,6.42,6.42,0,0,0-.18-1.77c0-.58-.06-1.17-.09-1.75,0-.12,0-.33,0-.35-.83-.39.2-1.39-.6-1.78a.47.47,0,0,1-.22-.3c0-1.78-1.64-2.94-1.77-4.74-.06-.93-.89-1.8-1.36-2.71a1.45,1.45,0,0,1-.27-.81,3.55,3.55,0,0,0-.57-2.29c-.6-1.32-1.07-2.69-1.59-4-.09-.24-.16-.48-.23-.73C122,108.55,121.85,108,121.62,107.15Z"/><path class="cls-1" d="M60.26,255.57c-.66-1.51,0-2.7,2-3.28a1.78,1.78,0,0,1,1.82-2.09c.23,0,.44-.23.66-.35a7.77,7.77,0,0,1,1.88-.67,7.21,7.21,0,0,0,2.73-1.32,20,20,0,0,0,2-2.13,11.27,11.27,0,0,1,1.34-1.13,28.36,28.36,0,0,0,4.4-4.43c1.22-1.46,2.63-2.76,3.94-4.14a16.84,16.84,0,0,0,1.14-1.39c.78-1,1.73-1.9,2.54-2.86,1-1.12,2.19-1.9,3.07-3.12a43.66,43.66,0,0,1,3.75-3.83c1.34-1.42,2.6-2.92,3.89-4.38l.5-.57c1.64-1.79,3.3-3.57,4.89-5.4a12.1,12.1,0,0,0,1.12-1.83,2.63,2.63,0,0,1,.35-.52,20.48,20.48,0,0,0,1.6-1.63Q106,207.77,108,205c.79-1.09,1.48-2.26,2.31-3.54-1-.39-1.81-.75-2.67-1.07-.68-.25-1.4-.39-2.06-.67a11.07,11.07,0,0,0-2.71-.66,27.76,27.76,0,0,1-3.55-.95,20.3,20.3,0,0,1-4.67-2,7.94,7.94,0,0,0-2.34-.56,4.17,4.17,0,0,1-.51-.08l-5.73-2a2.62,2.62,0,0,0-.62-.12,12.78,12.78,0,0,1-3.54-.7,9.55,9.55,0,0,0-3.37-.41,3.92,3.92,0,0,1-2.18-.44,4.21,4.21,0,0,0-2.21-.48c-1.66,0-3.33-.12-5-.28-.79-.08-1.69.11-2.36-.56-2-.11-3.84-1.07-5.85-1.12a1,1,0,0,1-.5-.1c-1.08-.92-2.39-.58-3.62-.72a8.23,8.23,0,0,1-1.59-.46c-.8-.27-1.58-.58-2.39-.83a2.45,2.45,0,0,0-.76,0c-.21,0-.47.11-.63,0-1.12-.66-2.42-.41-3.62-.73a4.08,4.08,0,0,1-3.25-4.65,1.73,1.73,0,0,0,0-.64,4.91,4.91,0,0,1,.69-3.93c.74-1.19,1.45-2.53,2.83-3.15a3.17,3.17,0,0,1,2.71.1,20.67,20.67,0,0,0,3.89,1.16c1.87.52,3.81.79,5.71,1.23,1.41.33,2.78.78,4.19,1.12,1.09.27,2.21.4,3.29.69,1.92.5,3.89.65,5.83,1s3.89.6,5.83.93c1.38.24,2.73.59,4.11.83.44.07.94-.14,1.38-.05,1.24.26,2.47.6,3.7.91a1.76,1.76,0,0,0,.49.12c1.62-.08,3.1.56,4.66.83a15.43,15.43,0,0,1,2,.65c2,.65,4,1.37,6.09,1.91a19.89,19.89,0,0,0,4.74.92,15.56,15.56,0,0,1,3.39.73,17.67,17.67,0,0,1,4.8,2c1.71,1.09,3.72,1.59,5.56,2.44a27.23,27.23,0,0,1,2.84,1.69c.18.11.29.36.47.43,1.29.51,1.34,1.51,1.09,2.65-.06.29-.21.63-.11.87a4.24,4.24,0,0,1-.26,3,8.06,8.06,0,0,1-1,2c-1.35,1.91-2.18,4.14-3.68,6-.66.81-1,1.86-1.63,2.73-.74,1-1.44,2.11-2.19,3.14a37.4,37.4,0,0,0-2.61,3.59c-.06.11-.16.26-.26.27-1,.16-1.25,1.14-1.79,1.8q-1.53,1.89-3.1,3.72a4.49,4.49,0,0,1-.78.65c-.17.12-.47.19-.51.34-.45,1.62-2.08,2.43-2.7,4-.21.52-.93.83-1.38,1.27-1.6,1.58-3.2,3.18-4.78,4.78-.45.45-.85,1-1.3,1.42-1.17,1.19-2.35,2.36-3.52,3.55a.39.39,0,0,0-.08.1c-.69,1.45-2.06,2.29-3.09,3.44-.79.88-1.58,1.77-2.39,2.64-1,1-2,2-3,3.09-.4.44-.69,1-1.07,1.44s-.61.8-1,.92a2.4,2.4,0,0,0-1.31,1.15,3.07,3.07,0,0,1-.79,1c-.76.45-1.56.72-1.88,1.76-.17.53-1,.84-1.52,1.26A22.54,22.54,0,0,1,75.17,258a18.16,18.16,0,0,0-2.12,1.83,2.12,2.12,0,0,1-.56.29,43,43,0,0,0-3.86,2.18,2.87,2.87,0,0,1-1.33.35c-.56,0-1.11-.16-1.58.29-1.13-.36-2.35.14-3.47-.38A2.61,2.61,0,0,1,60.67,261c-.14-.43-.76-.76-.77-1.15,0-.77-.35-1.46-.39-2.17A6.24,6.24,0,0,1,60.26,255.57Z"/><path class="cls-1" d="M205.53,122.51a9.18,9.18,0,0,0-1.46-.16,3.56,3.56,0,0,1-3-1.56,13.61,13.61,0,0,1-1.43-3.19,5.8,5.8,0,0,0-1.11-1.87,3,3,0,0,1-.83-2.65c-1.35-.2-1.13-1.42-1.43-2.29-.17-.47-.14-1-.66-1.31a.59.59,0,0,1-.21-.31c-1-2.34-2.63-4.37-3.79-6.64-.52-1-.93-2.07-1.43-3.09s-1-2-1.5-3c-1-2.21-2-4.44-3-6.66a2.21,2.21,0,0,0-.18-.34c-1.2-1.49-1.66-3.36-2.55-5a15.66,15.66,0,0,1-1-2.64A11.66,11.66,0,0,0,180.49,79a31,31,0,0,1-2-3.75c-.53-1.11-.94-2.28-1.48-3.4-1.29-2.69-2.5-5.43-4-8a91.78,91.78,0,0,0-5.66-9.42,5.75,5.75,0,0,1-.53-2.22c-.11-.58-.16-1.17-.25-1.76a2.27,2.27,0,0,1,.86-2.5,6.47,6.47,0,0,0,1.45-1.41,3,3,0,0,1,1.5-.88c1.89-.76,3.3,0,4.6,1.29.54.54,1.13,1,1.69,1.55a1.78,1.78,0,0,1,.37.35c.94,1.48,2.31,2.64,3,4.28.19.46.6.83.83,1.28.54,1.05,1.48,1.9,1.51,3.2,0,.19.22.36.32.55,1.1,2.12,2.3,4.19,3.26,6.37,1.11,2.52,2.52,4.92,3.2,7.63a6.14,6.14,0,0,0,.76,1.29,31,31,0,0,1,1.91,3.47c.5,1.25,1.35,2.37,1.4,3.78a1.48,1.48,0,0,0,.23.59c.94,1.7,1.9,3.39,2.84,5.09.41.75.81,1.49,1.18,2.25.09.17,0,.41,0,.62s0,.52.08.6c.93.63.92,1.8,1.55,2.61a2.36,2.36,0,0,1,.23.84c0,.2,0,.5.17.59,1.23.91,1.29,2.46,2.05,3.63a24.4,24.4,0,0,1,1.87,3.63,32.73,32.73,0,0,0,2.12,4.07c.64,1.08,1.13,2.25,1.7,3.37a8.92,8.92,0,0,0,.55,1,1.39,1.39,0,0,0,2.1.34c.48-.39.87-.9,1.36-1.25s1-.48,1.5-.77a4.62,4.62,0,0,0,.86-.74c1.09-1.08,2.12-2.23,3.27-3.24s2.42-1.77,3.55-2.74c2.11-1.8,4.16-3.67,6.23-5.51a3.13,3.13,0,0,1,.59-.5c1.33-.71,2.24-1.93,3.45-2.79.91-.64,1.82-1.28,2.68-2,1.24-1,2.41-2.18,3.67-3.2a44.39,44.39,0,0,1,5.17-4c.92-.54,1.7-1.29,2.6-1.85,2.63-1.63,4.77-3.86,7.16-5.78,1.73-1.4,3.61-2.63,5.37-4A7.63,7.63,0,0,1,260,70.34c.73-.15,1.44-.39,2.16-.6a1.81,1.81,0,0,0,.59-.22,3.3,3.3,0,0,1,2.74-.79A4.52,4.52,0,0,1,268.25,70a2.45,2.45,0,0,1,.48,3.32c-.14.24-.07.59-.14.88s-.14.57-.32.67c-1.39.76-1.92,2.26-2.95,3.34A6.33,6.33,0,0,1,264,79.39,42,42,0,0,0,256,85.68c-.79.74-2.17,1.83-3,2.49-1,.8-2.05,1.65-3.14,2.38-1.31.86-2.73,1.56-4,2.45a4.43,4.43,0,0,0-2.15,2.55,4.11,4.11,0,0,0-.94.29A19.5,19.5,0,0,0,239.59,98c-1.67,1.62-3.64,2.84-5.32,4.45a70,70,0,0,1-6.89,5.61c-1.31,1-2.6,2-3.92,2.9a23.34,23.34,0,0,0-3.46,3.19,3.43,3.43,0,0,1-.92.68,25.13,25.13,0,0,0-4.82,3.52,5.91,5.91,0,0,1-3.27,1.87.5.5,0,0,0-.24.09C209.32,121.69,207.26,121.67,205.53,122.51Z"/><path class="cls-1" d="M265,156.15c1.53.38,2.85.74,4.18,1,1.54.35,3.09.66,4.65.95.28.05,1.46.05,1.42.28.06.05.11.14.18.14l3.44.4c.12,0,.29,0,.36.08.67.68,1.56.61,2.39.78,2.3.48,4.59,1,6.88,1.51a12.48,12.48,0,0,0,1.35.18,40.9,40.9,0,0,1,5.15.94,7.19,7.19,0,0,0,3.16.25c.19,0,.5,0,.6.06.71.82,1.74.65,2.61.77,1.48.21,3,.15,4.48.29.7.06,2.26-.25,2.72-.13a10.36,10.36,0,0,0,2.34-.2c1.78-.08,3.57-.19,5.34-.39a28.42,28.42,0,0,0,2.85-.62c.33-.07.67-.13,1-.17l4.55-.47a5.46,5.46,0,0,1,2.92.32,3.3,3.3,0,0,0,1.14.21c.72,0,1.45.06,2.17.13.24,0,.6.14.66.31.43,1.12,1.64,1.85,1.49,3.3a6.61,6.61,0,0,1-.9,3.42,5.57,5.57,0,0,0-.49,1.37c-.52.12-1.12.3-1.74.39-1.14.17-2,1-3,1.32a13.22,13.22,0,0,1-3.15.44c-1.45.08-2.91,0-4.37.07a10.61,10.61,0,0,0-1.37.24c-.43.08-.84.16-1.27.21-1.61.17-3.23.35-4.84.49-1.33.12-2.65.18-4,.26-1.75.1-3.5.26-5.25.26a26.45,26.45,0,0,1-3.18-.36,24.27,24.27,0,0,0-2.68-.25,30.06,30.06,0,0,1-5.27-.79c-1.35-.24-2.68-.61-4-.85-.43-.08-.83-.08-1.13-.47a.69.69,0,0,0-.57-.18c-1.54.33-3-.28-4.54-.29a15.26,15.26,0,0,1-2.89-.85c-1.58-.33-3-1-4.6-1.37a21.76,21.76,0,0,0-2.93-.17,10.86,10.86,0,0,1-3.51-.66c-.4-.18-.94,0-1.39-.13a15.77,15.77,0,0,0-2.71-.67c-2.22-.08-4.23-1-6.34-1.49a10.51,10.51,0,0,0-3.29-.25c-.73.07-1.54-.2-2.23.36-.17.13-.59,0-.87-.09-.86-.25-1.71-.52-2.55-.8a1,1,0,0,1-.53-.34c-.74-1.19-1.47-2.39-1.06-3.91a8.41,8.41,0,0,0,.09-1,1.53,1.53,0,0,1,.6-1.19,1.43,1.43,0,0,0,.59-1.77.93.93,0,0,1,.56-1.26,4.48,4.48,0,0,1,.58-.29c1.77-.63,2.9-2.06,4.18-3.31q1.59-1.58,3.16-3.17c.78-.78,1.56-1.58,2.35-2.36s1.62-1.5,2.41-2.28a4.14,4.14,0,0,0,.49-.72c.2-.28.34-.66.61-.8,1.8-1,2.76-2.76,4.1-4.18s2.13-3.27,3.55-4.63c.09-.09.14-.23.24-.3,2.24-1.59,3.7-4,6-5.57,1.36-.94,2.51-2.19,3.83-3.21,1.56-1.2,3.21-2.26,4.78-3.45a42,42,0,0,1,5.37-3.71,8.09,8.09,0,0,0,1.45-1.42c.33-.32.7-.61,1.06-.9a33.8,33.8,0,0,1,3.27-2.62c1.46-.92,2.88-2,4.71-2.14.84-.07,1.66-.3,2.49-.44a.89.89,0,0,1,.51,0,18,18,0,0,1,2.1,1.18,3.47,3.47,0,0,1,1.21,2c.78,2.64-.85,4.46-2.13,6.36a9.09,9.09,0,0,1-4.21,3.15,16.49,16.49,0,0,0-2.68,1.86c-1.16.8-2.34,1.57-3.5,2.36s-2.05,1.35-3,2.09c-1.61,1.19-3.18,2.44-4.73,3.71-.59.48-1.15,1-1.7,1.52-1.62,1.59-3.27,3.15-4.77,4.85-1.89,2.14-3.63,4.41-5.47,6.6-.64.75-1.37,1.42-2.05,2.14-.84.89-1.65,1.8-2.51,2.67a13.66,13.66,0,0,1-1.68,1.55A13.92,13.92,0,0,0,265,156.15Z"/><path class="cls-1" d="M119.84,310.57c-.67.17-1.44-.62-1.85-1.36a3.85,3.85,0,0,1,.34-4.54,4.12,4.12,0,0,0,.68-2.37,5.16,5.16,0,0,1,.36-1.61,26.43,26.43,0,0,1,3.28-5.15,49.26,49.26,0,0,1,5-5.37c.56-.57,1.36-.89,2-1.42s1.2-1.18,1.79-1.78c0,0,0-.08.07-.1,1.84-1,2.56-3.06,4.22-4.18,2.27-1.53,4-3.67,6.18-5.32,1.65-1.26,3-2.84,4.62-4.21s3.33-2.75,5-4.12a3.06,3.06,0,0,0,.35-.37,20.63,20.63,0,0,1,4-3.1c1.65-1.12,3.33-2.19,5-3.26a9.87,9.87,0,0,1,1.37-.71,3.32,3.32,0,0,0,1.81-1.33,2,2,0,0,1,1.23-.61,7.38,7.38,0,0,0,2.54-1.14,2.34,2.34,0,0,1,2.42,0,14.6,14.6,0,0,0,3.05,1.83c.33.09.58.48.85.76.47.49.94,1,1.39,1.49a1.59,1.59,0,0,1,.42.63,4.73,4.73,0,0,0,1.36,2c1.26,1.45,2.54,2.87,3.83,4.3,1.43,1.59,2.82,3.2,4.33,4.7a40.31,40.31,0,0,1,4.12,4.82c2.53,3.47,4.9,7,7.21,10.65.59.93,1.29,1.8,1.9,2.72.33.49.53,1.07.84,1.57a82.92,82.92,0,0,0,6.51,8.74,76,76,0,0,1,5.47,8,4.72,4.72,0,0,1,.62,3.75,5.17,5.17,0,0,1-.68,1.32,4.37,4.37,0,0,0-.44.74,3.92,3.92,0,0,1-2.57,2.78c-.47.15-.9.27-1.09.79,0,.11-.15.27-.24.28-1.15.06-2.12,1.05-3.36.66-.16,0-.37-.07-.47-.18-1-1.11-2.81-1.5-2.76-3.41-.63-.9-1.33-1.77-1.88-2.71-1-1.69-2.36-3.09-3.4-4.76-1.17-1.88-2-3.95-3.53-5.65s-2.41-3.4-3.84-4.93a10.21,10.21,0,0,1-1.12-1.86c-.22-.36-.46-.7-.7-1s-.42-.53-.6-.82c-.91-1.43-1.82-2.86-2.7-4.3-.23-.36-.32-.79-.52-1.17s-.39-.86-.72-1.05c-1.11-.63-1.31-1.84-1.93-2.77a4,4,0,0,0-1.63-1.7,3.13,3.13,0,0,1-1.07-1.07c-.72-.93-1.35-1.92-2.09-2.84-.53-.66-1.19-1.21-1.75-1.84-1.11-1.23-2.21-2.47-3.28-3.73-.55-.64-1.42-.85-1.91-1.6-.13-.19-.84-.15-1.21,0-1.26.46-2.6.6-3.85,1a6.82,6.82,0,0,0-2.91,1.8c-.64.74-1.58,1.1-2.12,1.93a5.22,5.22,0,0,1-1,1.11c-.54.47-1.12.87-1.7,1.3a3,3,0,0,1-.55.32c-1.4.56-1.85,2-2.91,2.93a12.65,12.65,0,0,1-1.21.86c-.14.1-.33.12-.44.24-1.06,1.09-2.08,2.23-3.17,3.3-.83.82-1.77,1.55-2.63,2.36-1.26,1.19-2.48,2.43-3.75,3.62-1.07,1-2.18,2-3.28,2.93a2.37,2.37,0,0,0-.33.38,19.91,19.91,0,0,1-4,3.91c-.35.31-.74.49-.87,1a1.14,1.14,0,0,1-.49.56,14.37,14.37,0,0,0-2.63,2A51.16,51.16,0,0,1,119.84,310.57Z"/><path class="cls-1" d="M63.28,216.69c-.84,0-1.68-.09-2.52-.09-1,0-2,.07-3,.07-1.17,0-2.33-.27-3.49-.35s-2.2-.79-3.3,0c-.1.07-.29.14-.36.09-1.09-.7-2.42,0-3.52-.61a1.9,1.9,0,0,0-1.6-.06,1.92,1.92,0,0,1-2.49-.57c-.31-.43-.93-.65-1.24-1.09a5.41,5.41,0,0,1-.56-1.52c0-.15,0-.35-.06-.5-1-2.49,0-4.49,1.39-6.49.92-1.34,2.34-2,3.61-2.8a2.9,2.9,0,0,1,2.33-.3c1,.26,2,.88,3.09.41a.45.45,0,0,1,.36,0c1.23.89,2.67.71,4.06.83,1.87.15,3.73.51,5.6.55,1.43,0,2.87.64,4.3,0,1.68.33,3.29-.3,4.94-.42.58,0,1.15-.3,1.72-.33a12.62,12.62,0,0,1,2,.11c.89.1,1.77.24,2.65.36a1,1,0,0,1,.48.14,30,30,0,0,1,2.67,2.49,9.67,9.67,0,0,1,1,2c.2.41.42.8.62,1.21a.8.8,0,0,1,.12.48,10.63,10.63,0,0,1-.64,2.34,39,39,0,0,1-2.7,4.64A16.38,16.38,0,0,0,77,220.05c-.78,1.77-2.36,2.9-3.45,4.43-1.49.62-1.84,2.27-2.93,3.27-.53.48-1.05,1-1.55,1.51-.87.93-1.75,1.87-2.59,2.83s-1.67,2-2.55,3c-.43.48-1,.85-1.44,1.29a40.89,40.89,0,0,1-3.66,3.33c-1.24.88-2.36,2.11-4.11,2.06a2.72,2.72,0,0,0-1.09.37,2.09,2.09,0,0,1-3-.87,4.69,4.69,0,0,1-.63-2.4c0-.92,0-1.83,0-2.75a2.51,2.51,0,0,0-.74-1.54c-.44-.49-.34-.8,0-1.2,1.75-1.86,3.5-3.72,5.22-5.6s3.24-3.5,4.76-5.34,2.79-3.64,4.17-5.46Z"/><path class="cls-1" d="M303.57,236.55a14.92,14.92,0,0,0,1.74,1.31,4.94,4.94,0,0,0,1.35.32,8.1,8.1,0,0,1,1.73.42c1.33.64,2.61,1.41,3.94,2.07a1.35,1.35,0,0,1,.79,1.35,9.68,9.68,0,0,1-.21,2.15,3.11,3.11,0,0,1-1,2,1.22,1.22,0,0,0-.4.65,7.47,7.47,0,0,1-2.85,4.15,4.41,4.41,0,0,1-3.84.9,15.19,15.19,0,0,0-2.94-.29,1.73,1.73,0,0,1-.83-.21,3.32,3.32,0,0,0-1.95-.55,11.17,11.17,0,0,1-4-1,35.35,35.35,0,0,0-3.51-1.14,2.46,2.46,0,0,0,.14.68c.85,1.38,1.38,2.91,2.12,4.32.89,1.7,2,3.3,3,4.94.54.91,1.1,1.81,1.64,2.71a.82.82,0,0,1,.1.26c.2,1.21.43,2.42.57,3.64a2.19,2.19,0,0,1-.25,1.1c-.31.7-.68,1.36-1,2-.09,0-3.18,2.43-3.79,2.76a1.82,1.82,0,0,1-2-.23,15.72,15.72,0,0,1-3.5-3.17,36.78,36.78,0,0,0-3.42-3.16s0,0,0-.05c-.33-1.26-1.49-1.95-2-3.06a4.13,4.13,0,0,0-.67-.94,26.53,26.53,0,0,1-2.52-3.64c-.91-1.34-1.56-2.91-2.86-4-.07-.06-.16-.12-.17-.19-.14-1.26-1.23-2-1.66-3.12a24,24,0,0,0-2-3.84,3.68,3.68,0,0,1-.4-2.58,14.71,14.71,0,0,1,.5-1.84,1,1,0,0,0,.07-.49c-.37-1.06.46-1.87.58-2.82a.3.3,0,0,1,.14-.21c1-.39,1.3-1.44,2-2.12.52-.52.91-1.16,1.77-1.14a.71.71,0,0,0,.42-.26,2,2,0,0,1,1.76-.61c1.41.07,2.81.21,4.21.4,1.57.21,3.14.45,4.69.75,1.89.36,3.79.72,5.64,1.24a8.36,8.36,0,0,0,3.29.19,6.87,6.87,0,0,1,3.52.48A1.8,1.8,0,0,0,303.57,236.55Z"/><path class="cls-1" d="M72.45,106.91l2.07-2.08a1.64,1.64,0,0,1,1.34-.61,1.7,1.7,0,0,0,1.19-.34,1.87,1.87,0,0,1,2.12-.36A50.43,50.43,0,0,0,84.63,105c1.53.27,3,.88,4.51,1.08s3.08.72,4.63,1a22.55,22.55,0,0,0,4.85.49c.07,0,.13-.11.24-.21-.73-1-.92-2.33-2-3.17-.3-.23-.36-.76-.55-1.14s-.53-1-.79-1.44c-.07-.11-.19-.21-.21-.33A3.74,3.74,0,0,0,94,98.77a13.66,13.66,0,0,1-1.77-2.32,5,5,0,0,1-.3-.56,3.46,3.46,0,0,0-.5-1c-1.06-1-1.37-2.54-2.28-3.67A4.44,4.44,0,0,1,88.64,90a7.71,7.71,0,0,0-.85-1.76l.27-2.44a27,27,0,0,1,1.6-2.23,3.1,3.1,0,0,1,3.24-1.36,6.07,6.07,0,0,1,3.39,1.65,1.86,1.86,0,0,0,.62.46,4.71,4.71,0,0,1,2,1.73c1.17,1.57,2.44,3.08,3.52,4.71,1.26,1.89,2.49,3.8,3.66,5.73,1,1.6,2.34,4.33,3.14,6,1,2.19,2.11,4.35,3.14,6.53.39.81.74,1.63,1.08,2.45a1.26,1.26,0,0,1,.13.62c-.16,1-.35,2-.54,3a1,1,0,0,1-.21.59c-1,1-1.66,2.49-3.07,3.17a1.47,1.47,0,0,0-.5.39c-.94,1.17-2.28,1.06-3.57,1.17s-2.69.35-4,.53a2.06,2.06,0,0,1-.85,0,6.33,6.33,0,0,0-2.59-.34,9.5,9.5,0,0,1-2-.2c-1.92-.38-3.83-.82-5.76-1.19-1.07-.21-2.15-.35-3.23-.52a5.22,5.22,0,0,1-.88-.15,23.22,23.22,0,0,0-5-1,9.26,9.26,0,0,1-4-1.62,27.14,27.14,0,0,0-2.73-1.42c-.15-.08-.35-.13-.44-.26a7.46,7.46,0,0,0-2.08-2.11,1,1,0,0,1-.25-1.37,8.39,8.39,0,0,0,.66-1.64,1.4,1.4,0,0,0,.05-.61C72.57,107.91,72.5,107.32,72.45,106.91Z"/><path class="cls-1" d="M217,88.6c-.42-.08-.74-.25-1-.18-1.49.4-2.64-.47-3.87-1A2.18,2.18,0,0,1,210.84,86c-.43-1.32-1-2.6-1.45-3.9a.51.51,0,0,0-.09-.16c-.9-1-1.81-1.91-2.72-2.87a12.18,12.18,0,0,1-1.14-1.6,28,28,0,0,0-3.21-3.68c-1.13-1.27-2.13-2.67-3.15-4s-2-2.74-3-4.16c-1.11-1.65-2.16-3.33-3.2-5a2,2,0,0,1,.1-2.48,2.7,2.7,0,0,0,.58-2.27,21.69,21.69,0,0,1-.23-2.68c-.09-1,.72-1.47,1.29-1.94a14.77,14.77,0,0,1,2.71-1.49.7.7,0,0,1,.38,0,.86.86,0,0,1,.36.13c.69.43,1.71,0,2.24.76s.83,1.39,1.24,2.08c.64,1.06,1.24,2.14,1.93,3.17.44.66,1,1.23,1.51,1.86,2.33,2.89,4.61,5.83,7,8.67a60.13,60.13,0,0,0,4.36,4.53,9.42,9.42,0,0,0,2.19,1.31c.37.2.7.07,1-.31s.84-1,1.26-1.45c.19-.23.5-.47.52-.71.07-1.2,1-1.74,1.75-2.43,1-1,2.09-1.9,3.14-2.85.06-.06.18-.1.19-.17.24-1.8,2.22-2.4,2.76-4.06.22-.7,1-1.21,1.56-1.81a3.31,3.31,0,0,0,.6-.65,1.93,1.93,0,0,1,1.25-1c.62-.23,1.09-.81,1.7-1.1,1.73-.85,3.45-1,4.89.31a5.34,5.34,0,0,1,1.76,4.36,7,7,0,0,1-1.67,4.23c-.53.61-.9,1.35-1.41,2-1.17,1.48-2.35,3-3.6,4.36-.81.91-1.77,1.68-2.64,2.53-.52.51-1,1.09-1.47,1.63-1.06,1.17-2.71,3.14-3.72,4.36a24.22,24.22,0,0,0-2.58,3.33,18.77,18.77,0,0,1-3,3.42,1.68,1.68,0,0,1-.94.38A4.32,4.32,0,0,0,217,88.6Z"/><path class="cls-1" d="M172.36,324a8.66,8.66,0,0,1-2.24-2.58c-.66-1.29-1.52-2.48-2.26-3.73a13.42,13.42,0,0,1-.69-1.49c-.23-.53-.22-1.18-.94-1.43-.2-.08-.26-.5-.41-.76a12.92,12.92,0,0,0-1-1.64c-.45-.58-.81-.54-1.42-.09-1,.73-2,1.35-2.92,2.15-1.16,1-2.54,1.76-3.64,2.92s-2.23,2.62-4,3.05c-.18,0-.3.29-.47.4-.82.52-1.26,1.56-2.49,1.55-.43,0-.84.67-1.33.84-1.15.42-2.35.73-3.61,1.1-.9-1.14-2.37-1.84-2.57-3.62a.28.28,0,0,1,0-.09c.25-1.16.61-2.29.81-3.46a8.71,8.71,0,0,1,2.84-4.86c1-1,2.13-1.84,3.1-2.85a12.57,12.57,0,0,1,1.18-1.43,32.46,32.46,0,0,0,2.65-2.72,2,2,0,0,1,.48-.43c2-1.09,3.37-2.83,4.92-4.4a9.67,9.67,0,0,1,3.56-2.66A3,3,0,0,0,163,297c1.62-1.55,2.82-1.73,4.82-.68a2,2,0,0,0,.48.19,4.8,4.8,0,0,1,2.88,2.35c.94,1.47,2.18,2.75,3.13,4.21s1.48,2.9,2.3,4.31,1.77,2.79,2.66,4.19c.13.21.2.45.32.67.69,1.36,1.37,2.72,2.1,4.06.2.37.59.63.81,1s.47,1,.72,1.5c.15.29.29.74.53.83,1.1.37,1.12,1.46,1.57,2.24a1,1,0,0,1-.63,1.46,1.87,1.87,0,0,0-1.21,1.24c-.26,1-1,1.41-1.83,1.84a3.07,3.07,0,0,0-1,.58,3.26,3.26,0,0,1-2.12,1.06c-.08,0-.18,0-.25,0-1.4.78-2.63,0-3.85-.5C173.43,327.2,172.39,325.19,172.36,324Z"/><path class="cls-1" d="M306.18,141.74c1.44.39,2.61.73,3.8,1,1,.23,1.92.45,2.89.62s1.86.25,2.79.37a3.94,3.94,0,0,1,.77.06,32,32,0,0,0,5.41,1c.29,0,.58.43.79.71.38.5.65,1.09,1.07,1.55s.3,1,.27,1.59a2.82,2.82,0,0,1-1.46,2.51c-1.58.91-3.08,2-4.63,2.94a1.56,1.56,0,0,1-.81.29,19.63,19.63,0,0,1-4.33-.13c-1.54-.35-3.12-.47-4.65-.81s-2.87-.83-4.31-1.23a3.18,3.18,0,0,0-1.24-.19,5.35,5.35,0,0,1-2.77-.37,10,10,0,0,0-4.26-.77,5.89,5.89,0,0,1-1.61-.32,2.41,2.41,0,0,0-.73-.14c-1.87.28-2.37-.49-3.25-2.25a4.64,4.64,0,0,1-.41-1.88,3.65,3.65,0,0,1,.4-1.57,28.28,28.28,0,0,1,1.44-2.58,13,13,0,0,1,2.91-3.53.34.34,0,0,0,.09-.08c2.3-2.79,5.46-4.61,8-7.06,1.62-1.54,3.59-2.43,5.28-3.78.22-.18.64-.37.82-.28a2.43,2.43,0,0,0,2-.11c1.31-.36,2.28.41,3.11,1.15a8.61,8.61,0,0,1,1.61,2.41,2,2,0,0,1,.13,1.24,9.16,9.16,0,0,1-1.89,4.05,9.36,9.36,0,0,1-1.87,1.54c-.68.5-1.41.94-2.09,1.45C308.43,140,307.42,140.77,306.18,141.74Z"/></svg>