<svg id="Layer_1" data-name="Layer 1" xmlns="http://www.w3.org/2000/svg" viewBox="0 0 367.32 367.32"><path d="M151.89,114.11c-.48-.15-.53-.69-.68-1.31-.31-1.32-.81-2.6-1.23-3.9a4,4,0,0,1-.4-1.46c.18-1.61-.84-3-.82-4.52-1.28-1.72-1.09-4-2.18-5.81a34.77,34.77,0,0,1-2.22-5.57A51.82,51.82,0,0,0,142,85.22c-1-1.93-1.58-4-2.63-5.93-.33-.59-.83-1.09-1.19-1.67a14.09,14.09,0,0,1-.88-1.68,26.22,26.22,0,0,0-2.84-5,.35.35,0,0,1-.08-.16c-.79-2.64-2.35-5-2.53-7.89a16.82,16.82,0,0,0-.88-3.71,4.25,4.25,0,0,1,.29-3.25,12.08,12.08,0,0,1,3.32-4.32,5.53,5.53,0,0,0,1.11-1c.85-1.17,2.13-1.3,3.38-1.48a2.34,2.34,0,0,1,2.25.56c.42.43,2.58,4,2.83,5.64.08.59.27,1.17.38,1.76a16.88,16.88,0,0,0,2.89,6.64c.11.17.31.33.34.52.42,2.3,2,4.06,2.84,6.16.54,1.34,1.2,2.63,1.81,3.94.34.72.72,1.42,1,2.15s.55,1.51.83,2.27.46,1.28.72,1.91q.84,2,1.71,4a4.36,4.36,0,0,0,.47.91,5.47,5.47,0,0,1,.8,1.39,2.88,2.88,0,0,0,1.18,1.27,9.08,9.08,0,0,1,1.51,1.12,2.94,2.94,0,0,1,.82,1.32,2.7,2.7,0,0,0,.39.8,24.2,24.2,0,0,1,2.81,5.87,15.51,15.51,0,0,0,1,1.76c.29.56.53,1.14.8,1.72a28.08,28.08,0,0,0,1.58,3.15,14.56,14.56,0,0,1,1,2.87c.21.58.44,1.16.68,1.74a52.63,52.63,0,0,0,2.6,5.34,60,60,0,0,1,2.9,6.74,43.08,43.08,0,0,0,4.21,7.9c.48.7.85,1.48,1.31,2.2a40.43,40.43,0,0,0,2.81,4.24c.83,1,1.55,2.07,2.46,3a25.59,25.59,0,0,0,2.93,2.69,20.74,20.74,0,0,0,3.18,1.64,14.49,14.49,0,0,0,5.36,1.09,5.39,5.39,0,0,0,2-.28c1.37-.52,2.73-1.09,4-1.74a35.91,35.91,0,0,0,3.16-1.87c1.55-1,3.16-1.89,4.63-3,3.27-2.46,6.78-4.59,10-7.1,2.22-1.72,4.61-3.22,6.8-5,1.76-1.41,3.62-2.69,5.24-4.25a27.22,27.22,0,0,0,2.18-2.69c.13-.16.24-.48.35-.48.84,0,1.17-.79,1.8-1.12a2.83,2.83,0,0,0,1.08-1.19,4.76,4.76,0,0,1,1.59-1.82,5,5,0,0,1,1.21-.43c.7-2.07,2.47-3.39,3.94-4.91.51-.52,1.36-.7,1.59-1.55,1.63-.5,2.06-2.27,3.36-3.18a13.2,13.2,0,0,0,2.11-2.54,41.53,41.53,0,0,1,4.34-5,53.23,53.23,0,0,0,4-4.28c1.27-1.37,2.89-2.47,3.71-4.22a8.66,8.66,0,0,1,2.83-2.85c.86-.7,1.79-1.31,2.64-2a4.92,4.92,0,0,1,3.62-1.37,3.35,3.35,0,0,0,1.65-.18c1.09-.55,1.79.17,2.58.59a23.21,23.21,0,0,1,4.23,3.92c.44.92.79,1.88,1.2,2.82.22.49.47,1,.73,1.5a18.62,18.62,0,0,1-.49,2c-.31.89-.72,1.74-1.11,2.59-.11.23-.37.4-.44.64-.71,2.33-2.8,3.34-4.49,4.73-.19.16-.47.21-.68.36-.69.48-1.63.33-2.28,1s-1.25,1-1.88,1.51c-.13.11-.25.28-.4.32-1.85.52-3,2-4.49,3.09s-2.82,1.94-4.16,3a24,24,0,0,0-2.05,2.1,2.49,2.49,0,0,1-.66.56,4,4,0,0,0-2,1.54c-.31.49-1.06.68-1.51,1.11a46,46,0,0,0-4.86,5.76,5,5,0,0,1-.67.71,6.68,6.68,0,0,0-1.28,1.2,12.36,12.36,0,0,1-2.16,2.35c-.8.76-1.49,1.65-2.25,2.45a8.5,8.5,0,0,1-2.91,2.41,1.45,1.45,0,0,0-.7.66,10.37,10.37,0,0,1-3.52,3.6c-.9.69-1.76,1.44-2.63,2.18-2.17,1.86-4.35,3.71-6.69,5.36a4.93,4.93,0,0,0-.74.83c-.45.55-.73,1.22-1.46,1.56-.38.18-.6.68-.92,1-.72.73-1.44,1.45-2.17,2.16a22.64,22.64,0,0,0-2.39,2.3c-.74,1-1.61,1.84-2.3,2.83a26,26,0,0,0-1.45,2.71,12.47,12.47,0,0,0-1.16,6.12,4.23,4.23,0,0,0,1.49,2.62,27.77,27.77,0,0,0,2.78,2.75c3.18,2.7,7.39,3.36,11,5.29a53,53,0,0,0,12.37,4.87c6.75,1.7,13.47,1.28,20.32,1.93a120.15,120.15,0,0,0,19.72.54c.47,0,.94-.11,1.4-.16.26,0,.55-.13.77,0a13,13,0,0,0,4.8.46c3.93,0,7.85.22,11.78.42,1.93.1,3.82.45,5.73.61,1.32.11,2.63.28,3.94.33a14.27,14.27,0,0,0,2.69-.19,3.09,3.09,0,0,1,3.07,1.2A23.44,23.44,0,0,0,321,182.7a4,4,0,0,1,1.07,3.55,9.39,9.39,0,0,0,0,1.5c0,.37.11.86-.08,1.09a8.71,8.71,0,0,0-1.35,3c-.41,1.21-1.4,1.65-2.32,2.22a7.51,7.51,0,0,1-1.57.56,1.09,1.09,0,0,1-.63.09c-1.67-.61-3.46-.15-5.16-.64a11.1,11.1,0,0,0-2.93-.36c-2.14,0-4.23-.54-6.39-.43-1,.05-2-.47-3.13-.19-.3.08-.66-.18-1-.2-.84-.07-1.68-.11-2.53-.13-.3,0-.59.08-.89.09-1.19,0-2.38.08-3.57.1-1.58,0-3.16.13-4.73,0-2-.1-4-.36-6-.51-1.19-.1-2.38-.13-3.57-.16-1.91-.05-3.82,0-5.74-.24-2.1-.22-4.22-.24-6.33-.32-.85,0-1.7.05-2.54,0-1.18-.11-2.35-.32-3.52-.51-.5-.08-1-.32-1.47.08-.06.05-.2.09-.24.06-.92-.79-2-.11-3-.26a20.58,20.58,0,0,0-2.94,0,.6.6,0,0,1-.36-.07c-1.09-.85-2.36-.5-3.58-.57-2.82-.14-5.65-.25-8.47-.54a10.51,10.51,0,0,0-3.54-.1,1.63,1.63,0,0,1-.63-.12,14.51,14.51,0,0,0-3-.38c-1.36,0-2.72-.22-4.07-.36a15.26,15.26,0,0,0-3.17,0,26.23,26.23,0,0,1-2.89-.25,7.35,7.35,0,0,0-3.28.24,6.17,6.17,0,0,1-2.4.08c-.25,0-.5-.18-.73-.16-1.53.18-3,.41-4.58.58a16.82,16.82,0,0,1-2.13,0c-1.06,0-2.09.18-3.13.21s-2.16.36-3.24.43-2.38.22-3.57.34a.66.66,0,0,0-.25,0c-1.43.72-3,.69-4.53,1.09a18.9,18.9,0,0,0-2.52.9,18.49,18.49,0,0,0-3.1,1.5,16.78,16.78,0,0,0-2.54,2.31,1.29,1.29,0,0,0-.36.76,21.13,21.13,0,0,0,.24,8.12c.47,1.8,1.19,3.54,1.81,5.31a13.27,13.27,0,0,0,1,2.75c1.18,1.87,1.56,4.06,2.64,6,.78,1.38,1.46,2.8,2.22,4.19,1.11,2,2.25,4.09,3.4,6.12.52.93,1.13,1.82,1.64,2.76,1,1.86,1.91,3.82,3.06,5.6.81,1.26,1.36,2.72,2.56,3.73a3.77,3.77,0,0,1,.64,1,37.72,37.72,0,0,1,3.8,6.23,2.08,2.08,0,0,0,.47.61,11.69,11.69,0,0,1,2.72,4.45,1.78,1.78,0,0,0,.45.78c1.62,1.31,2.51,3.18,3.7,4.81l5.06,7a2.72,2.72,0,0,1,.38.53,17.13,17.13,0,0,0,3.2,4.65c1.52,1.76,2.6,3.81,3.95,5.68,1,1.46,2,3,2.94,4.51,1.19,1.82,2.39,3.65,3.6,5.46.41.6.89,1.15,1.31,1.75.81,1.15,1.59,2.32,2.4,3.46.6.84,1.26,1.63,1.85,2.46a10.76,10.76,0,0,1,.76,1.32c.28.53.53,1.07.79,1.61.1.23.28.49.24.7a2.17,2.17,0,0,0,.61,1.88,1,1,0,0,1,.24.58c0,1.78,0,3.56,0,5.34a17.61,17.61,0,0,1-.08,1.92c0,.27-.16.69-.35.77-1.22.47-1.82,1.65-2.84,2.36a2.43,2.43,0,0,1-1.88.58,1.93,1.93,0,0,0-.7.11,5.51,5.51,0,0,1-4.51-.83,1.21,1.21,0,0,1-.44-.46,16.68,16.68,0,0,0-1.62-2.72c-1.37-2-2.46-4.2-3.74-6.27a18.26,18.26,0,0,0-1.88-2.27c-.57-.63-1.18-1.22-1.77-1.84a23.57,23.57,0,0,1-2.24-2.46,34.08,34.08,0,0,1-1.9-3.33,3.57,3.57,0,0,0-.33-.68c-.93-1-1.85-2.12-2.86-3.08a12.84,12.84,0,0,1-3-3.95c-.19-.43-.7-.7-1-1.1-1.48-1.91-2.9-3.88-4.44-5.75-.69-.84-1.64-1.47-2.42-2.25s-1.64-1.86-2.53-2.71c-1.32-1.27-2.19-3-3.93-3.83-.14-.07-.34-.2-.37-.33-.34-1.65-1.65-2.73-2.65-3.85s-1.82-2.56-2.94-3.69a18.07,18.07,0,0,1-1.54-2.33c-.39-.55-.89-1-1.3-1.56a1.45,1.45,0,0,1-.31-.65,2.74,2.74,0,0,0-1.22-1.88c-1.43-1-2.22-2.54-3.35-4-.64.07-1.06-.29-1.49-1a28,28,0,0,0-2.61-3.28c-.43-.52-.87-1-1.33-1.53s-1.14-1.11-1.72-1.66c-1.47-1.41-3-2.76-4.41-4.25a21.17,21.17,0,0,0-2.86-2.58c-.37-.27-.63-.7-1-1a6.25,6.25,0,0,0-1.95-1.17,6.37,6.37,0,0,1-1.7-.75,8.36,8.36,0,0,0-5.6-.73,24.78,24.78,0,0,0-7,2.72c-.57.28-1.19.46-1.77.72-1,.46-2.07,1-3.15,1.4-1.39.5-2.53,1.49-4,2a7.56,7.56,0,0,0-1.78,1.34,20.2,20.2,0,0,1-2.93,2.23,14.47,14.47,0,0,0-2.32,2,12.08,12.08,0,0,1-1.53,1.13c-1.41.87-2.38,2.22-3.68,3.21-.59.44-1.18.9-1.73,1.4s-1.14,1.15-1.72,1.71c-1,.92-1.93,1.8-2.87,2.73a12.88,12.88,0,0,1-1.83,1.92,25.43,25.43,0,0,0-2.54,2.43c-.32.26-.74.55-.85.91-.21.65-.43,1.16-1.18,1.34-.2.05-.29.49-.45.74a10.09,10.09,0,0,1-1.69,2.2,7,7,0,0,0-2.1,2.34,3.35,3.35,0,0,1-.76.85c-1,1-2.13,2-3.09,3.15a31.7,31.7,0,0,1-3.42,3.23,8.75,8.75,0,0,0-2.15,2c-.17.29-.67.38-.93.64-1.68,1.61-3.33,3.24-5,4.87a1.38,1.38,0,0,0-.27.27,9.85,9.85,0,0,1-4.85,3.87,7.6,7.6,0,0,0-1.21.87,23.66,23.66,0,0,0-3,.24,2.37,2.37,0,0,1-2-.51,8.1,8.1,0,0,1-3.22-6.39,4,4,0,0,1,.26-1,3.94,3.94,0,0,0,.22-1A3.87,3.87,0,0,1,85.76,275c.6-.66,1-1.36.26-2.26a4.37,4.37,0,0,1-.78-1.69,1.66,1.66,0,0,1,.15-1.22c.51-.78.41-1.36-.43-1.8a10.21,10.21,0,0,1,.79-1.69,1.34,1.34,0,0,0,0-1.77l1.07-1.92c.11-.19.17-.45.33-.55,1.37-.83,1.85-2.39,2.9-3.48.5-.53.92-1.11,1.38-1.67a3.35,3.35,0,0,1,.7-.75,9,9,0,0,0,3.33-3.61,3.76,3.76,0,0,1,1.08-1.26c1.76-1.22,2.75-3.24,4.45-4.47,2.64-1.89,4.43-4.61,6.86-6.7,1.93-1.66,3.8-3.37,5.56-5.21a24.63,24.63,0,0,1,3-2.51c.4-.3.67-.76,1-1.1,1.31-1.16,2.66-2.27,4-3.45s2.74-2.56,4.09-3.85c1-1,2.12-2,3.08-3.07,1.13-1.25,2.15-2.6,3.2-3.92s2.08-2.57,3-3.91a23.45,23.45,0,0,1,1.47-2.5,29,29,0,0,0,2.08-3.38,9.61,9.61,0,0,0,1.05-1.7c.79-1.94,1.45-3.93,2.2-5.88a2.8,2.8,0,0,0,.06-2,2.13,2.13,0,0,1,.18-2,1.69,1.69,0,0,0,0-1.95c-.7-.87-.58-1.86-.75-2.8a4.71,4.71,0,0,0-.82-2.49,2,2,0,0,1-.28-1.22,1.69,1.69,0,0,0-1.24-1.73,1.86,1.86,0,0,1-1.27-1.44,2.56,2.56,0,0,0-1.52-1.92,8.89,8.89,0,0,1-1.72-1.45,21.88,21.88,0,0,0-2.25-1.85,8.33,8.33,0,0,1-2-1.71,8,8,0,0,0-3.18-1.8c-1-.42-2-.61-3-1a15.44,15.44,0,0,1-3-1.33,44.46,44.46,0,0,0-4.8-2.64,2.51,2.51,0,0,1-.63-.43,1.57,1.57,0,0,0-1.36-.41,3.54,3.54,0,0,1-2.16-.61,5.62,5.62,0,0,0-2.75-.72c-1.25-.24-2.51-.36-3.77-.55-.54-.09-1.07-.26-1.62-.36-.79-.14-1.6-.21-2.38-.39-2-.46-4-.94-6-1.46-1-.27-2-.68-3-1-.69-.2-1.4-.32-2.2-.5-.81.77-1.78.16-2.72.07s-2-.31-3-.48a1.32,1.32,0,0,1-.49-.14c-1.36-.78-2.89-.71-4.38-.85-.77-.08-1.52-.26-2.28-.37-.42-.07-.84-.13-1.26-.16a26.85,26.85,0,0,1-5.32-.94c-.08,0-.19-.1-.23-.08-1.15.74-2.07-.34-3.13-.4a31.67,31.67,0,0,1-3.22-.73c-1-.17-2.11-.2-3.17-.28-.26,0-.56.08-.77,0-1.65-.89-3.7-.58-5.26-1.77a3.36,3.36,0,0,0-1.2-.29c-.86-.19-1.73-.33-2.57-.58s-1.59-.63-2.4-.9a2.22,2.22,0,0,1-1.49-1.65c-.24-1-1.11-1.85-1-3-1.11-.88-.44-1.86-.25-2.89a10.41,10.41,0,0,0,.38-3.26,4.21,4.21,0,0,1,1.43-3.27,18,18,0,0,1,1.51-1.39,2.23,2.23,0,0,1,1.85-.34,3,3,0,0,0,2.78-.78c.1,0,.29,0,.33.12.78,1.39,2.18,1.64,3.54,1.95l4.74,1.08a1.8,1.8,0,0,0,.87.1c1.13-.41,2.08.14,3.1.44a26.56,26.56,0,0,0,3.32.74c1.69.27,3.39.41,5.07.67.89.14,1.75.43,2.62.62,1.51.31,3,.59,4.53.89,2.22.46,4.44.91,6.66,1.39,3,.65,6,1.33,9,2,2.38.5,4.76,1,7.15,1.41,1.23.23,2.48.39,3.72.59.13,0,.31,0,.37,0,.72.8,1.8.73,2.69,1.12a3.57,3.57,0,0,0,1.6.17c2.12-.19,4.24-.6,6.37-.61a21.28,21.28,0,0,1,4.84.28,41.54,41.54,0,0,0,4.57.65,24.9,24.9,0,0,0,6.34.14c2.19-.34,4.43-.34,6.62-.64a8.28,8.28,0,0,0,1.7-.49c1.4-.51,2.95-.67,4.15-1.69.18-.16.56,0,.83-.13.51-.17,1.17-.26,1.47-.63a4.44,4.44,0,0,1,1.78-1.41,1,1,0,0,0,.65-1,3.93,3.93,0,0,1,.19-1.76,5.52,5.52,0,0,0,1-3.68c.79-1.22.38-2.6.37-3.87a17.58,17.58,0,0,1,.23-2.91,13.55,13.55,0,0,0-.09-4.31c0-.17-.13-.4-.06-.49.59-.77,0-1.37-.27-2a3.16,3.16,0,0,1-.29-1.68,11.5,11.5,0,0,0-.37-2.88,3.91,3.91,0,0,1-.16-2.27.46.46,0,0,0,0-.36c-.79-1.33-.55-2.9-1.07-4.3A11.63,11.63,0,0,1,151.89,114.11Z"/><path d="M281.13,204.57c.11,0,11.67,1.05,14.51,1.18a25.74,25.74,0,0,1,6.11.69,21.2,21.2,0,0,0,2.41.36c1.8.34,3.62.62,5.39,1.09a6.46,6.46,0,0,1,3.34,1.73,6.82,6.82,0,0,0,2.51,1.9,3.56,3.56,0,0,1,1.89,2.27c.27.82-.29,1.46-.55,2.16a5.66,5.66,0,0,1-.59,1.08c-.14.21-.31.51-.51.56-1,.23-1.16,1.14-1.68,1.76a17.3,17.3,0,0,1-2.41,2.57,3.4,3.4,0,0,1-1.95.49,13.4,13.4,0,0,1-2.68-.21,5,5,0,0,1-1.27-.64c-.37.07-.91.15-1.45.27a3.7,3.7,0,0,1-2-.23,19.56,19.56,0,0,0-3.27-.52,6.07,6.07,0,0,1-1.75-.24,2.79,2.79,0,0,0-2-.13,8.38,8.38,0,0,1-3.31,0c-1.22-.22-2.45-.47-3.68-.59-1.07-.1-2.15,0-3.23,0-1.83-.09-3.67-.24-5.5-.36a11.34,11.34,0,0,0-1.53-.1,7.52,7.52,0,0,1-3.3-.29.77.77,0,0,0-.25,0c-1.68.36-3.29-.37-4.94-.34-1.24,0-2.49.18-3.72.12s-2.27-.32-3.41-.49a3.23,3.23,0,0,0-1.24-.17,9.92,9.92,0,0,1-2.66.15c-1.05,0-2.11.15-3.16.17-1.4,0-2.8.07-4.19,0a14.3,14.3,0,0,1-2.36-.53c-.2,0-.42-.2-.59-.16-1.86.44-3.71-.42-5.56-.06-1.17-.59-2.52-.17-3.73-.66-.42-.16-1,.05-1.48.05-.69,0-1.3-.49-2.09-.16-.32.13-.93-.47-1.37-.72l-3.79.31a2.2,2.2,0,0,0,0,.85,6.31,6.31,0,0,0,.82,1.59c1.85,2.44,3.74,4.85,5.63,7.27.91,1.17,1.84,2.33,2.77,3.49s2,2.52,3.07,3.75c1.7,2,3.48,4,5.13,6.1,1.06,1.33,1.79,2.94,2.94,4.17.88.94,1.11,2.21,2.08,3.11a15.45,15.45,0,0,1,1.9,3c.63,1,1.31,2,1.95,3,.15.23.2.52.35.76a60,60,0,0,0,3.81,5.87c.61.77,1,1.76,1.58,2.58.73,1,1.35,2,2,3.06,1.18,1.83,2.35,3.67,3.54,5.5.61.93,1.24,1.85,1.88,2.76.76,1.08,1.52,2.16,2.3,3.23a3,3,0,0,1,.24,3.06,27.82,27.82,0,0,0-1.64,4.41,2.2,2.2,0,0,1-.6,1,19.67,19.67,0,0,0-2.55,3,2.47,2.47,0,0,1-1.66,1c-1.48.08-3.06.12-4.3-.88a6.29,6.29,0,0,1-1.14-1.8c-.57-1-1.06-2-1.69-3-1.15-1.73-2.41-3.4-3.57-5.14-.54-.81-.89-1.74-1.41-2.56-1.22-1.9-2.49-3.77-3.74-5.65a13.19,13.19,0,0,0-1.46-2.23,18.49,18.49,0,0,1-2.23-3.43c-.57-.9-1.09-1.83-1.61-2.76-1-1.79-2-3.59-3-5.37a35.12,35.12,0,0,0-2.14-3.47c-1-1.37-2.27-2.56-3.23-4-1.25-1.8-2.83-3.3-4.2-5-1.6-2-3.43-3.81-5.14-5.73-.78-.89-1.53-1.82-2.24-2.77a39.74,39.74,0,0,0-3.38-4.5c-.92-.92-1.43-2.1-2.34-3a17.9,17.9,0,0,1-1.53-2c-.44-.58-.9-1.15-1.34-1.73a17.51,17.51,0,0,1-2.41-4.64,1.53,1.53,0,0,0-.41-.62,4,4,0,0,1-1.29-2,7,7,0,0,0-1.19-2.07,6.5,6.5,0,0,1-1.31-4.69,22.84,22.84,0,0,1,.58-3.25c0-.17.07-.33.11-.5.25-.94,1.3-1.29,1.59-2.35.23-.84,1.22-1.5,1.94-2.17a4.7,4.7,0,0,1,2.9-.94,27.23,27.23,0,0,1,6.12.11c1.48.2,3,.38,4.46.47a8.35,8.35,0,0,0,1,0c.22,0,.47-.12.63,0,1.72.86,3.6.53,5.4.7,1,.09,2,.16,2.94.23,2.38.17,4.76.32,7.14.51,1.87.14,3.73.34,5.6.47,2.26.15,4.52.26,6.78.36a23.23,23.23,0,0,1,4.7.37,7.77,7.77,0,0,0,2.68.1,18.71,18.71,0,0,1,3.82.3c1,.07,2,.09,2.95.16,1.19.08,2.39.14,3.58.3C275.26,205.24,281.18,204.08,281.13,204.57Z"/><path d="M118.4,103.94a1.48,1.48,0,0,1-.8-1.47c-1-1.16-1.19-2.72-1.84-4a15.68,15.68,0,0,0-1.21-1.94c-.3-.45-.77-.8-.7-1.45,0-.16-.19-.36-.32-.52s-.26-.16-.27-.26c-.16-1.48-1.56-2.17-2.15-3.38a6.17,6.17,0,0,0-1-1.14c-.11-.12-.31-.23-.33-.37a7.46,7.46,0,0,0-1.26-2.46A16.94,16.94,0,0,0,107,84.59a18.78,18.78,0,0,1-1.55-2.6,4.47,4.47,0,0,0-.51-.72,43.27,43.27,0,0,1-4.19-4.83,8.18,8.18,0,0,1-.93-7.64.32.32,0,0,1,.13-.15c1.28-.9,1.86-2.57,3.49-3.09a2.36,2.36,0,0,0,1-.58,2.52,2.52,0,0,1,2.63-.51c1.46.32,2.94.58,4.38,1a2.87,2.87,0,0,1,2,1.65c.2.52.37,1,.53,1.58.31,1,.58,2,.9,3a3.7,3.7,0,0,0,.45.94c1.5,2.33,3.06,4.63,4.54,7,1.12,1.8,2.18,3.64,3.21,5.5s1.86,3.82,3,5.62a24.42,24.42,0,0,1,2.27,4.86c.16.44.45.82.65,1.25.56,1.22,1.12,2.44,1.64,3.67.84,2,1.7,3.93,2.46,5.93.65,1.71,1.18,3.48,1.76,5.22.69,2.06,1.41,4.12,2.07,6.2s1.29,4,1.79,6c.26,1.06.1,2.22.35,3.28.34,1.45.88,2.85,1.36,4.27.22.64.57,1.25.73,1.9a7.39,7.39,0,0,0,.77,2.15,2,2,0,0,1-.57,2.64,6.25,6.25,0,0,0-1,1.16,3.35,3.35,0,0,1-1.34,1.5c-.24.11-.39.44-.6.65a1.78,1.78,0,0,1-.56.47,8,8,0,0,0-2.8,1.62s-.07.07-.11.07c-1.16,0-2.2.86-3.43.49a3.9,3.9,0,0,0-.84,0c-.2,0-.51.07-.59,0-.49-.59-1.17-.39-1.77-.51-2.16-.41-4.42-.44-6.42-1.53a1.82,1.82,0,0,0-1-.22,7.56,7.56,0,0,1-3.56-.58c-.84-.35-1.67-1.05-2.75-.77-.23.06-.54-.23-.82-.32a2.8,2.8,0,0,0-1.87-.27,1.56,1.56,0,0,1-1-.07,9.09,9.09,0,0,0-4.25-.61,4,4,0,0,1-1-.15c-2-.45-4.06-.94-6.11-1.35-2.46-.5-4.94-.9-7.39-1.41-1.35-.28-2.66-.85-4-1-.89-.1-1.75-.38-2.65-.42a6,6,0,0,1-1.26-.17c-1.7-.39-3.39-.88-5.1-1.2s-3.15-.33-4.71-.57c-1-.16-2.08-.46-3.12-.7-.74-.17-1.47-.4-2.22-.5q-3.3-.47-6.62-.85a10.43,10.43,0,0,1-3.42-.86,2.71,2.71,0,0,0-1.5-.26,3,3,0,0,1-2.79-1.26,3.43,3.43,0,0,1-.91-3c.18-1,.06-2,.22-2.94a3.54,3.54,0,0,1,2-2.69,14.45,14.45,0,0,0,2.28-1.64,4.78,4.78,0,0,1,3.1-1.26,13.72,13.72,0,0,1,4,.53,11.93,11.93,0,0,0,2.53.41,50.55,50.55,0,0,1,7.2,1.39c3.5.8,7,1.65,10.52,2.3,3.33.6,6.58,1.53,9.9,2.18,1.93.38,3.88.68,5.8,1.1,2.13.47,4.25,1,6.37,1.58a44.34,44.34,0,0,0,7.07,1.15c1.06.1,2.11.31,3.16.51,1.63.3,3.25.67,4.88,1a19,19,0,0,1,2,.51,1.09,1.09,0,0,0,1.37-.26,2.19,2.19,0,0,1-.42-2.17,6.14,6.14,0,0,0-.19-1.78c0-.58-.06-1.16-.09-1.74,0-.13.05-.34,0-.36-.83-.38.2-1.39-.59-1.78a.42.42,0,0,1-.22-.3c0-1.77-1.65-2.93-1.77-4.74-.07-.93-.9-1.8-1.36-2.7-.13-.26-.32-.57-.27-.81a3.6,3.6,0,0,0-.58-2.3c-.59-1.31-1.06-2.69-1.58-4-.09-.24-.16-.49-.23-.73C118.8,105.33,118.63,104.75,118.4,103.94Z"/><path d="M57.05,252.35c-.67-1.51,0-2.7,2-3.27A1.79,1.79,0,0,1,60.85,247c.23,0,.44-.24.67-.35a6.94,6.94,0,0,1,1.87-.67,7,7,0,0,0,2.73-1.33,18.21,18.21,0,0,0,2-2.13,11.87,11.87,0,0,1,1.34-1.12,27.93,27.93,0,0,0,4.4-4.43c1.22-1.46,2.63-2.76,3.94-4.15.41-.43.78-.91,1.15-1.38.78-1,1.72-1.9,2.53-2.86,1-1.12,2.19-1.91,3.07-3.13a43.75,43.75,0,0,1,3.76-3.83c1.33-1.42,2.59-2.91,3.88-4.37l.51-.57c1.63-1.8,3.29-3.57,4.89-5.4a12.48,12.48,0,0,0,1.11-1.84,3.64,3.64,0,0,1,.35-.52,22.36,22.36,0,0,0,1.61-1.62c1.42-1.82,2.81-3.66,4.15-5.53.79-1.1,1.48-2.26,2.32-3.55-1-.38-1.81-.75-2.68-1.06-.68-.25-1.4-.39-2.06-.68a10.51,10.51,0,0,0-2.71-.65,32.09,32.09,0,0,1-3.55-.95,20.27,20.27,0,0,1-4.67-2,7.94,7.94,0,0,0-2.34-.56,4.29,4.29,0,0,1-.5-.07l-5.74-2a2.07,2.07,0,0,0-.61-.12,12.51,12.51,0,0,1-3.55-.71,9.49,9.49,0,0,0-3.37-.4,3.86,3.86,0,0,1-2.18-.45,4.08,4.08,0,0,0-2.2-.47c-1.67,0-3.33-.12-5-.29-.8-.08-1.69.11-2.36-.55-2-.12-3.84-1.07-5.86-1.13a.78.78,0,0,1-.49-.1c-1.09-.91-2.4-.57-3.63-.72a8.4,8.4,0,0,1-1.59-.45c-.79-.27-1.58-.58-2.38-.83a2.17,2.17,0,0,0-.76,0c-.22,0-.48.1-.63,0-1.13-.65-2.43-.4-3.62-.73a4.08,4.08,0,0,1-3.26-4.64,1.75,1.75,0,0,0,0-.64,4.85,4.85,0,0,1,.69-3.93c.74-1.19,1.44-2.53,2.82-3.16a3.17,3.17,0,0,1,2.71.1,21.72,21.72,0,0,0,3.89,1.17c1.88.51,3.82.79,5.71,1.23,1.41.32,2.79.77,4.19,1.12,1.09.26,2.22.4,3.3.68,1.91.51,3.89.65,5.82,1.06s3.9.59,5.84.92c1.37.24,2.73.59,4.1.83.45.08,1-.14,1.39-.05,1.24.26,2.46.61,3.69.92a1.88,1.88,0,0,0,.5.11c1.61-.07,3.1.56,4.65.83a15.43,15.43,0,0,1,2,.65c2,.65,4,1.37,6.09,1.92a20.91,20.91,0,0,0,4.75.92,14.39,14.39,0,0,1,3.38.73,17.41,17.41,0,0,1,4.8,2c1.72,1.09,3.73,1.58,5.57,2.43a27.18,27.18,0,0,1,2.83,1.7c.18.11.29.35.48.42,1.28.52,1.33,1.52,1.08,2.65a1.86,1.86,0,0,0-.11.88,4.22,4.22,0,0,1-.26,3,7.62,7.62,0,0,1-1,2c-1.36,1.91-2.18,4.14-3.68,6-.67.81-1,1.86-1.64,2.72-.73,1-1.44,2.12-2.18,3.14a36.49,36.49,0,0,0-2.61,3.59c-.06.11-.16.26-.26.28-1,.16-1.26,1.14-1.8,1.8-1,1.25-2,2.49-3.09,3.72a4.84,4.84,0,0,1-.78.64c-.17.13-.48.19-.52.34-.45,1.62-2.07,2.43-2.69,4-.22.52-.93.83-1.38,1.27-1.61,1.59-3.2,3.18-4.79,4.78-.45.46-.85,1-1.3,1.42-1.16,1.19-2.34,2.37-3.52,3.55l-.08.1c-.68,1.46-2.06,2.29-3.08,3.44-.79.89-1.58,1.78-2.4,2.65-1,1-2,2-2.95,3.08-.41.44-.69,1-1.07,1.44s-.61.8-1,.92a2.5,2.5,0,0,0-1.3,1.15,3.24,3.24,0,0,1-.79,1c-.76.46-1.56.72-1.89,1.77-.16.52-1,.84-1.51,1.26A20.88,20.88,0,0,1,72,254.75a18.29,18.29,0,0,0-2.12,1.83,1.94,1.94,0,0,1-.57.3,40.5,40.5,0,0,0-3.85,2.18,3,3,0,0,1-1.34.35c-.56,0-1.11-.17-1.57.28-1.13-.36-2.35.15-3.47-.37a2.62,2.62,0,0,1-1.58-1.56c-.14-.42-.77-.76-.77-1.14,0-.77-.35-1.47-.39-2.17A5.81,5.81,0,0,1,57.05,252.35Z"/><path d="M202.31,119.3a9.08,9.08,0,0,0-1.46-.17,3.56,3.56,0,0,1-3-1.55,13.91,13.91,0,0,1-1.43-3.2,5.7,5.7,0,0,0-1.1-1.87,3,3,0,0,1-.84-2.64c-1.35-.2-1.12-1.42-1.43-2.29-.17-.48-.14-1-.66-1.31a.69.69,0,0,1-.21-.31c-1-2.35-2.62-4.38-3.79-6.65-.51-1-.93-2.06-1.42-3.08s-1-2-1.5-3c-1-2.21-2-4.44-3-6.66a1.2,1.2,0,0,0-.17-.34c-1.21-1.49-1.67-3.36-2.56-5a15.09,15.09,0,0,1-.95-2.64,11.66,11.66,0,0,0-1.49-2.81,32.63,32.63,0,0,1-2-3.75c-.53-1.12-.94-2.29-1.47-3.4-1.3-2.69-2.51-5.44-4-8a95,95,0,0,0-5.67-9.43,5.66,5.66,0,0,1-.52-2.21c-.11-.59-.17-1.18-.26-1.77a2.25,2.25,0,0,1,.87-2.49,6.46,6.46,0,0,0,1.44-1.42,3,3,0,0,1,1.5-.88c1.9-.76,3.3,0,4.6,1.29.55.54,1.13,1,1.7,1.56a2,2,0,0,1,.37.35c.93,1.47,2.31,2.63,3,4.28.2.46.61.82.84,1.27.53,1,1.47,1.91,1.51,3.2,0,.19.21.37.31.56,1.1,2.11,2.31,4.19,3.27,6.37,1.11,2.52,2.52,4.91,3.19,7.62a6.39,6.39,0,0,0,.76,1.3,28.66,28.66,0,0,1,1.91,3.47c.5,1.24,1.35,2.36,1.41,3.78a1.52,1.52,0,0,0,.22.59c1,1.7,1.9,3.39,2.84,5.09.41.74.82,1.49,1.19,2.25a1.8,1.8,0,0,1,0,.62c0,.2,0,.52.09.59.93.63.91,1.81,1.54,2.61.17.21.16.56.24.84s0,.5.16.6c1.23.9,1.3,2.45,2.05,3.63a23.44,23.44,0,0,1,1.88,3.62,33.51,33.51,0,0,0,2.11,4.08c.65,1.07,1.14,2.24,1.7,3.36a11,11,0,0,0,.55,1,1.4,1.4,0,0,0,2.11.33c.48-.39.86-.89,1.36-1.25s1-.48,1.49-.76a5.15,5.15,0,0,0,.87-.75c1.09-1.08,2.12-2.23,3.27-3.23S216.21,99,217.35,98c2.1-1.8,4.15-3.68,6.22-5.52a3.91,3.91,0,0,1,.59-.5c1.34-.7,2.25-1.93,3.46-2.78.9-.64,1.82-1.28,2.67-2,1.25-1,2.41-2.18,3.68-3.2a44.64,44.64,0,0,1,5.17-4c.91-.53,1.7-1.28,2.6-1.85,2.63-1.63,4.77-3.85,7.15-5.78,1.74-1.4,3.61-2.62,5.38-4a7.33,7.33,0,0,1,2.51-1.26c.73-.15,1.44-.4,2.16-.6a1.57,1.57,0,0,0,.58-.23,3.32,3.32,0,0,1,2.75-.78A4.42,4.42,0,0,1,265,66.83a2.42,2.42,0,0,1,.48,3.31c-.13.24-.06.59-.14.88s-.13.58-.31.67c-1.39.77-1.93,2.27-3,3.34a6,6,0,0,1-1.33,1.14,42.42,42.42,0,0,0-7.95,6.29c-.78.74-2.16,1.83-3,2.49-1,.81-2,1.66-3.13,2.38-1.31.87-2.74,1.56-4,2.46a4.33,4.33,0,0,0-2.15,2.55,3.44,3.44,0,0,0-.94.29,20.11,20.11,0,0,0-3.17,2.16c-1.68,1.62-3.65,2.84-5.32,4.45a71.55,71.55,0,0,1-6.89,5.62c-1.31,1-2.61,2-3.93,2.9a22.24,22.24,0,0,0-3.45,3.19,3.81,3.81,0,0,1-.92.67,25.56,25.56,0,0,0-4.83,3.53,6,6,0,0,1-3.27,1.87.36.36,0,0,0-.23.09C206.11,118.48,204,118.45,202.31,119.3Z"/><path d="M261.8,152.93c1.53.39,2.85.74,4.18,1,1.54.35,3.1.67,4.65.95.28.05,1.46.06,1.42.28.06.05.12.14.19.15,1.14.14,2.29.26,3.43.39.13,0,.3,0,.37.08.66.69,1.55.62,2.39.79,2.3.47,4.59,1,6.88,1.5a12.16,12.16,0,0,0,1.35.18,41.1,41.1,0,0,1,5.14,1,7.2,7.2,0,0,0,3.16.24c.19,0,.51,0,.61.07.71.81,1.73.64,2.61.77,1.47.21,3,.14,4.48.28.69.07,2.26-.24,2.71-.13a10,10,0,0,0,2.35-.2c1.78-.07,3.56-.19,5.33-.38a28.47,28.47,0,0,0,2.85-.63c.34-.07.68-.13,1-.17l4.54-.47a5.6,5.6,0,0,1,2.93.32,3.24,3.24,0,0,0,1.13.21c.73.06,1.46.06,2.18.13.23,0,.59.15.66.31.43,1.13,1.64,1.86,1.49,3.31a6.69,6.69,0,0,1-.9,3.41,5.72,5.72,0,0,0-.49,1.37c-.52.12-1.13.31-1.75.4-1.14.16-2,1-3,1.32a13.2,13.2,0,0,1-3.14.43c-1.46.08-2.92,0-4.37.08a9.5,9.5,0,0,0-1.38.24c-.42.07-.84.16-1.26.2-1.62.18-3.23.36-4.85.5-1.32.11-2.65.18-4,.26-1.75.1-3.5.25-5.26.26a28.68,28.68,0,0,1-3.18-.37,26.69,26.69,0,0,0-2.68-.25,30.19,30.19,0,0,1-5.27-.78c-1.34-.25-2.67-.61-4-.86-.43-.08-.83-.07-1.13-.46a.68.68,0,0,0-.57-.19c-1.54.33-3-.27-4.54-.28-1,0-1.91-.64-2.89-.85-1.57-.34-3-1-4.59-1.37a20.32,20.32,0,0,0-2.93-.17,11.14,11.14,0,0,1-3.51-.67c-.41-.17-.94,0-1.39-.13a16.86,16.86,0,0,0-2.72-.67c-2.22-.08-4.22-1-6.34-1.49a10.15,10.15,0,0,0-3.28-.24c-.74.07-1.54-.2-2.24.36-.16.13-.58,0-.86-.09-.86-.25-1.71-.52-2.56-.81a1,1,0,0,1-.52-.34c-.75-1.19-1.48-2.39-1.07-3.9a6.9,6.9,0,0,0,.09-1,1.54,1.54,0,0,1,.61-1.19,1.45,1.45,0,0,0,.59-1.77.93.93,0,0,1,.56-1.27,4.3,4.3,0,0,1,.57-.28c1.77-.63,2.91-2.07,4.18-3.32,1.06-1,2.11-2.11,3.16-3.16.79-.79,1.56-1.59,2.36-2.36s1.62-1.51,2.41-2.28a5.47,5.47,0,0,0,.49-.73c.19-.27.34-.65.61-.8,1.79-1,2.76-2.76,4.1-4.18s2.12-3.27,3.55-4.63c.09-.09.14-.23.24-.3,2.24-1.58,3.7-4,6-5.56,1.37-.95,2.52-2.2,3.84-3.21,1.55-1.2,3.21-2.27,4.77-3.46a42.46,42.46,0,0,1,5.38-3.71c.57-.3.95-.94,1.44-1.41s.7-.61,1.06-.91a35.4,35.4,0,0,1,3.28-2.61c1.45-.92,2.88-2,4.7-2.14.84-.08,1.66-.3,2.5-.45a.85.85,0,0,1,.5,0,16.06,16.06,0,0,1,2.11,1.18,3.57,3.57,0,0,1,1.21,2c.78,2.63-.86,4.45-2.13,6.36a9.16,9.16,0,0,1-4.21,3.15,16.57,16.57,0,0,0-2.69,1.86c-1.15.8-2.33,1.57-3.5,2.35-1,.69-2.05,1.36-3,2.09-1.61,1.2-3.19,2.45-4.74,3.72-.59.48-1.15,1-1.69,1.52-1.62,1.58-3.27,3.15-4.77,4.84-1.9,2.14-3.64,4.42-5.48,6.61-.63.75-1.36,1.42-2,2.13-.84.89-1.66,1.8-2.51,2.68a14.42,14.42,0,0,1-1.69,1.54A14.07,14.07,0,0,0,261.8,152.93Z"/><path d="M116.63,307.35c-.68.17-1.45-.62-1.86-1.35a3.87,3.87,0,0,1,.34-4.54,4.11,4.11,0,0,0,.69-2.38,5.23,5.23,0,0,1,.36-1.61,25.86,25.86,0,0,1,3.27-5.14,49.26,49.26,0,0,1,5-5.37c.56-.57,1.36-.9,2-1.42a25.19,25.19,0,0,0,1.8-1.78s0-.09.07-.11c1.84-.95,2.55-3.06,4.21-4.17,2.28-1.53,4-3.67,6.18-5.33,1.65-1.25,3-2.83,4.63-4.2s3.32-2.75,5-4.12c.13-.11.24-.25.36-.37a21,21,0,0,1,4-3.11c1.66-1.11,3.34-2.19,5-3.26a9.7,9.7,0,0,1,1.36-.7,3.35,3.35,0,0,0,1.82-1.33,1.86,1.86,0,0,1,1.22-.61,7.38,7.38,0,0,0,2.54-1.14,2.36,2.36,0,0,1,2.42-.06c1,.58,1.86,1.49,3.06,1.83.33.1.58.49.85.76.47.49.93,1,1.39,1.49a1.7,1.7,0,0,1,.42.63,4.68,4.68,0,0,0,1.35,2c1.26,1.45,2.55,2.88,3.84,4.31s2.81,3.2,4.32,4.7a40.39,40.39,0,0,1,4.13,4.82c2.53,3.46,4.9,7,7.21,10.65.59.93,1.29,1.79,1.9,2.71.32.5.52,1.08.84,1.58a82.7,82.7,0,0,0,6.5,8.73,76.18,76.18,0,0,1,5.48,8,4.68,4.68,0,0,1,.61,3.75,5,5,0,0,1-.68,1.32,4,4,0,0,0-.43.74,3.93,3.93,0,0,1-2.58,2.77c-.47.15-.9.28-1.08.79,0,.11-.16.28-.25.28-1.15.06-2.12,1.06-3.35.67-.17-.06-.38-.07-.48-.19-1-1.1-2.8-1.49-2.75-3.41-.64-.9-1.33-1.76-1.89-2.71-1-1.68-2.36-3.08-3.39-4.75-1.17-1.88-2.05-4-3.53-5.66s-2.41-3.4-3.85-4.93a11.38,11.38,0,0,1-1.12-1.85c-.22-.36-.46-.71-.7-1.05s-.42-.54-.6-.82c-.91-1.43-1.82-2.86-2.7-4.3-.22-.36-.32-.8-.52-1.17s-.38-.86-.72-1.05c-1.1-.63-1.31-1.84-1.93-2.78a4,4,0,0,0-1.62-1.69,3.34,3.34,0,0,1-1.08-1.07c-.71-.93-1.35-1.93-2.08-2.84-.53-.66-1.19-1.21-1.76-1.84-1.11-1.24-2.2-2.48-3.28-3.74-.54-.64-1.42-.85-1.91-1.59-.13-.2-.84-.15-1.21,0-1.25.47-2.6.6-3.84,1a6.7,6.7,0,0,0-2.91,1.8c-.65.74-1.59,1.09-2.12,1.92a5.32,5.32,0,0,1-1,1.12c-.53.46-1.12.87-1.69,1.29a2.39,2.39,0,0,1-.56.32c-1.39.56-1.85,2.05-2.91,2.94-.37.31-.8.58-1.2.86-.14.09-.34.12-.45.23-1.06,1.1-2.08,2.23-3.16,3.3-.84.83-1.78,1.55-2.63,2.36-1.27,1.19-2.49,2.44-3.75,3.62-1.07,1-2.19,2-3.28,2.94a1.94,1.94,0,0,0-.33.37,19.65,19.65,0,0,1-4,3.91c-.35.31-.74.5-.87,1a1.15,1.15,0,0,1-.49.56,14.93,14.93,0,0,0-2.63,2A51.29,51.29,0,0,1,116.63,307.35Z"/><path d="M60.07,213.48c-.84,0-1.68-.09-2.52-.1-1,0-2,.07-3,.07-1.18,0-2.33-.26-3.49-.35s-2.21-.78-3.3,0c-.1.07-.29.14-.36.1-1.09-.71-2.43,0-3.52-.61a1.87,1.87,0,0,0-1.6-.07c-.93.3-1.8.42-2.5-.56-.31-.44-.92-.66-1.23-1.1a5.69,5.69,0,0,1-.57-1.51c0-.16,0-.35,0-.5-1-2.49,0-4.5,1.39-6.49.92-1.34,2.34-2,3.61-2.8a2.84,2.84,0,0,1,2.32-.3c1,.25,2,.87,3.1.4a.43.43,0,0,1,.35,0c1.24.89,2.67.7,4.06.82,1.88.16,3.74.52,5.61.56,1.43,0,2.86.64,4.29,0,1.69.33,3.3-.3,4.94-.41.58,0,1.15-.3,1.73-.34a14,14,0,0,1,2,.11c.88.1,1.76.24,2.64.37a.9.9,0,0,1,.48.13,27.51,27.51,0,0,1,2.67,2.5,8.82,8.82,0,0,1,1,2c.2.4.42.8.61,1.2a.9.9,0,0,1,.13.49,10.8,10.8,0,0,1-.65,2.34,39.69,39.69,0,0,1-2.69,4.64,16.35,16.35,0,0,0-1.74,2.65c-.78,1.78-2.36,2.91-3.44,4.43-1.5.63-1.85,2.28-2.94,3.27-.53.49-1.05,1-1.54,1.51-.88.93-1.75,1.87-2.59,2.84s-1.68,2-2.56,3a16,16,0,0,1-1.44,1.28,37,37,0,0,1-3.66,3.33c-1.23.88-2.36,2.11-4.1,2.07a2.7,2.7,0,0,0-1.09.36,2.08,2.08,0,0,1-3-.87,4.58,4.58,0,0,1-.64-2.4c0-.92,0-1.82,0-2.75a2.49,2.49,0,0,0-.75-1.54c-.43-.49-.33-.8,0-1.2,1.74-1.86,3.5-3.71,5.22-5.59s3.23-3.51,4.75-5.35,2.79-3.63,4.18-5.46Z"/><path d="M300.35,233.34a17.62,17.62,0,0,0,1.75,1.31,5.59,5.59,0,0,0,1.34.32,8.09,8.09,0,0,1,1.73.41c1.34.65,2.61,1.41,3.94,2.07a1.37,1.37,0,0,1,.79,1.36,9,9,0,0,1-.2,2.14,3.08,3.08,0,0,1-1,2,1.16,1.16,0,0,0-.39.64,7.45,7.45,0,0,1-2.85,4.15,4.42,4.42,0,0,1-3.85.9,16.82,16.82,0,0,0-2.93-.29,1.66,1.66,0,0,1-.84-.2,3.29,3.29,0,0,0-1.94-.55,11.08,11.08,0,0,1-3.95-1c-1.08-.47-2.24-.73-3.51-1.14a2.3,2.3,0,0,0,.14.68c.84,1.38,1.37,2.91,2.12,4.33.89,1.7,2,3.3,3,4.94l1.65,2.7a.62.62,0,0,1,.09.27c.21,1.21.43,2.42.58,3.64a2.32,2.32,0,0,1-.25,1.1c-.31.69-.68,1.36-1,2-.09,0-3.18,2.43-3.79,2.75a1.79,1.79,0,0,1-2-.23,15.67,15.67,0,0,1-3.49-3.17,36.9,36.9,0,0,0-3.43-3.16l0-.05c-.32-1.26-1.48-1.95-2-3.05a3.88,3.88,0,0,0-.68-.94,27.45,27.45,0,0,1-2.52-3.64c-.91-1.35-1.56-2.91-2.86-4-.06-.05-.15-.12-.16-.19-.15-1.25-1.24-2-1.67-3.12a23.1,23.1,0,0,0-2-3.83,3.69,3.69,0,0,1-.39-2.59,15,15,0,0,1,.49-1.83.88.88,0,0,0,.08-.49c-.37-1.07.45-1.88.58-2.83a.29.29,0,0,1,.14-.21c1-.38,1.29-1.43,2-2.12.51-.51.9-1.15,1.76-1.14.14,0,.32-.14.42-.26a2,2,0,0,1,1.77-.6c1.4.07,2.81.21,4.2.39,1.58.21,3.14.45,4.7.76,1.89.36,3.79.72,5.63,1.24a8.62,8.62,0,0,0,3.3.19,6.67,6.67,0,0,1,3.52.48A1.8,1.8,0,0,0,300.35,233.34Z"/><path d="M69.24,103.7l2.07-2.08a1.64,1.64,0,0,1,1.34-.62,1.72,1.72,0,0,0,1.19-.34,1.84,1.84,0,0,1,2.12-.35,54.79,54.79,0,0,0,5.46,1.43c1.53.27,3,.88,4.51,1.08s3.07.72,4.62,1a22.64,22.64,0,0,0,4.86.48c.06,0,.12-.1.23-.2-.72-1-.91-2.34-2-3.17-.3-.23-.36-.76-.56-1.14s-.52-1-.79-1.45c-.06-.11-.19-.21-.2-.32a3.74,3.74,0,0,0-1.33-2.47A13.24,13.24,0,0,1,89,93.23a3.76,3.76,0,0,1-.3-.56,3.53,3.53,0,0,0-.5-1c-1.06-1-1.38-2.54-2.28-3.68a4,4,0,0,1-.49-1.17A8.17,8.17,0,0,0,84.58,85l.27-2.44c.41-.58.94-1.46,1.59-2.24A3.1,3.1,0,0,1,89.68,79a6.14,6.14,0,0,1,3.4,1.66,1.7,1.7,0,0,0,.61.45,4.81,4.81,0,0,1,2,1.73c1.17,1.58,2.43,3.09,3.52,4.72,1.25,1.88,2.48,3.79,3.66,5.73,1,1.6,2.33,4.33,3.13,6,1,2.18,2.11,4.34,3.15,6.53.38.8.73,1.62,1.08,2.45a1.23,1.23,0,0,1,.12.62c-.15,1-.34,2-.53,3a1.26,1.26,0,0,1-.21.59c-1,1-1.66,2.49-3.07,3.17a1.51,1.51,0,0,0-.51.39c-.94,1.17-2.27,1.06-3.56,1.17s-2.69.35-4,.52a1.73,1.73,0,0,1-.84,0,6.73,6.73,0,0,0-2.59-.34,9.36,9.36,0,0,1-2-.19c-1.93-.38-3.84-.82-5.76-1.2-1.07-.21-2.16-.34-3.23-.51a6.36,6.36,0,0,1-.89-.15,23.1,23.1,0,0,0-5-1.05,9.35,9.35,0,0,1-4-1.62,29.63,29.63,0,0,0-2.74-1.43c-.15-.07-.35-.13-.43-.26a7.46,7.46,0,0,0-2.09-2.1,1,1,0,0,1-.25-1.38,8.6,8.6,0,0,0,.67-1.63,1.44,1.44,0,0,0,0-.62C69.36,104.69,69.28,104.1,69.24,103.7Z"/><path d="M213.74,85.39c-.43-.09-.75-.26-1-.19-1.49.4-2.64-.46-3.87-1a2.22,2.22,0,0,1-1.25-1.39c-.43-1.32-1-2.6-1.44-3.91a.49.49,0,0,0-.1-.15c-.9-1-1.81-1.91-2.71-2.87a10.65,10.65,0,0,1-1.14-1.61A29.4,29.4,0,0,0,199,70.61c-1.13-1.28-2.14-2.67-3.16-4s-2-2.74-3-4.15c-1.11-1.65-2.17-3.33-3.2-5a2,2,0,0,1,.09-2.47,2.72,2.72,0,0,0,.59-2.28,19.63,19.63,0,0,1-.24-2.68c-.09-1,.73-1.47,1.29-1.93a14.28,14.28,0,0,1,2.72-1.49.68.68,0,0,1,.38,0,1.2,1.2,0,0,1,.36.13c.69.44,1.7,0,2.24.77s.82,1.38,1.24,2.07c.63,1.06,1.24,2.15,1.92,3.17.44.66,1,1.24,1.52,1.86,2.33,2.9,4.6,5.84,7,8.68a56.36,56.36,0,0,0,4.36,4.52A9.74,9.74,0,0,0,215.32,69c.38.2.71.06,1-.32s.84-1,1.26-1.45c.2-.22.51-.46.52-.71.08-1.2,1-1.73,1.76-2.43,1-1,2.09-1.9,3.14-2.84.06-.06.17-.11.18-.17.24-1.8,2.23-2.41,2.76-4.06.23-.7,1-1.22,1.57-1.81a3.09,3.09,0,0,0,.6-.66,1.89,1.89,0,0,1,1.24-1,19.77,19.77,0,0,0,1.7-1.11c1.74-.85,3.45-1,4.89.31a5.3,5.3,0,0,1,1.76,4.36A6.88,6.88,0,0,1,236,61.39c-.52.62-.9,1.36-1.4,2-1.18,1.47-2.35,2.95-3.61,4.36-.81.9-1.77,1.67-2.63,2.53-.52.51-1,1.08-1.47,1.63-1.06,1.17-2.72,3.14-3.72,4.35a23.53,23.53,0,0,0-2.59,3.33,18.1,18.1,0,0,1-3,3.43,1.81,1.81,0,0,1-.93.38A4.26,4.26,0,0,0,213.74,85.39Z"/><path d="M169.14,320.76a8.46,8.46,0,0,1-2.23-2.57c-.67-1.29-1.52-2.48-2.26-3.74A11.26,11.26,0,0,1,164,313c-.22-.53-.22-1.17-.93-1.43-.2-.07-.27-.5-.41-.75a13.41,13.41,0,0,0-1-1.64c-.46-.59-.82-.55-1.42-.09-1,.72-2,1.34-2.92,2.14-1.16,1-2.54,1.76-3.65,2.92s-2.23,2.63-4,3.05c-.18,0-.3.29-.48.4-.82.52-1.26,1.56-2.48,1.56-.44,0-.84.66-1.33.84-1.16.42-2.36.72-3.62,1.1-.9-1.15-2.37-1.85-2.56-3.62v-.09c.25-1.16.61-2.3.81-3.46a8.7,8.7,0,0,1,2.84-4.86c1-1,2.14-1.84,3.1-2.86a13.65,13.65,0,0,1,1.18-1.42,31.09,31.09,0,0,0,2.65-2.73,2.43,2.43,0,0,1,.48-.43c2-1.08,3.37-2.82,4.92-4.39a9.78,9.78,0,0,1,3.56-2.67,3,3,0,0,0,1.06-.71c1.62-1.56,2.81-1.74,4.82-.69a2.14,2.14,0,0,0,.47.2,4.77,4.77,0,0,1,2.89,2.34c.94,1.47,2.18,2.75,3.12,4.22s1.48,2.9,2.3,4.3,1.78,2.79,2.66,4.19c.13.21.21.46.32.68.7,1.36,1.38,2.72,2.1,4.06.2.36.59.62.81,1s.48,1,.73,1.5c.15.3.28.75.53.83,1.09.38,1.11,1.47,1.57,2.24a1,1,0,0,1-.63,1.47,1.81,1.81,0,0,0-1.21,1.24c-.27,1-1,1.41-1.84,1.84-.33.18-.76.29-1,.57a3.3,3.3,0,0,1-2.12,1.07c-.08,0-.19,0-.26,0-1.4.79-2.63,0-3.85-.5C170.21,324,169.18,322,169.14,320.76Z"/><path d="M303,138.53c1.43.38,2.61.72,3.8,1,1,.24,1.91.46,2.88.62s1.86.26,2.79.37a4.81,4.81,0,0,1,.77.06,33.2,33.2,0,0,0,5.42,1c.29,0,.57.42.79.7.38.5.65,1.1,1.06,1.56s.3,1,.27,1.58A2.85,2.85,0,0,1,319.3,148c-1.58.91-3.09,2-4.63,2.93a1.67,1.67,0,0,1-.81.3,20.34,20.34,0,0,1-4.34-.14c-1.53-.34-3.11-.47-4.65-.81s-2.87-.83-4.31-1.23a3,3,0,0,0-1.23-.18,5.54,5.54,0,0,1-2.77-.37,10,10,0,0,0-4.26-.78,5.8,5.8,0,0,1-1.61-.31,2,2,0,0,0-.74-.14c-1.87.27-2.37-.49-3.24-2.26a4.44,4.44,0,0,1-.41-1.87,3.65,3.65,0,0,1,.39-1.58c.43-.88.94-1.73,1.44-2.58a13,13,0,0,1,2.91-3.52l.1-.08c2.3-2.8,5.46-4.61,8-7.06,1.62-1.54,3.59-2.44,5.29-3.79.22-.17.64-.36.82-.27a2.45,2.45,0,0,0,2-.12c1.32-.36,2.28.42,3.12,1.15a8.67,8.67,0,0,1,1.61,2.42,2.08,2.08,0,0,1,.12,1.24,9.25,9.25,0,0,1-1.88,4,9.72,9.72,0,0,1-1.87,1.54c-.68.5-1.41.94-2.09,1.44C305.22,136.74,304.21,137.56,303,138.53Z"/></svg>